<svg width="20" height="20" viewBox="0 0 20 20" fill="none" xmlns="http://www.w3.org/2000/svg">
<g clip-path="url(#clip0_1_15066)">
<path d="M18.9512 0.33206C18.4051 -0.0312209 17.7884 -0.100947 17.2591 0.140849C16.3555 0.553974 15.3798 1.11741 14.3467 1.71401C12.2959 2.89819 9.97398 4.23905 7.59859 4.74249H4.19352C3.67783 4.74249 3.16719 4.84406 2.69075 5.04141C2.21432 5.23875 1.78142 5.52801 1.41677 5.89266C1.05212 6.2573 0.762866 6.6902 0.56552 7.16664C0.368174 7.64307 0.266602 8.15371 0.266602 8.6694C0.266602 9.18509 0.368174 9.69573 0.56552 10.1722C0.762866 10.6486 1.05212 11.0815 1.41677 11.4462C1.78142 11.8108 2.21432 12.1001 2.69075 12.2974C3.16719 12.4947 3.67783 12.5963 4.19352 12.5963H4.34606C4.3893 13.988 4.67512 15.3288 5.18383 16.5074C5.77813 17.8844 6.66145 19.0084 7.7382 19.7578C7.96005 19.9146 8.22481 19.9992 8.49645 20C8.66954 19.9995 8.84091 19.9657 9.00121 19.9004C9.20811 19.8191 9.39102 19.6867 9.53285 19.5155C9.67468 19.3443 9.7708 19.1399 9.81223 18.9215L10.0872 17.5392C10.1334 17.3124 10.1194 17.0775 10.0467 16.8578C9.9739 16.6381 9.84487 16.4413 9.67242 16.2869C8.87887 15.57 8.37555 14.2485 8.29406 12.7342C11.1485 13.3884 13.614 14.9578 16.0039 16.4801C16.3907 16.7265 16.7907 16.9812 17.1809 17.2244C17.3954 17.3583 17.6435 17.4285 17.8963 17.4269C18.2345 17.4269 18.5947 17.3093 18.9465 17.0767C19.4465 16.746 19.7334 16.2219 19.7334 15.6388V1.76687C19.7335 1.18585 19.4484 0.662881 18.9512 0.33206ZM1.51656 8.66929C1.51738 7.95958 1.79968 7.27917 2.30153 6.77734C2.80339 6.27551 3.48381 5.99324 4.19352 5.99245H7.03816V11.3462H4.19363C3.4839 11.3454 2.80345 11.0632 2.30157 10.5613C1.79969 10.0595 1.51738 9.37902 1.51656 8.66929ZM8.83441 17.2145C8.84687 17.2234 8.85618 17.236 8.86099 17.2505C8.86581 17.2651 8.86589 17.2808 8.86121 17.2953L8.58625 18.6777C8.58344 18.6917 8.57718 18.7049 8.56804 18.7159C8.5589 18.7269 8.54715 18.7355 8.53386 18.7409C8.52058 18.7462 8.50617 18.7482 8.49193 18.7466C8.47769 18.745 8.46407 18.7399 8.45231 18.7317C6.75402 17.5497 5.68844 15.2349 5.59684 12.5961H7.03641C7.09602 14.5377 7.74836 16.2333 8.83441 17.2145ZM18.4835 15.6388C18.4835 15.8041 18.4093 15.9333 18.2572 16.034C18.0705 16.1575 17.8964 16.1974 17.8423 16.1636C17.4571 15.9236 17.0598 15.6706 16.6756 15.4258C14.116 13.7955 11.4733 12.1133 8.28805 11.4534V5.86573C10.6963 5.26499 12.9596 3.95823 14.9716 2.7964C15.9783 2.21511 16.9291 1.66601 17.7787 1.27765C17.959 1.19511 18.1745 1.31671 18.2586 1.37261C18.4099 1.47327 18.4834 1.60218 18.4834 1.76675L18.4835 15.6388Z" fill="#204A8C"/>
</g>
<defs>
<clipPath id="clip0_1_15066">
<rect width="20" height="20" fill="white"/>
</clipPath>
</defs>
</svg>
