<svg width="20" height="20" viewBox="0 0 20 20" fill="none" xmlns="http://www.w3.org/2000/svg">
<g clip-path="url(#clip0_1_15120)">
<mask id="path-1-inside-1_1_15120" fill="white">
<path fill-rule="evenodd" clip-rule="evenodd" d="M7.89624 5.37988H6.72437V6.55176H7.89624V5.37988Z"/>
</mask>
<path fill-rule="evenodd" clip-rule="evenodd" d="M7.89624 5.37988H6.72437V6.55176H7.89624V5.37988Z" fill="#1F4A8C"/>
<path d="M6.72437 5.37988H5.52437V4.17988H6.72437V5.37988ZM7.89624 5.37988V4.17988H9.09624V5.37988H7.89624ZM6.72437 6.55176V7.75176H5.52437V6.55176H6.72437ZM7.89624 6.55176H9.09624V7.75176H7.89624V6.55176ZM6.72437 4.17988H7.89624V6.57988H6.72437V4.17988ZM5.52437 6.55176V5.37988H7.92437V6.55176H5.52437ZM7.89624 7.75176H6.72437V5.35176H7.89624V7.75176ZM9.09624 5.37988V6.55176H6.69624V5.37988H9.09624Z" fill="#1F4A8C" mask="url(#path-1-inside-1_1_15120)"/>
<mask id="path-3-inside-2_1_15120" fill="white">
<path fill-rule="evenodd" clip-rule="evenodd" d="M7.89621 8.06918H6.72433V9.24106H7.89621V8.06918Z"/>
</mask>
<path fill-rule="evenodd" clip-rule="evenodd" d="M7.89621 8.06918H6.72433V9.24106H7.89621V8.06918Z" fill="#1F4A8C"/>
<path d="M6.72433 8.06918H5.52433V6.86918H6.72433V8.06918ZM7.89621 8.06918V6.86918H9.09621V8.06918H7.89621ZM6.72433 9.24106V10.4411H5.52433V9.24106H6.72433ZM7.89621 9.24106H9.09621V10.4411H7.89621V9.24106ZM6.72433 6.86918H7.89621V9.26918H6.72433V6.86918ZM5.52433 9.24106V8.06918H7.92433V9.24106H5.52433ZM7.89621 10.4411H6.72433V8.04106H7.89621V10.4411ZM9.09621 8.06918V9.24106H6.69621V8.06918H9.09621Z" fill="#1F4A8C" mask="url(#path-3-inside-2_1_15120)"/>
<mask id="path-5-inside-3_1_15120" fill="white">
<path fill-rule="evenodd" clip-rule="evenodd" d="M13.2757 8.06918H12.1038V9.24106H13.2757V8.06918Z"/>
</mask>
<path fill-rule="evenodd" clip-rule="evenodd" d="M13.2757 8.06918H12.1038V9.24106H13.2757V8.06918Z" fill="#1F4A8C"/>
<path d="M12.1038 8.06918H10.9038V6.86918H12.1038V8.06918ZM13.2757 8.06918V6.86918H14.4757V8.06918H13.2757ZM12.1038 9.24106V10.4411H10.9038V9.24106H12.1038ZM13.2757 9.24106H14.4757V10.4411H13.2757V9.24106ZM12.1038 6.86918H13.2757V9.26918H12.1038V6.86918ZM10.9038 9.24106V8.06918H13.3038V9.24106H10.9038ZM13.2757 10.4411H12.1038V8.04106H13.2757V10.4411ZM14.4757 8.06918V9.24106H12.0757V8.06918H14.4757Z" fill="#1F4A8C" mask="url(#path-5-inside-3_1_15120)"/>
<mask id="path-7-inside-4_1_15120" fill="white">
<path fill-rule="evenodd" clip-rule="evenodd" d="M15.9654 8.06918H14.7935V9.24106H15.9654V8.06918Z"/>
</mask>
<path fill-rule="evenodd" clip-rule="evenodd" d="M15.9654 8.06918H14.7935V9.24106H15.9654V8.06918Z" fill="#1F4A8C"/>
<path d="M14.7935 8.06918H13.5935V6.86918H14.7935V8.06918ZM15.9654 8.06918V6.86918H17.1654V8.06918H15.9654ZM14.7935 9.24106V10.4411H13.5935V9.24106H14.7935ZM15.9654 9.24106H17.1654V10.4411H15.9654V9.24106ZM14.7935 6.86918H15.9654V9.26918H14.7935V6.86918ZM13.5935 9.24106V8.06918H15.9935V9.24106H13.5935ZM15.9654 10.4411H14.7935V8.04106H15.9654V10.4411ZM17.1654 8.06918V9.24106H14.7654V8.06918H17.1654Z" fill="#1F4A8C" mask="url(#path-7-inside-4_1_15120)"/>
<mask id="path-9-inside-5_1_15120" fill="white">
<path fill-rule="evenodd" clip-rule="evenodd" d="M13.2757 10.7589H12.1038V11.9308H13.2757V10.7589Z"/>
</mask>
<path fill-rule="evenodd" clip-rule="evenodd" d="M13.2757 10.7589H12.1038V11.9308H13.2757V10.7589Z" fill="#1F4A8C"/>
<path d="M12.1038 10.7589H10.9038V9.55894H12.1038V10.7589ZM13.2757 10.7589V9.55894H14.4757V10.7589H13.2757ZM12.1038 11.9308V13.1308H10.9038V11.9308H12.1038ZM13.2757 11.9308H14.4757V13.1308H13.2757V11.9308ZM12.1038 9.55894H13.2757V11.9589H12.1038V9.55894ZM10.9038 11.9308V10.7589H13.3038V11.9308H10.9038ZM13.2757 13.1308H12.1038V10.7308H13.2757V13.1308ZM14.4757 10.7589V11.9308H12.0757V10.7589H14.4757Z" fill="#1F4A8C" mask="url(#path-9-inside-5_1_15120)"/>
<mask id="path-11-inside-6_1_15120" fill="white">
<path fill-rule="evenodd" clip-rule="evenodd" d="M15.9654 10.7589H14.7935V11.9308H15.9654V10.7589Z"/>
</mask>
<path fill-rule="evenodd" clip-rule="evenodd" d="M15.9654 10.7589H14.7935V11.9308H15.9654V10.7589Z" fill="#1F4A8C"/>
<path d="M14.7935 10.7589H13.5935V9.55894H14.7935V10.7589ZM15.9654 10.7589V9.55894H17.1654V10.7589H15.9654ZM14.7935 11.9308V13.1308H13.5935V11.9308H14.7935ZM15.9654 11.9308H17.1654V13.1308H15.9654V11.9308ZM14.7935 9.55894H15.9654V11.9589H14.7935V9.55894ZM13.5935 11.9308V10.7589H15.9935V11.9308H13.5935ZM15.9654 13.1308H14.7935V10.7308H15.9654V13.1308ZM17.1654 10.7589V11.9308H14.7654V10.7589H17.1654Z" fill="#1F4A8C" mask="url(#path-11-inside-6_1_15120)"/>
<mask id="path-13-inside-7_1_15120" fill="white">
<path fill-rule="evenodd" clip-rule="evenodd" d="M13.2756 13.4482H12.1038V14.6201H13.2756V13.4482Z"/>
</mask>
<path fill-rule="evenodd" clip-rule="evenodd" d="M13.2756 13.4482H12.1038V14.6201H13.2756V13.4482Z" fill="#1F4A8C"/>
<path d="M12.1038 13.4482H10.9038V12.2482H12.1038V13.4482ZM13.2756 13.4482V12.2482H14.4756V13.4482H13.2756ZM12.1038 14.6201V15.8201H10.9038V14.6201H12.1038ZM13.2756 14.6201H14.4756V15.8201H13.2756V14.6201ZM12.1038 12.2482H13.2756V14.6482H12.1038V12.2482ZM10.9038 14.6201V13.4482H13.3038V14.6201H10.9038ZM13.2756 15.8201H12.1038V13.4201H13.2756V15.8201ZM14.4756 13.4482V14.6201H12.0756V13.4482H14.4756Z" fill="#1F4A8C" mask="url(#path-13-inside-7_1_15120)"/>
<mask id="path-15-inside-8_1_15120" fill="white">
<path fill-rule="evenodd" clip-rule="evenodd" d="M15.9655 13.4482H14.7936V14.6201H15.9655V13.4482Z"/>
</mask>
<path fill-rule="evenodd" clip-rule="evenodd" d="M15.9655 13.4482H14.7936V14.6201H15.9655V13.4482Z" fill="#1F4A8C"/>
<path d="M14.7936 13.4482H13.5936V12.2482H14.7936V13.4482ZM15.9655 13.4482V12.2482H17.1655V13.4482H15.9655ZM14.7936 14.6201V15.8201H13.5936V14.6201H14.7936ZM15.9655 14.6201H17.1655V15.8201H15.9655V14.6201ZM14.7936 12.2482H15.9655V14.6482H14.7936V12.2482ZM13.5936 14.6201V13.4482H15.9936V14.6201H13.5936ZM15.9655 15.8201H14.7936V13.4201H15.9655V15.8201ZM17.1655 13.4482V14.6201H14.7655V13.4482H17.1655Z" fill="#1F4A8C" mask="url(#path-15-inside-8_1_15120)"/>
<mask id="path-17-inside-9_1_15120" fill="white">
<path fill-rule="evenodd" clip-rule="evenodd" d="M13.2756 16.1387H12.1038V17.3105H13.2756V16.1387Z"/>
</mask>
<path fill-rule="evenodd" clip-rule="evenodd" d="M13.2756 16.1387H12.1038V17.3105H13.2756V16.1387Z" fill="#1F4A8C"/>
<path d="M12.1038 16.1387H10.9038V14.9387H12.1038V16.1387ZM13.2756 16.1387V14.9387H14.4756V16.1387H13.2756ZM12.1038 17.3105V18.5105H10.9038V17.3105H12.1038ZM13.2756 17.3105H14.4756V18.5105H13.2756V17.3105ZM12.1038 14.9387H13.2756V17.3387H12.1038V14.9387ZM10.9038 17.3105V16.1387H13.3038V17.3105H10.9038ZM13.2756 18.5105H12.1038V16.1105H13.2756V18.5105ZM14.4756 16.1387V17.3105H12.0756V16.1387H14.4756Z" fill="#1F4A8C" mask="url(#path-17-inside-9_1_15120)"/>
<mask id="path-19-inside-10_1_15120" fill="white">
<path fill-rule="evenodd" clip-rule="evenodd" d="M15.9655 16.1387H14.7936V17.3105H15.9655V16.1387Z"/>
</mask>
<path fill-rule="evenodd" clip-rule="evenodd" d="M15.9655 16.1387H14.7936V17.3105H15.9655V16.1387Z" fill="#1F4A8C"/>
<path d="M14.7936 16.1387H13.5936V14.9387H14.7936V16.1387ZM15.9655 16.1387V14.9387H17.1655V16.1387H15.9655ZM14.7936 17.3105V18.5105H13.5936V17.3105H14.7936ZM15.9655 17.3105H17.1655V18.5105H15.9655V17.3105ZM14.7936 14.9387H15.9655V17.3387H14.7936V14.9387ZM13.5936 17.3105V16.1387H15.9936V17.3105H13.5936ZM15.9655 18.5105H14.7936V16.1105H15.9655V18.5105ZM17.1655 16.1387V17.3105H14.7655V16.1387H17.1655Z" fill="#1F4A8C" mask="url(#path-19-inside-10_1_15120)"/>
<mask id="path-21-inside-11_1_15120" fill="white">
<path fill-rule="evenodd" clip-rule="evenodd" d="M5.20647 8.06918H4.03459V9.24106H5.20647V8.06918Z"/>
</mask>
<path fill-rule="evenodd" clip-rule="evenodd" d="M5.20647 8.06918H4.03459V9.24106H5.20647V8.06918Z" fill="#1F4A8C"/>
<path d="M4.03459 8.06918H2.83459V6.86918H4.03459V8.06918ZM5.20647 8.06918V6.86918H6.40647V8.06918H5.20647ZM4.03459 9.24106V10.4411H2.83459V9.24106H4.03459ZM5.20647 9.24106H6.40647V10.4411H5.20647V9.24106ZM4.03459 6.86918H5.20647V9.26918H4.03459V6.86918ZM2.83459 9.24106V8.06918H5.23459V9.24106H2.83459ZM5.20647 10.4411H4.03459V8.04106H5.20647V10.4411ZM6.40647 8.06918V9.24106H4.00647V8.06918H6.40647Z" fill="#1F4A8C" mask="url(#path-21-inside-11_1_15120)"/>
<mask id="path-23-inside-12_1_15120" fill="white">
<path fill-rule="evenodd" clip-rule="evenodd" d="M7.89621 10.7589H6.72433V11.9308H7.89621V10.7589Z"/>
</mask>
<path fill-rule="evenodd" clip-rule="evenodd" d="M7.89621 10.7589H6.72433V11.9308H7.89621V10.7589Z" fill="#1F4A8C"/>
<path d="M6.72433 10.7589H5.52433V9.55894H6.72433V10.7589ZM7.89621 10.7589V9.55894H9.09621V10.7589H7.89621ZM6.72433 11.9308V13.1308H5.52433V11.9308H6.72433ZM7.89621 11.9308H9.09621V13.1308H7.89621V11.9308ZM6.72433 9.55894H7.89621V11.9589H6.72433V9.55894ZM5.52433 11.9308V10.7589H7.92433V11.9308H5.52433ZM7.89621 13.1308H6.72433V10.7308H7.89621V13.1308ZM9.09621 10.7589V11.9308H6.69621V10.7589H9.09621Z" fill="#1F4A8C" mask="url(#path-23-inside-12_1_15120)"/>
<mask id="path-25-inside-13_1_15120" fill="white">
<path fill-rule="evenodd" clip-rule="evenodd" d="M5.20647 10.7589H4.03459V11.9308H5.20647V10.7589Z"/>
</mask>
<path fill-rule="evenodd" clip-rule="evenodd" d="M5.20647 10.7589H4.03459V11.9308H5.20647V10.7589Z" fill="#1F4A8C"/>
<path d="M4.03459 10.7589H2.83459V9.55894H4.03459V10.7589ZM5.20647 10.7589V9.55894H6.40647V10.7589H5.20647ZM4.03459 11.9308V13.1308H2.83459V11.9308H4.03459ZM5.20647 11.9308H6.40647V13.1308H5.20647V11.9308ZM4.03459 9.55894H5.20647V11.9589H4.03459V9.55894ZM2.83459 11.9308V10.7589H5.23459V11.9308H2.83459ZM5.20647 13.1308H4.03459V10.7308H5.20647V13.1308ZM6.40647 10.7589V11.9308H4.00647V10.7589H6.40647Z" fill="#1F4A8C" mask="url(#path-25-inside-13_1_15120)"/>
<mask id="path-27-inside-14_1_15120" fill="white">
<path fill-rule="evenodd" clip-rule="evenodd" d="M7.89624 13.4482H6.72437V14.6201H7.89624V13.4482Z"/>
</mask>
<path fill-rule="evenodd" clip-rule="evenodd" d="M7.89624 13.4482H6.72437V14.6201H7.89624V13.4482Z" fill="#1F4A8C"/>
<path d="M6.72437 13.4482H5.52437V12.2482H6.72437V13.4482ZM7.89624 13.4482V12.2482H9.09624V13.4482H7.89624ZM6.72437 14.6201V15.8201H5.52437V14.6201H6.72437ZM7.89624 14.6201H9.09624V15.8201H7.89624V14.6201ZM6.72437 12.2482H7.89624V14.6482H6.72437V12.2482ZM5.52437 14.6201V13.4482H7.92437V14.6201H5.52437ZM7.89624 15.8201H6.72437V13.4201H7.89624V15.8201ZM9.09624 13.4482V14.6201H6.69624V13.4482H9.09624Z" fill="#1F4A8C" mask="url(#path-27-inside-14_1_15120)"/>
<mask id="path-29-inside-15_1_15120" fill="white">
<path fill-rule="evenodd" clip-rule="evenodd" d="M5.20642 13.4482H4.03455V14.6201H5.20642V13.4482Z"/>
</mask>
<path fill-rule="evenodd" clip-rule="evenodd" d="M5.20642 13.4482H4.03455V14.6201H5.20642V13.4482Z" fill="#1F4A8C"/>
<path d="M4.03455 13.4482H2.83455V12.2482H4.03455V13.4482ZM5.20642 13.4482V12.2482H6.40642V13.4482H5.20642ZM4.03455 14.6201V15.8201H2.83455V14.6201H4.03455ZM5.20642 14.6201H6.40642V15.8201H5.20642V14.6201ZM4.03455 12.2482H5.20642V14.6482H4.03455V12.2482ZM2.83455 14.6201V13.4482H5.23455V14.6201H2.83455ZM5.20642 15.8201H4.03455V13.4201H5.20642V15.8201ZM6.40642 13.4482V14.6201H4.00642V13.4482H6.40642Z" fill="#1F4A8C" mask="url(#path-29-inside-15_1_15120)"/>
<mask id="mask0_1_15120" style="mask-type:luminance" maskUnits="userSpaceOnUse" x="0" y="0" width="20" height="20">
<path d="M19.4 19.4V0.600002H0.6V19.4H19.4Z" fill="white" stroke="white" stroke-width="1.2"/>
</mask>
<g mask="url(#mask0_1_15120)">
<mask id="path-32-inside-16_1_15120" fill="white">
<path fill-rule="evenodd" clip-rule="evenodd" d="M1.34486 19.4141H2.51674V5.11691L9.41404 3.96734V19.4141H10.5859V2.58399L1.34486 4.12419V19.4141Z"/>
</mask>
<path fill-rule="evenodd" clip-rule="evenodd" d="M1.34486 19.4141H2.51674V5.11691L9.41404 3.96734V19.4141H10.5859V2.58399L1.34486 4.12419V19.4141Z" fill="#1F4A8C"/>
<path d="M1.34486 19.4141V20.6141H0.144864V19.4141H1.34486ZM2.51674 19.4141H3.71674V20.6141H2.51674V19.4141ZM2.51674 5.11691H1.31674V4.10036L2.31946 3.93324L2.51674 5.11691ZM9.41404 3.96734L9.21676 2.78367L10.614 2.55079V3.96734H9.41404ZM9.41404 19.4141V20.6141H8.21404V19.4141H9.41404ZM10.5859 19.4141H11.7859V20.6141H10.5859V19.4141ZM10.5859 2.58399L10.3886 1.40032L11.7859 1.16743V2.58399H10.5859ZM1.34486 4.12419H0.144864V3.10764L1.14758 2.94051L1.34486 4.12419ZM2.51674 20.6141H1.34486V18.2141H2.51674V20.6141ZM3.71674 5.11691V19.4141H1.31674V5.11691H3.71674ZM9.61132 5.15101L2.71402 6.30058L2.31946 3.93324L9.21676 2.78367L9.61132 5.15101ZM8.21404 19.4141V3.96734H10.614V19.4141H8.21404ZM10.5859 20.6141H9.41404V18.2141H10.5859V20.6141ZM0.144864 19.4141V4.12419H2.54486V19.4141H0.144864ZM11.7859 2.58399V19.4141H9.38592V2.58399H11.7859ZM1.14758 2.94051L10.3886 1.40032L10.7832 3.76766L1.54215 5.30786L1.14758 2.94051Z" fill="#1F4A8C" mask="url(#path-32-inside-16_1_15120)"/>
<mask id="path-34-inside-17_1_15120" fill="white">
<path fill-rule="evenodd" clip-rule="evenodd" d="M2.68973 4.39639H3.8616V1.17186H8.06918V3.49979H9.24106V-1.33514e-05H2.68973V4.39639Z"/>
</mask>
<path fill-rule="evenodd" clip-rule="evenodd" d="M2.68973 4.39639H3.8616V1.17186H8.06918V3.49979H9.24106V-1.33514e-05H2.68973V4.39639Z" fill="#1F4A8C"/>
<path d="M2.68973 4.39639V5.59639H1.48973V4.39639H2.68973ZM3.8616 4.39639H5.0616V5.59639H3.8616V4.39639ZM3.8616 1.17186H2.6616V-0.0281386H3.8616V1.17186ZM8.06918 1.17186V-0.0281386H9.26918V1.17186H8.06918ZM8.06918 3.49979V4.69979H6.86918V3.49979H8.06918ZM9.24106 3.49979H10.4411V4.69979H9.24106V3.49979ZM9.24106 -1.33514e-05V-1.20001H10.4411V-1.33514e-05H9.24106ZM2.68973 -1.33514e-05H1.48973V-1.20001H2.68973V-1.33514e-05ZM3.8616 5.59639H2.68973V3.19639H3.8616V5.59639ZM5.0616 1.17186V4.39639H2.6616V1.17186H5.0616ZM8.06918 2.37186H3.8616V-0.0281386H8.06918V2.37186ZM6.86918 3.49979V1.17186H9.26918V3.49979H6.86918ZM9.24106 4.69979H8.06918V2.29979H9.24106V4.69979ZM1.48973 4.39639V-1.33514e-05H3.88973V4.39639H1.48973ZM10.4411 -1.33514e-05V3.49979H8.04106V-1.33514e-05H10.4411ZM2.68973 -1.20001H9.24106V1.19999H2.68973V-1.20001Z" fill="#1F4A8C" mask="url(#path-34-inside-17_1_15120)"/>
<mask id="path-36-inside-18_1_15120" fill="white">
<path fill-rule="evenodd" clip-rule="evenodd" d="M4.03459 19.4141H5.20647V17.3103H6.72432V19.4141H7.89619V16.1384H4.03459V19.4141Z"/>
</mask>
<path fill-rule="evenodd" clip-rule="evenodd" d="M4.03459 19.4141H5.20647V17.3103H6.72432V19.4141H7.89619V16.1384H4.03459V19.4141Z" fill="#1F4A8C"/>
<path d="M4.03459 19.4141V20.6141H2.83459V19.4141H4.03459ZM5.20647 19.4141H6.40647V20.6141H5.20647V19.4141ZM5.20647 17.3103H4.00647V16.1103H5.20647V17.3103ZM6.72432 17.3103V16.1103H7.92432V17.3103H6.72432ZM6.72432 19.4141V20.6141H5.52432V19.4141H6.72432ZM7.89619 19.4141H9.09619V20.6141H7.89619V19.4141ZM7.89619 16.1384V14.9384H9.09619V16.1384H7.89619ZM4.03459 16.1384H2.83459V14.9384H4.03459V16.1384ZM5.20647 20.6141H4.03459V18.2141H5.20647V20.6141ZM6.40647 17.3103V19.4141H4.00647V17.3103H6.40647ZM6.72432 18.5103H5.20647V16.1103H6.72432V18.5103ZM5.52432 19.4141V17.3103H7.92432V19.4141H5.52432ZM7.89619 20.6141H6.72432V18.2141H7.89619V20.6141ZM2.83459 19.4141V16.1384H5.23459V19.4141H2.83459ZM9.09619 16.1384V19.4141H6.69619V16.1384H9.09619ZM4.03459 14.9384H7.89619V17.3384H4.03459V14.9384Z" fill="#1F4A8C" mask="url(#path-36-inside-18_1_15120)"/>
<mask id="path-38-inside-19_1_15120" fill="white">
<path fill-rule="evenodd" clip-rule="evenodd" d="M9.41406 19.4141H10.5859V6.55133H17.4832V19.4141H18.6551V5.37945H9.41406V19.4141Z"/>
</mask>
<path fill-rule="evenodd" clip-rule="evenodd" d="M9.41406 19.4141H10.5859V6.55133H17.4832V19.4141H18.6551V5.37945H9.41406V19.4141Z" fill="#1F4A8C"/>
<path d="M9.41406 19.4141V20.6141H8.21406V19.4141H9.41406ZM10.5859 19.4141H11.7859V20.6141H10.5859V19.4141ZM10.5859 6.55133H9.38594V5.35133H10.5859V6.55133ZM17.4832 6.55133V5.35133H18.6832V6.55133H17.4832ZM17.4832 19.4141V20.6141H16.2832V19.4141H17.4832ZM18.6551 19.4141H19.8551V20.6141H18.6551V19.4141ZM18.6551 5.37945V4.17945H19.8551V5.37945H18.6551ZM9.41406 5.37945H8.21406V4.17945H9.41406V5.37945ZM10.5859 20.6141H9.41406V18.2141H10.5859V20.6141ZM11.7859 6.55133V19.4141H9.38594V6.55133H11.7859ZM17.4832 7.75133H10.5859V5.35133H17.4832V7.75133ZM16.2832 19.4141V6.55133H18.6832V19.4141H16.2832ZM18.6551 20.6141H17.4832V18.2141H18.6551V20.6141ZM8.21406 19.4141V5.37945H10.6141V19.4141H8.21406ZM19.8551 5.37945V19.4141H17.4551V5.37945H19.8551ZM9.41406 4.17945H18.6551V6.57945H9.41406V4.17945Z" fill="#1F4A8C" mask="url(#path-38-inside-19_1_15120)"/>
<mask id="path-40-inside-20_1_15120" fill="white">
<path fill-rule="evenodd" clip-rule="evenodd" d="M20 18.8281H0V20H20V18.8281Z"/>
</mask>
<path fill-rule="evenodd" clip-rule="evenodd" d="M20 18.8281H0V20H20V18.8281Z" fill="#1F4A8C"/>
<path d="M0 18.8281H-1.2V17.6281H0V18.8281ZM20 18.8281V17.6281H21.2V18.8281H20ZM0 20V21.2H-1.2V20H0ZM20 20H21.2V21.2H20V20ZM0 17.6281H20V20.0281H0V17.6281ZM-1.2 20V18.8281H1.2V20H-1.2ZM20 21.2H0V18.8H20V21.2ZM21.2 18.8281V20H18.8V18.8281H21.2Z" fill="#1F4A8C" mask="url(#path-40-inside-20_1_15120)"/>
</g>
</g>
<defs>
<clipPath id="clip0_1_15120">
<rect width="20" height="20" fill="white"/>
</clipPath>
</defs>
</svg>
