<svg width="20" height="20" viewBox="0 0 20 20" fill="none" xmlns="http://www.w3.org/2000/svg">
<path fill-rule="evenodd" clip-rule="evenodd" d="M10.1594 1.25C7.745 1.25 5.78438 3.21063 5.78438 5.625C5.78438 8.03937 7.745 10 10.1594 10C12.5738 10 14.5344 8.03937 14.5344 5.625C14.5344 3.21063 12.5738 1.25 10.1594 1.25ZM10.1594 2.5C11.8844 2.5 13.2844 3.9 13.2844 5.625C13.2844 7.35 11.8844 8.75 10.1594 8.75C8.43438 8.75 7.03438 7.35 7.03438 5.625C7.03438 3.9 8.43438 2.5 10.1594 2.5Z" fill="#00B895"/>
<path fill-rule="evenodd" clip-rule="evenodd" d="M2.65938 17.5H10.1594C10.5044 17.5 10.7844 17.78 10.7844 18.125C10.7844 18.47 10.5044 18.75 10.1594 18.75H2.03438C1.68938 18.75 1.40938 18.47 1.40938 18.125C1.40938 18.125 1.40938 17.6094 1.40938 16.875C1.40938 13.7681 3.9275 11.25 7.03438 11.25H10C10.345 11.25 10.625 11.53 10.625 11.875C10.625 12.22 10.345 12.5 10 12.5H7.03438C4.61813 12.5 2.65938 14.4588 2.65938 16.875V17.5Z" fill="#00B895"/>
<path fill-rule="evenodd" clip-rule="evenodd" d="M15.625 11.4325C13.5556 11.4325 11.875 13.1125 11.875 15.1825C11.875 17.2519 13.5556 18.9325 15.625 18.9325C17.6944 18.9325 19.375 17.2519 19.375 15.1825C19.375 13.1125 17.6944 11.4325 15.625 11.4325ZM15.625 12.6825C17.005 12.6825 18.125 13.8025 18.125 15.1825C18.125 16.5619 17.005 17.6825 15.625 17.6825C14.245 17.6825 13.125 16.5619 13.125 15.1825C13.125 13.8025 14.245 12.6825 15.625 12.6825Z" fill="#00B895"/>
<path fill-rule="evenodd" clip-rule="evenodd" d="M16.25 16.5669V15.2906C16.25 14.9456 15.97 14.6656 15.625 14.6656C15.28 14.6656 15 14.9456 15 15.2906V16.5669C15 16.9119 15.28 17.1919 15.625 17.1919C15.97 17.1919 16.25 16.9119 16.25 16.5669Z" fill="#00B895"/>
<path d="M15.625 14.5038C15.9702 14.5038 16.25 14.2239 16.25 13.8788C16.25 13.5336 15.9702 13.2538 15.625 13.2538C15.2798 13.2538 15 13.5336 15 13.8788C15 14.2239 15.2798 14.5038 15.625 14.5038Z" fill="#00B895"/>
</svg>
