<svg width="20" height="20" viewBox="0 0 20 20" fill="none" xmlns="http://www.w3.org/2000/svg">
<g clip-path="url(#clip0_1_15095)">
<path d="M1.00858 18.9908L1.00855 18.9908C0.449622 18.4319 0.467087 17.5251 1.04314 16.9875L9.5306 9.06656L10.9327 10.4687L3.01186 18.9562C2.4736 19.533 1.56583 19.5481 1.00858 18.9908Z" stroke="#1F4A8C" stroke-width="1.2"/>
<path d="M10.3885 6.57057L9.96426 6.14631L9.53999 6.57057L9.14543 6.96513L7.3468 5.81129L12.5499 0.608134L13.7037 2.40675L13.3092 2.80127L12.8849 3.22554L13.3092 3.6498L16.3499 6.69051L16.7742 7.11477L17.1984 6.69051L17.593 6.29594L19.3916 7.44978L14.1885 12.6529L13.0347 10.8544L13.4292 10.4598L13.8535 10.0355L13.4292 9.61127L10.3885 6.57057ZM9.13742 6.97315C9.13742 6.97315 9.13742 6.97315 9.13742 6.97314L9.13742 6.97315ZM7.33213 5.80187L7.3321 5.80185L7.32451 5.81368L7.32446 5.81376L7.00813 6.30687L7.33213 5.80187ZM12.5404 0.593324L12.5405 0.593376L12.5404 0.593324ZM13.7118 2.39869L13.7118 2.39874C13.7118 2.39872 13.7118 2.39871 13.7118 2.39869ZM14.1761 12.6653C14.176 12.6654 14.176 12.6654 14.1761 12.6653L14.1761 12.6653ZM13.0266 10.8624L13.0266 10.8624C13.0266 10.8624 13.0266 10.8624 13.0266 10.8624Z" stroke="#1F4A8C" stroke-width="1.2"/>
<path d="M19.0094 16.8459L19.0234 16.8437L19.0094 16.8459L19.0094 16.8459C19.0094 16.8459 19.0094 16.8459 19.0094 16.8459ZM11.2232 16.8578H19.0112L19.3975 19.3995H10.8369L11.2232 16.8578ZM19.4139 19.4136L19.9932 19.3255L19.4 19.4156L19.4 19.4157L19.4139 19.4136Z" stroke="#1F4A8C" stroke-width="1.2"/>
</g>
<defs>
<clipPath id="clip0_1_15095">
<rect width="20" height="20" fill="white"/>
</clipPath>
</defs>
</svg>
