<svg width="20" height="20" viewBox="0 0 20 20" fill="none" xmlns="http://www.w3.org/2000/svg">
<g clip-path="url(#clip0_1_15055)">
<path d="M4.7059 0.587891C4.41179 0.587891 4.11767 0.823185 4.11767 1.17613V1.76436H2.35296C1.41179 1.76436 0.588257 2.52907 0.588257 3.52907V5.88201V17.6467C0.588257 18.6467 1.35296 19.4114 2.35296 19.4114H17.6471C18.6471 19.4114 19.4118 18.6467 19.4118 17.6467V5.88201V3.52907C19.4118 2.52907 18.6471 1.76436 17.6471 1.76436H15.8824V1.17613C15.8824 0.823185 15.6471 0.587891 15.2941 0.587891C14.9412 0.587891 14.7059 0.823185 14.7059 1.17613V1.76436H5.29414V1.17613C5.29414 0.823185 5.05885 0.587891 4.7059 0.587891ZM18.2353 17.6467C18.2353 17.9997 18 18.235 17.6471 18.235H2.35296C2.00002 18.235 1.76473 17.9997 1.76473 17.6467V6.47024H18.2353V17.6467ZM14.7059 2.94083V3.52907C14.7059 3.88201 14.9412 4.1173 15.2941 4.1173C15.6471 4.1173 15.8824 3.88201 15.8824 3.52907V2.94083H17.6471C18 2.94083 18.2353 3.17613 18.2353 3.52907V5.29377H1.76473V3.52907C1.76473 3.17613 2.00002 2.94083 2.35296 2.94083H4.11767V3.52907C4.11767 3.88201 4.35296 4.1173 4.7059 4.1173C5.05885 4.1173 5.29414 3.88201 5.29414 3.52907V2.94083H14.7059Z" fill="#204A8C"/>
<path d="M4.17649 11.4698H6.52943C6.88238 11.4698 7.11767 11.2345 7.11767 10.8816V8.52867C7.11767 8.17572 6.88238 7.94043 6.52943 7.94043H4.17649C3.82355 7.94043 3.58826 8.17572 3.58826 8.52867V10.8816C3.58826 11.2345 3.82355 11.4698 4.17649 11.4698ZM4.76473 9.1169H5.9412V10.2934H4.76473V9.1169Z" fill="#204A8C"/>
<path d="M8.88242 11.4698H11.2354C11.5883 11.4698 11.8236 11.2345 11.8236 10.8816V8.52867C11.8236 8.17572 11.5883 7.94043 11.2354 7.94043H8.88242C8.52948 7.94043 8.29419 8.17572 8.29419 8.52867V10.8816C8.29419 11.2345 8.52948 11.4698 8.88242 11.4698ZM9.47066 9.1169H10.6471V10.2934H9.47066V9.1169Z" fill="#204A8C"/>
<path d="M13.5882 11.4698H15.9412C16.2941 11.4698 16.5294 11.2345 16.5294 10.8816V8.52867C16.5294 8.17572 16.2941 7.94043 15.9412 7.94043H13.5882C13.2353 7.94043 13 8.17572 13 8.52867V10.8816C13 11.2345 13.2353 11.4698 13.5882 11.4698ZM14.1765 9.1169H15.3529V10.2934H14.1765V9.1169Z" fill="#204A8C"/>
<path d="M4.17649 16.7648H6.52943C6.88238 16.7648 7.11767 16.5295 7.11767 16.1765V13.8236C7.11767 13.4706 6.88238 13.2354 6.52943 13.2354H4.17649C3.82355 13.2354 3.58826 13.4706 3.58826 13.8236V16.1765C3.58826 16.5295 3.82355 16.7648 4.17649 16.7648ZM4.76473 14.4118H5.9412V15.5883H4.76473V14.4118Z" fill="#204A8C"/>
<path d="M8.88242 16.7648H11.2354C11.5883 16.7648 11.8236 16.5295 11.8236 16.1765V13.8236C11.8236 13.4706 11.5883 13.2354 11.2354 13.2354H8.88242C8.52948 13.2354 8.29419 13.4706 8.29419 13.8236V16.1765C8.29419 16.5295 8.52948 16.7648 8.88242 16.7648ZM9.47066 14.4118H10.6471V15.5883H9.47066V14.4118Z" fill="#204A8C"/>
<path d="M13.5882 16.7648H15.9412C16.2941 16.7648 16.5294 16.5295 16.5294 16.1765V13.8236C16.5294 13.4706 16.2941 13.2354 15.9412 13.2354H13.5882C13.2353 13.2354 13 13.4706 13 13.8236V16.1765C13 16.5295 13.2353 16.7648 13.5882 16.7648ZM14.1765 14.4118H15.3529V15.5883H14.1765V14.4118Z" fill="#204A8C"/>
</g>
<defs>
<clipPath id="clip0_1_15055">
<rect width="20" height="20" fill="white"/>
</clipPath>
</defs>
</svg>
