<svg width="20" height="20" viewBox="0 0 20 20" fill="none" xmlns="http://www.w3.org/2000/svg">
<g clip-path="url(#clip0_1_15104)">
<path d="M15.315 17.8722L10.7459 13.3031H17.2091C17 14.9734 16.3499 16.5418 15.315 17.8722Z" stroke="#1F4A8C" stroke-width="1.2"/>
<path d="M6.69683 12.1168C6.69683 12.4313 6.82183 12.733 7.04421 12.9554L12.1256 18.0367C10.8923 18.9254 9.41616 19.4035 7.86378 19.3995C3.87321 19.3894 0.612012 16.1297 0.600033 12.139C0.58916 8.51838 3.23621 5.49945 6.69683 4.93039V12.1168ZM12.1371 18.0483C12.1372 18.0483 12.1371 18.0483 12.1371 18.0482L12.1371 18.0483Z" stroke="#1F4A8C" stroke-width="1.2"/>
<path d="M9.06875 10.9313V0.601516C14.5051 1.15855 18.8415 5.49496 19.3985 10.9313H9.06875ZM19.4107 10.9313H19.4106C19.4107 10.9313 19.4107 10.9313 19.4107 10.9313Z" stroke="#1F4A8C" stroke-width="1.2"/>
</g>
<defs>
<clipPath id="clip0_1_15104">
<rect width="20" height="20" fill="white"/>
</clipPath>
</defs>
</svg>
