<svg width="18" height="18" viewBox="0 0 18 18" fill="none" xmlns="http://www.w3.org/2000/svg">
<path d="M12.75 12.75C13.0625 12.75 13.328 12.6405 13.5465 12.4215C13.7655 12.203 13.875 11.9375 13.875 11.625C13.875 11.3125 13.7655 11.047 13.5465 10.8285C13.328 10.6095 13.0625 10.5 12.75 10.5C12.4375 10.5 12.172 10.6095 11.9535 10.8285C11.7345 11.047 11.625 11.3125 11.625 11.625C11.625 11.9375 11.7345 12.203 11.9535 12.4215C12.172 12.6405 12.4375 12.75 12.75 12.75ZM12.75 15C13.1375 15 13.4937 14.9093 13.8187 14.7278C14.1437 14.5468 14.4062 14.3063 14.6063 14.0063C14.3313 13.8438 14.0375 13.7188 13.725 13.6313C13.4125 13.5438 13.0875 13.5 12.75 13.5C12.4125 13.5 12.0875 13.5438 11.775 13.6313C11.4625 13.7188 11.1687 13.8438 10.8937 14.0063C11.0938 14.3063 11.3562 14.5468 11.6812 14.7278C12.0062 14.9093 12.3625 15 12.75 15ZM12.75 16.5C11.7125 16.5 10.8283 16.1345 10.0972 15.4035C9.36575 14.672 9 13.7875 9 12.75C9 11.7125 9.36575 10.828 10.0972 10.0965C10.8283 9.3655 11.7125 9 12.75 9C13.7875 9 14.672 9.3655 15.4035 10.0965C16.1345 10.828 16.5 11.7125 16.5 12.75C16.5 13.7875 16.1345 14.672 15.4035 15.4035C14.672 16.1345 13.7875 16.5 12.75 16.5ZM9 16.4438H8.8215C8.7655 16.4438 8.70625 16.4313 8.64375 16.4063C7.00625 15.9063 5.65625 14.8938 4.59375 13.3688C3.53125 11.8438 3 10.1625 3 8.325V4.78125C3 4.46875 3.09075 4.1875 3.27225 3.9375C3.45325 3.6875 3.6875 3.50625 3.975 3.39375L8.475 1.70625C8.65 1.64375 8.825 1.6125 9 1.6125C9.175 1.6125 9.35 1.64375 9.525 1.70625L14.025 3.39375C14.3125 3.50625 14.547 3.6875 14.7285 3.9375C14.9095 4.1875 15 4.46875 15 4.78125V8.00625C14.7625 7.90625 14.5188 7.8155 14.2687 7.734C14.0187 7.653 13.7625 7.59375 13.5 7.55625V4.8L9 3.1125L4.5 4.8V8.325C4.5 8.9125 4.578 9.5 4.734 10.0875C4.8905 10.675 5.1095 11.2345 5.391 11.766C5.672 12.297 6.0125 12.7875 6.4125 13.2375C6.8125 13.6875 7.25625 14.0625 7.74375 14.3625C7.88125 14.7625 8.05625 15.1375 8.26875 15.4875C8.48125 15.8375 8.73125 16.1563 9.01875 16.4438H9Z" fill="#808080"/>
</svg>
