<svg width="20" height="20" viewBox="0 0 20 20" fill="none" xmlns="http://www.w3.org/2000/svg">
<g clip-path="url(#clip0_1_15169)">
<path d="M7.14312 10C7.84959 10 8.54021 9.7905 9.12761 9.39799C9.71502 9.00548 10.1728 8.44759 10.4432 7.79488C10.7135 7.14217 10.7842 6.42395 10.6463 5.73106C10.5084 5.03816 10.1682 4.40172 9.66859 3.90221C9.169 3.40269 8.53249 3.06256 7.83957 2.92481C7.14666 2.78705 6.42845 2.85788 5.77579 3.12832C5.12312 3.39876 4.56532 3.85668 4.17291 4.44415C3.7805 5.03163 3.57112 5.72227 3.57124 6.42875C3.57224 7.37571 3.9489 8.28359 4.61856 8.95313C5.28821 9.62267 6.19616 9.99917 7.14312 10Z" fill="#00B895"/>
<path d="M11.8156 12.9504C10.9105 12.022 9.7492 11.3845 8.48003 11.1193C7.21086 10.8541 5.89145 10.9733 4.69033 11.4616C3.48921 11.9499 2.46091 12.7851 1.73679 13.8607C1.01266 14.9362 0.625586 16.2032 0.625 17.4998C0.625 17.6655 0.690848 17.8245 0.808058 17.9417C0.925268 18.0589 1.08424 18.1248 1.25 18.1248H13.0375C13.2033 18.1248 13.3622 18.0589 13.4794 17.9417C13.5967 17.8245 13.6625 17.6655 13.6625 17.4998C13.6649 16.837 13.5626 16.1781 13.3594 15.5473C13.0568 14.572 12.5278 13.6822 11.8156 12.9504Z" fill="#00B895"/>
<path d="M14.6875 10.3125C16.1545 10.3125 17.3438 9.12326 17.3438 7.65625C17.3438 6.18924 16.1545 5 14.6875 5C13.2205 5 12.0312 6.18924 12.0312 7.65625C12.0312 9.12326 13.2205 10.3125 14.6875 10.3125Z" fill="#00B895"/>
<path d="M14.6875 11.0438C13.8497 11.0469 13.0282 11.2751 12.3087 11.7044C12.4444 11.8256 12.5812 11.945 12.7094 12.0763C13.5604 12.951 14.1926 14.0145 14.5544 15.18C14.6783 15.5637 14.7696 15.9572 14.8275 16.3563H18.75C18.9158 16.3563 19.0747 16.2904 19.1919 16.1732C19.3091 16.056 19.375 15.897 19.375 15.7313C19.3737 14.4885 18.8794 13.297 18.0006 12.4182C17.1218 11.5394 15.9303 11.0451 14.6875 11.0438Z" fill="#00B895"/>
</g>
<defs>
<clipPath id="clip0_1_15169">
<rect width="20" height="20" fill="white"/>
</clipPath>
</defs>
</svg>
