<svg width="12" height="12" viewBox="0 0 12 12" fill="none" xmlns="http://www.w3.org/2000/svg">
<mask id="path-1-inside-1_1_15041" fill="white">
<path fill-rule="evenodd" clip-rule="evenodd" d="M3.4845 1.2345C3.51933 1.19958 3.56071 1.17187 3.60627 1.15296C3.65183 1.13406 3.70067 1.12433 3.75 1.12433C3.79932 1.12433 3.84817 1.13406 3.89372 1.15296C3.93928 1.17187 3.98066 1.19958 4.0155 1.2345L8.5155 5.7345C8.55042 5.76933 8.57813 5.81072 8.59703 5.85627C8.61594 5.90183 8.62567 5.95067 8.62567 6C8.62567 6.04932 8.61594 6.09817 8.59703 6.14372C8.57813 6.18928 8.55042 6.23066 8.5155 6.2655L4.0155 10.7655C3.94508 10.8359 3.84958 10.8755 3.75 10.8755C3.65042 10.8755 3.55491 10.8359 3.4845 10.7655C3.41408 10.6951 3.37452 10.5996 3.37452 10.5C3.37452 10.4004 3.41408 10.3049 3.4845 10.2345L7.71975 6L3.4845 1.7655C3.44958 1.73066 3.42187 1.68928 3.40296 1.64372C3.38406 1.59817 3.37433 1.54932 3.37433 1.5C3.37433 1.45067 3.38406 1.40183 3.40296 1.35627C3.42187 1.31071 3.44958 1.26933 3.4845 1.2345Z"/>
</mask>
<path fill-rule="evenodd" clip-rule="evenodd" d="M3.4845 1.2345C3.51933 1.19958 3.56071 1.17187 3.60627 1.15296C3.65183 1.13406 3.70067 1.12433 3.75 1.12433C3.79932 1.12433 3.84817 1.13406 3.89372 1.15296C3.93928 1.17187 3.98066 1.19958 4.0155 1.2345L8.5155 5.7345C8.55042 5.76933 8.57813 5.81072 8.59703 5.85627C8.61594 5.90183 8.62567 5.95067 8.62567 6C8.62567 6.04932 8.61594 6.09817 8.59703 6.14372C8.57813 6.18928 8.55042 6.23066 8.5155 6.2655L4.0155 10.7655C3.94508 10.8359 3.84958 10.8755 3.75 10.8755C3.65042 10.8755 3.55491 10.8359 3.4845 10.7655C3.41408 10.6951 3.37452 10.5996 3.37452 10.5C3.37452 10.4004 3.41408 10.3049 3.4845 10.2345L7.71975 6L3.4845 1.7655C3.44958 1.73066 3.42187 1.68928 3.40296 1.64372C3.38406 1.59817 3.37433 1.54932 3.37433 1.5C3.37433 1.45067 3.38406 1.40183 3.40296 1.35627C3.42187 1.31071 3.44958 1.26933 3.4845 1.2345Z" fill="#9CA3AF"/>
<path d="M4.0155 1.2345L3.3075 1.94071L3.30839 1.94161L4.0155 1.2345ZM8.5155 5.7345L7.80839 6.44161L7.80929 6.4425L8.5155 5.7345ZM8.5155 6.2655L7.80929 5.5575L7.80839 5.55839L8.5155 6.2655ZM3.4845 10.2345L2.77745 9.52733L2.77739 9.52739L3.4845 10.2345ZM7.71975 6L8.42679 6.70717L9.13409 6L8.42679 5.29283L7.71975 6ZM3.4845 1.7655L4.19154 1.05833L4.19071 1.0575L3.4845 1.7655ZM4.1925 1.94071C4.13444 1.99892 4.06547 2.04509 3.98954 2.0766L3.22301 0.229327C3.05596 0.298645 2.90422 0.400238 2.7765 0.528287L4.1925 1.94071ZM3.98954 2.0766C3.91361 2.10811 3.83221 2.12433 3.75 2.12433V0.124329C3.56914 0.124329 3.39006 0.16001 3.22301 0.229327L3.98954 2.0766ZM3.75 2.12433C3.66779 2.12433 3.58639 2.10811 3.51046 2.0766L4.27699 0.229327C4.10994 0.16001 3.93086 0.124329 3.75 0.124329V2.12433ZM3.51046 2.0766C3.43453 2.04509 3.36556 1.99892 3.3075 1.94071L4.7235 0.528287C4.59577 0.400238 4.44404 0.298645 4.27699 0.229327L3.51046 2.0766ZM3.30839 1.94161L7.80839 6.44161L9.22261 5.02739L4.72261 0.527392L3.30839 1.94161ZM7.80929 6.4425C7.75108 6.38444 7.7049 6.31547 7.6734 6.23954L9.52067 5.47301C9.45136 5.30596 9.34976 5.15423 9.22171 5.0265L7.80929 6.4425ZM7.6734 6.23954C7.64189 6.16361 7.62567 6.08221 7.62567 6H9.62567C9.62567 5.81914 9.58999 5.64005 9.52067 5.47301L7.6734 6.23954ZM7.62567 6C7.62567 5.91779 7.64189 5.83639 7.6734 5.76046L9.52067 6.52699C9.58999 6.35994 9.62567 6.18086 9.62567 6H7.62567ZM7.6734 5.76046C7.7049 5.68453 7.75108 5.61556 7.80929 5.5575L9.22171 6.9735C9.34976 6.84577 9.45136 6.69404 9.52067 6.52699L7.6734 5.76046ZM7.80839 5.55839L3.30839 10.0584L4.72261 11.4726L9.22261 6.97261L7.80839 5.55839ZM3.30839 10.0584C3.42552 9.94127 3.58437 9.87547 3.75 9.87547V11.8755C4.1148 11.8755 4.46465 11.7306 4.72261 11.4726L3.30839 10.0584ZM3.75 9.87547C3.91563 9.87547 4.07448 9.94127 4.19161 10.0584L2.77739 11.4726C3.03534 11.7306 3.3852 11.8755 3.75 11.8755V9.87547ZM4.19161 10.0584C4.30873 10.1755 4.37452 10.3344 4.37452 10.5H2.37452C2.37452 10.8648 2.51944 11.2147 2.77739 11.4726L4.19161 10.0584ZM4.37452 10.5C4.37452 10.6656 4.30873 10.8245 4.19161 10.9416L2.77739 9.52739C2.51944 9.78534 2.37452 10.1352 2.37452 10.5H4.37452ZM4.19154 10.9417L8.42679 6.70717L7.01271 5.29283L2.77745 9.52733L4.19154 10.9417ZM8.42679 5.29283L4.19154 1.05833L2.77745 2.47267L7.01271 6.70717L8.42679 5.29283ZM4.19071 1.0575C4.24891 1.11556 4.29509 1.18452 4.3266 1.26046L2.47933 2.02699C2.54864 2.19404 2.65024 2.34577 2.77829 2.4735L4.19071 1.0575ZM4.3266 1.26046C4.35811 1.33639 4.37433 1.41779 4.37433 1.5H2.37433C2.37433 1.68085 2.41001 1.85994 2.47933 2.02699L4.3266 1.26046ZM4.37433 1.5C4.37433 1.5822 4.35811 1.66361 4.3266 1.73954L2.47933 0.973007C2.41001 1.14006 2.37433 1.31914 2.37433 1.5H4.37433ZM4.3266 1.73954C4.29509 1.81547 4.24891 1.88444 4.19071 1.9425L2.77829 0.526499C2.65024 0.654224 2.54864 0.805956 2.47933 0.973007L4.3266 1.73954Z" fill="#9CA3AF" mask="url(#path-1-inside-1_1_15041)"/>
</svg>
