<svg width="20" height="20" viewBox="0 0 20 20" fill="none" xmlns="http://www.w3.org/2000/svg">
<g clip-path="url(#clip0_1_15111)">
<path d="M18.5524 18.1574C18.3275 17.1274 17.1545 13.1219 12.6493 11.6915C13.1279 11.3904 13.5521 11.0106 13.9032 10.5699H15.6555C16.6713 10.5699 17.4977 9.7435 17.4977 8.7278V6.21662C17.4977 5.79096 17.3522 5.39888 17.1088 5.08662C14.7597 -1.68969 5.25983 -1.7015 2.90196 5.0867C2.65867 5.39896 2.51317 5.791 2.51317 6.21662V8.7278C2.51317 9.74354 3.33955 10.5699 4.35525 10.5699H6.10767C6.45868 11.0106 6.88294 11.3905 7.3615 11.6915C2.85801 13.1211 1.67679 17.1255 1.44969 18.1537C1.25215 19.023 1.90687 20 2.94462 20C5.99869 20 14.1115 20 17.0662 19.9905C18.0781 19.9905 18.7446 19.0545 18.5524 18.1574ZM16.3246 6.21662V8.7278C16.3246 9.09672 16.0245 9.39683 15.6556 9.39683H14.6008C15.1137 8.19477 15.1137 6.74961 14.6008 5.54755H15.6556C16.0245 5.54751 16.3246 5.84765 16.3246 6.21662ZM5.41006 9.39683H4.35525C3.98633 9.39683 3.68622 9.09668 3.68622 8.7278V6.21662C3.68622 5.84765 3.98637 5.54755 4.35525 5.54755H5.41006C4.89716 6.74961 4.89716 8.19473 5.41006 9.39683ZM4.51193 4.37446C6.866 0.0897869 13.1462 0.0927197 15.499 4.37446H13.9032C11.9864 1.88056 8.02357 1.8815 6.10767 4.37446H4.51193ZM6.19737 7.47217C6.19737 5.37241 7.90564 3.66414 10.0054 3.66414C12.5945 3.6137 14.5075 6.36278 13.5859 8.76905H11.261C10.484 8.79775 10.4839 9.9134 11.261 9.9421H12.9013C10.6478 12.6092 6.19748 11.0057 6.19737 7.47217ZM17.3345 18.6901C17.2686 18.771 17.1708 18.8175 17.0644 18.8175C14.1096 18.8269 5.99822 18.8269 2.94462 18.8269C2.72823 18.8323 2.54782 18.6147 2.59611 18.4022C4.40585 10.6025 15.5064 10.43 17.4054 18.4035C17.4258 18.5053 17.4 18.6096 17.3345 18.6901Z" fill="#1F4A8C"/>
</g>
<defs>
<clipPath id="clip0_1_15111">
<rect width="20" height="20" fill="white"/>
</clipPath>
</defs>
</svg>
