<svg width="20" height="20" viewBox="0 0 20 20" fill="none" xmlns="http://www.w3.org/2000/svg">
<path fill-rule="evenodd" clip-rule="evenodd" d="M4.75 1C4.41875 1 4.10063 1.13187 3.86625 1.36625C3.63188 1.60062 3.5 1.91875 3.5 2.25V4.75H2.875C1.84 4.75 1 5.59 1 6.625V16.625C1 17.66 1.84 18.5 2.875 18.5H16.625C17.66 18.5 18.5 17.66 18.5 16.625V6.625C18.5 5.59 17.66 4.75 16.625 4.75H16V2.25C16 1.91875 15.8681 1.60062 15.6337 1.36625C15.3994 1.13187 15.0813 1 14.75 1H4.75ZM4.75 2.25H14.75V4.75H4.75V2.25ZM2.875 6H16.625C16.97 6 17.25 6.28 17.25 6.625V9.28625L12.25 10.785V10.6875C12.25 9.825 11.55 9.125 10.6875 9.125H8.8125C7.95 9.125 7.25 9.825 7.25 10.6875V10.785L2.25 9.28625V6.625C2.25 6.28 2.53 6 2.875 6ZM8.8125 10.375H10.6875C10.86 10.375 11 10.515 11 10.6875V12.5625C11 12.735 10.86 12.875 10.6875 12.875H8.8125C8.64 12.875 8.5 12.735 8.5 12.5625V10.6875C8.5 10.515 8.64 10.375 8.8125 10.375ZM2.25 10.59L4.125 11.1513V17.25H2.875C2.53 17.25 2.25 16.97 2.25 16.625V10.59ZM17.25 10.59V16.625C17.25 16.97 16.97 17.25 16.625 17.25H15.375V11.1513L17.25 10.59ZM5.375 11.5275L7.25 12.0888V12.5625C7.25 13.425 7.95 14.125 8.8125 14.125H10.6875C11.55 14.125 12.25 13.425 12.25 12.5625V12.0888L14.125 11.5275V17.25H5.375V11.5275Z" fill="#1F4A8C"/>
</svg>
