<svg width="119" height="19" viewBox="0 0 119 19" fill="none" xmlns="http://www.w3.org/2000/svg">
<path fill-rule="evenodd" clip-rule="evenodd" d="M108.074 0C113.558 0 118.021 4.24252 118.021 9.5L108.074 19C113.558 19 118.021 14.7575 118.021 9.5L108.074 0ZM105.014 18.5331L109.583 14.1688H99.4028C100.635 16.219 102.633 17.8024 105.014 18.5331ZM98.4251 11.8547H112.006L114.472 9.5L112.006 7.125H98.4251C98.2126 7.87607 98.1063 8.66774 98.1063 9.4797C98.1276 10.312 98.2338 11.1036 98.4251 11.8547ZM99.4028 4.8312H109.583L105.014 0.446581C102.633 1.19765 100.635 2.76068 99.4028 4.8312Z" fill="#470F4A"/>
<path fill-rule="evenodd" clip-rule="evenodd" d="M8.16138 14.1078V11.7328H2.74171V2.8418H0V14.1078H8.16138ZM19.8296 9.56081V9.54052C19.8296 8.89094 19.7021 8.26167 19.447 7.69329C19.192 7.12492 18.8307 6.61744 18.3631 6.19116C17.9168 5.76487 17.3642 5.44009 16.7478 5.1965C16.1102 4.95291 15.4301 4.83111 14.7075 4.83111C13.9636 4.83111 13.2835 4.95291 12.6459 5.1965C12.0083 5.44009 11.4769 5.78517 11.0094 6.21146C10.5418 6.63774 10.1805 7.14522 9.92543 7.71359C9.67039 8.28197 9.54287 8.89094 9.54287 9.56081V9.60141C9.54287 10.251 9.67039 10.8803 9.92543 11.4486C10.1805 12.017 10.5418 12.5245 11.0094 12.9508C11.4557 13.3771 12.0083 13.7018 12.6246 13.9454C13.2622 14.189 13.9424 14.3108 14.665 14.3108C15.4089 14.3108 16.089 14.189 16.7266 13.9454C17.3642 13.7018 17.8955 13.3568 18.3631 12.9305C18.8307 12.5042 19.192 11.9967 19.447 11.4283C19.7021 10.8397 19.8296 10.2307 19.8296 9.56081ZM17.1517 9.60141C17.1517 9.9465 17.0879 10.251 16.9816 10.5555C16.8754 10.86 16.7053 11.1238 16.4928 11.3471C16.2803 11.5704 16.0252 11.7531 15.7277 11.8749C15.4301 11.9967 15.0688 12.0779 14.6862 12.0779C14.3037 12.0779 13.9636 12.017 13.6661 11.8749C13.3685 11.7328 13.0922 11.5501 12.8797 11.3268C12.6459 11.1035 12.4759 10.8194 12.3696 10.5352C12.2421 10.2307 12.1996 9.9059 12.1996 9.58111V9.54052C12.1996 9.19543 12.2633 8.89094 12.3696 8.58646C12.4759 8.28197 12.6459 8.01808 12.8584 7.79479C13.071 7.5715 13.326 7.38881 13.6236 7.26701C13.9211 7.14522 14.2824 7.06402 14.665 7.06402C15.0263 7.06402 15.3664 7.12492 15.6852 7.26701C15.9827 7.4091 16.259 7.5918 16.4928 7.81509C16.7266 8.03838 16.8966 8.32257 17.0029 8.60675C17.1304 8.91124 17.1729 9.23603 17.1729 9.56081V9.60141H17.1517ZM31.7316 12.0373V4.87171H29.0324V6.19116C28.6711 5.80547 28.0547 5.29799 27.5659 5.0341C24.8242 3.53197 21.4661 6.00846 21.4661 9.07364V9.11423C21.4661 11.5095 23.2514 13.3568 25.8231 13.3568C27.1834 13.3568 28.2035 12.8696 29.0749 11.8749V12.3215C29.0749 14.0469 28.0973 15.0619 26.3545 15.0619C25.143 15.0619 24.1866 14.6965 23.1452 14.1484L22.2313 16.0768C23.5277 16.7264 24.9942 17.1121 26.4395 17.1121C29.9251 17.1121 31.7316 15.5085 31.7316 12.0373ZM28.9687 9.11423C28.9687 10.3728 27.906 11.2253 26.6095 11.2253C25.2918 11.2253 24.1653 10.4134 24.1653 9.11423V9.07364C24.1653 7.81509 25.2493 6.77983 26.5457 6.77983C27.8422 6.77983 28.9687 7.79479 28.9687 9.07364V9.11423ZM36.79 14.1078V4.87171H34.0908V14.1078H36.79ZM47.9056 12.6463L46.3328 11.1238C45.6952 11.6922 44.8238 12.0982 43.9099 12.0982C42.4009 12.0982 41.4233 10.7991 41.4233 9.43902V9.39842C41.4233 8.11958 42.3797 6.86103 43.8037 6.86103C44.7388 6.86103 45.5677 7.22641 46.2053 7.85569L47.8631 6.15056C46.8004 5.0341 45.3764 4.62812 43.8249 4.62812C41.0194 4.62812 38.7666 6.73923 38.7666 9.43902V9.47962C38.7666 12.1388 41.0194 14.3311 43.8037 14.3311C45.4402 14.3108 46.8004 13.8033 47.9056 12.6463Z" fill="#470F4A"/>
<path fill-rule="evenodd" clip-rule="evenodd" d="M60.3816 6.9627V6.92211C60.3816 6.31313 60.2754 5.74476 60.0628 5.25758C59.8503 4.7501 59.5315 4.32382 59.1277 3.95843C58.7239 3.59305 58.2138 3.30886 57.6399 3.12617C57.0448 2.92317 56.386 2.82168 55.6421 2.82168H49.8186V14.108H52.5603V11.124H55.3871C56.0884 11.124 56.7473 11.0428 57.3424 10.8601C57.9587 10.6774 58.4901 10.4136 58.9364 10.0685C59.3827 9.72339 59.744 9.27681 60.0203 8.76933C60.2329 8.26185 60.3816 7.65287 60.3816 6.9627ZM57.5974 7.0033C57.5974 7.51078 57.4061 7.93706 57.0236 8.28215C56.641 8.62723 56.1097 8.78963 55.4296 8.78963H52.5178V5.17638H55.3658C56.0459 5.17638 56.5985 5.33877 56.9811 5.64326C57.3849 5.94775 57.5762 6.39433 57.5762 6.983V7.0033H57.5974ZM64.7174 14.108V2.59839H62.0182V14.108H64.7174ZM76.4069 14.108V4.85159H73.7077V10.0482C73.7077 11.1037 72.9638 12.1187 71.7736 12.1187C70.3708 12.1187 69.8182 11.0834 69.8182 10.0482V4.85159H67.119V10.8804C67.119 12.8698 68.7343 14.2501 70.9022 14.2501C72.1349 14.2501 72.985 13.6817 73.6864 12.7886V14.0877H76.4069V14.108ZM94.0899 14.108V8.18065C94.0899 6.17104 92.5384 4.6283 90.3492 4.6283C89.0528 4.6283 88.0751 5.33877 87.2462 6.29283C86.7149 5.27788 85.3971 4.6283 84.2494 4.6283C83.0167 4.6283 82.1878 5.05458 81.5077 6.00864V4.85159H78.8085V14.0877H81.5077V9.03322C81.5077 7.99796 81.8478 6.88151 83.3143 6.88151C84.7595 6.88151 85.0783 8.01826 85.0783 9.03322V14.0877H87.7775V9.03322C87.7775 7.99796 88.2026 6.88151 89.6266 6.88151C91.0506 6.88151 91.3907 8.01826 91.3907 9.03322V14.0877H94.0899V14.108Z" fill="#470F4A"/>
<path d="M35.4512 3.36977C36.3433 3.36977 37.0665 2.67907 37.0665 1.82704C37.0665 0.975007 36.3433 0.284302 35.4512 0.284302C34.5591 0.284302 33.8359 0.975007 33.8359 1.82704C33.8359 2.67907 34.5591 3.36977 35.4512 3.36977Z" fill="#470F4A" stroke="#470F4A" stroke-width="0.216" stroke-miterlimit="22.9256"/>
</svg>
