<svg width="143" height="43" viewBox="0 0 143 43" fill="none" xmlns="http://www.w3.org/2000/svg">
<g clip-path="url(#clip0_1_165)">
<path d="M46.3296 12.5857H43.0072L42.8164 10.8084H38.7635L37.9281 12.5857H34.495L40.6536 0.264404H44.4453L46.3296 12.5857ZM42.0688 3.83823L40.0509 8.09714H42.5304L42.0688 3.83823Z" fill="#BA2FC9"/>
<path d="M53.8634 0.264404L52.246 9.54055H56.442L55.9194 12.5857H48.6127L50.7526 0.264404H53.8634Z" fill="#BA2FC9"/>
<path d="M58.437 12.5857L60.577 0.264404H63.6916L61.5516 12.5857H58.437Z" fill="#BA2FC9"/>
<path d="M72.0417 5.52677H78.1831L77.9733 6.77725C77.6834 8.64394 76.9008 10.1234 75.6255 11.2156C74.3502 12.3078 72.7964 12.8539 70.9641 12.8539C69.0568 12.8539 67.5946 12.2203 66.5774 10.9532C65.5601 9.68597 65.1946 8.11903 65.4807 6.25235C65.7471 4.50328 66.6273 2.90983 67.9601 1.76381C69.2655 0.600928 70.9531 -0.0267206 72.6921 0.00390799C73.7675 -0.017743 74.8295 0.248544 75.7704 0.775797C76.6371 1.27113 77.3393 2.01517 77.7883 2.91394L74.9274 4.45772C74.4188 3.54303 73.5663 3.08569 72.3698 3.08569C71.4583 3.0783 70.5759 3.40999 69.8903 4.01774C69.1916 4.644 68.7304 5.4969 68.5857 6.42989C68.4128 7.41405 68.5692 8.23483 69.0549 8.89222C69.5406 9.54961 70.2711 9.87123 71.2464 9.85708C72.7315 9.85708 73.7811 9.3174 74.3953 8.23804H71.5782L72.0417 5.52677Z" fill="#BA2FC9"/>
<path d="M82.915 12.5857H79.8004L81.9404 0.264404H84.3588L87.5249 6.70579L88.6559 0.264404H91.7514L89.6115 12.5857H87.2121L84.046 6.14426L82.915 12.5857Z" fill="#BA2FC9"/>
<path d="M104.191 0.264404H107.496L105.356 12.5857H102.264L103.409 5.932L99.5942 10.8952H99.2814L97.2101 5.84515L96.0448 12.5857H92.9302L95.0701 0.264404H98.1847L100.168 5.58078L104.191 0.264404Z" fill="#BA2FC9"/>
<path d="M118.56 0.264404L118.038 3.20337H113.428L113.115 4.92853H117.332L116.809 7.82311H112.634L112.321 9.63703H117.019L116.514 12.5934H108.694L110.834 0.272107L118.56 0.264404Z" fill="#BA2FC9"/>
<path d="M122.491 12.5857H119.376L121.516 0.264404H123.935L127.101 6.70579L128.232 0.264404H131.327L129.189 12.5857H126.788L123.626 6.13847L122.491 12.5857Z" fill="#BA2FC9"/>
<path d="M133.868 0.264404H143.002L142.462 3.30949H139.47L137.852 12.5857H134.738L136.355 3.30949H133.353L133.868 0.264404Z" fill="#BA2FC9"/>
<path d="M38.8912 42.996C35.2204 42.996 32.3696 41.7501 30.339 39.2581C28.3326 36.7907 27.6256 33.7102 28.2181 30.0167C28.7228 26.5828 30.4356 23.4486 33.0416 21.1902C35.6877 18.8822 38.7895 17.7283 42.3472 17.7283C44.6487 17.7283 46.6329 18.23 48.2999 19.2335C49.967 20.2423 51.3006 21.7292 52.1316 23.5058L46.5204 26.5182C45.6087 24.6965 44.0237 23.785 41.7655 23.7837C39.9671 23.7651 38.2251 24.4185 36.8734 25.6189C35.5003 26.8502 34.5933 28.5264 34.3081 30.3602C33.9876 32.2977 34.2839 33.8781 35.1969 35.1016C36.1314 36.325 37.5002 36.9367 39.3032 36.9367C41.6059 36.9367 43.4757 35.9674 44.9125 34.0286L49.942 37.3092C48.6992 39.0787 47.0497 40.5158 45.1357 41.4966C43.2025 42.4941 41.0612 43.0082 38.8912 42.996Z" fill="#66046B"/>
<path d="M69.4402 27.2187L71.0137 18.2532H77.1036L72.8924 42.4808H66.8043L68.4122 33.1719H61.6718L60.064 42.4808H53.9417L58.1491 18.2532H64.2734L62.6999 27.2187H69.4402Z" fill="#66046B"/>
<path d="M100.638 42.4808H94.1051L93.7236 38.9861H85.7531L84.111 42.4808H77.3726L89.4857 18.2532H96.9431L100.638 42.4808ZM92.2569 25.2793L88.2879 33.6562H93.1457L92.2569 25.2793Z" fill="#66046B"/>
<path d="M105.125 42.4808L109.321 18.2532H115.444L111.236 42.4808H105.125Z" fill="#66046B"/>
<path d="M123.864 42.4808H117.742L121.949 18.2532H126.704L132.93 30.9218L135.153 18.2532H141.243L137.036 42.4808H132.315L126.088 29.8141L123.864 42.4808Z" fill="#66046B"/>
<path d="M14.4018 4.88405L9.41809 13.8437C10.3444 13.4095 11.3248 13.1051 12.3324 12.9387C13.1515 12.8021 13.9832 12.7587 14.8119 12.8094L18.018 7.0434C19.3531 4.64282 22.4047 3.74166 24.7602 5.13299C25.8595 5.78676 26.6618 6.85043 26.9948 8.09579C27.3278 9.34116 27.1651 10.669 26.5416 11.7944L23.2992 17.6357L22.1225 19.7584L21.4892 20.8949C20.9178 21.9252 19.9971 22.7114 18.8973 23.1083C18.2262 23.3538 17.5099 23.4468 16.7993 23.3805C16.116 23.319 15.4535 23.1111 14.8557 22.7706C14.7527 22.7127 14.6536 22.651 14.5563 22.5777C14.1265 22.2836 13.6021 22.1662 13.0898 22.2493C12.5775 22.3325 12.1157 22.61 11.7984 23.0254L11.7087 23.1431C11.5423 23.3649 11.4222 23.6185 11.3556 23.8887C11.2891 24.1589 11.2775 24.4399 11.3215 24.7148C11.3656 24.9896 11.4644 25.2525 11.6119 25.4876C11.7595 25.7226 11.9527 25.9249 12.1798 26.0821C12.3706 26.2171 12.5842 26.3464 12.7959 26.468C13.6138 26.9345 14.4986 27.2691 15.4184 27.4599C16.1789 27.6186 16.9566 27.6763 17.7319 27.6316C19.6977 27.5229 21.5756 26.772 23.0837 25.4916C23.9133 24.7837 24.6104 23.9307 25.1417 22.9733L25.218 22.8382L30.2017 13.8766C30.7854 12.8268 31.1591 11.671 31.3013 10.4751C31.4435 9.27924 31.3516 8.06673 31.0306 6.90682C30.7097 5.74691 30.1661 4.66231 29.4309 3.71496C28.6957 2.7676 27.7833 1.97603 26.7457 1.38546C24.6502 0.193464 22.1726 -0.107584 19.8577 0.54851C17.5428 1.2046 15.5803 2.76411 14.4018 4.88405Z" fill="url(#paint0_linear_1_165)"/>
<path d="M15.9505 15.0982C15.19 14.9395 14.4123 14.8818 13.637 14.9265C12.7116 14.979 11.7996 15.1742 10.9325 15.5054C9.96867 15.8722 9.07348 16.402 8.28518 17.0723C7.45587 17.7772 6.75821 18.6269 6.22533 19.581L6.15094 19.7161L1.16722 28.6777C0.583495 29.7275 0.209849 30.8833 0.0676171 32.0792C-0.0746143 33.275 0.0173535 34.4875 0.338273 35.6474C0.659192 36.8073 1.20278 37.8919 1.93799 38.8393C2.6732 39.7866 3.58564 40.5782 4.62321 41.1688C5.66077 41.7594 6.80314 42.1374 7.9851 42.2813C9.16706 42.4252 10.3655 42.3322 11.5119 42.0075C12.6583 41.6828 13.7303 41.1328 14.6666 40.3889C15.603 39.6451 16.3853 38.7219 16.969 37.6721L21.9527 28.7124C20.2662 29.5027 18.4124 29.8581 16.557 29.7468L13.3509 35.5128C12.0158 37.9133 8.96417 38.8145 6.60868 37.4232C5.50901 36.7698 4.70645 35.7061 4.37338 34.4606C4.0403 33.2151 4.20328 31.8871 4.82729 30.7618L8.06966 24.9186L9.24835 22.7959L9.87966 21.6593C10.084 21.2937 10.3333 20.9559 10.6216 20.6539C11.1391 20.1127 11.7727 19.6993 12.4736 19.4459C13.1447 19.2006 13.8608 19.1071 14.5716 19.1719C15.2548 19.2349 15.9171 19.4434 16.5151 19.7836C16.6162 19.8415 16.7172 19.9032 16.8145 19.9766C17.2443 20.2706 17.7687 20.3881 18.281 20.3049C18.7934 20.2217 19.2551 19.9442 19.5724 19.5289L19.6621 19.4112C19.8287 19.1894 19.9489 18.9356 20.0154 18.6653C20.082 18.395 20.0935 18.1139 20.0493 17.8389C20.005 17.564 19.9059 17.3011 19.7581 17.0661C19.6102 16.8311 19.4166 16.6291 19.1891 16.4722C18.9984 16.3371 18.7866 16.2078 18.573 16.0863C17.7551 15.6206 16.8703 15.2872 15.9505 15.0982Z" fill="url(#paint1_linear_1_165)"/>
</g>
<defs>
<linearGradient id="paint0_linear_1_165" x1="9.41809" y1="13.9286" x2="31.3689" y2="13.9286" gradientUnits="userSpaceOnUse">
<stop stop-color="#AE1CBA"/>
<stop offset="0.19" stop-color="#AA1BB6"/>
<stop offset="0.39" stop-color="#9F17AA"/>
<stop offset="0.58" stop-color="#8D1196"/>
<stop offset="0.77" stop-color="#74097A"/>
<stop offset="0.86" stop-color="#66046B"/>
</linearGradient>
<linearGradient id="paint1_linear_1_165" x1="-3.07878e-05" y1="28.6314" x2="21.9527" y2="28.6314" gradientUnits="userSpaceOnUse">
<stop stop-color="#AE1CBA"/>
<stop offset="0.19" stop-color="#AA1BB6"/>
<stop offset="0.39" stop-color="#9F17AA"/>
<stop offset="0.58" stop-color="#8D1196"/>
<stop offset="0.77" stop-color="#74097A"/>
<stop offset="0.86" stop-color="#66046B"/>
</linearGradient>
<clipPath id="clip0_1_165">
<rect width="143" height="43" fill="white"/>
</clipPath>
</defs>
</svg>
