<svg width="31" height="27" viewBox="0 0 31 27" fill="none" xmlns="http://www.w3.org/2000/svg">
<rect width="31" height="27" fill="#F9FAFB"/>
<mask id="mask0_1_15852" style="mask-type:luminance" maskUnits="userSpaceOnUse" x="9" y="7" width="13" height="13">
<path fill-rule="evenodd" clip-rule="evenodd" d="M9 7H22V20H9V7Z" fill="white"/>
</mask>
<g mask="url(#mask0_1_15852)">
<path fill-rule="evenodd" clip-rule="evenodd" d="M10.9103 9.91214L10.858 9.80757C10.8339 9.75938 10.8015 9.71764 10.7608 9.68235C10.7201 9.64705 10.6742 9.62088 10.6231 9.60385C10.572 9.58681 10.5196 9.5802 10.4659 9.58402C10.4121 9.58784 10.3612 9.60179 10.313 9.62589C10.2126 9.67606 10.1447 9.75435 10.1093 9.86078C10.0738 9.96721 10.0811 10.0706 10.1313 10.1709L10.6679 11.2442C10.692 11.2924 10.7244 11.3341 10.7651 11.3694C10.8058 11.4047 10.8517 11.4308 10.9028 11.4479C10.9539 11.4649 11.0064 11.4716 11.0601 11.4677C11.1138 11.4639 11.1648 11.4499 11.213 11.4258C11.2205 11.4221 11.2279 11.4181 11.2352 11.4139C11.2425 11.4096 11.2496 11.4052 11.2566 11.4005L13.6941 9.77552C13.739 9.74564 13.7764 9.70831 13.8063 9.66355C13.8363 9.61879 13.8566 9.57 13.8672 9.51717C13.8777 9.46434 13.8778 9.41151 13.8673 9.35866C13.8569 9.30581 13.8367 9.25698 13.8068 9.21215C13.7446 9.11881 13.6585 9.06114 13.5484 9.03914C13.4385 9.01714 13.3368 9.03725 13.2434 9.09948L12.454 9.62576L11.1888 10.4692L10.9103 9.91214ZM15.5 9.4375C15.3879 9.4375 15.2921 9.47716 15.2128 9.55649C15.1334 9.63581 15.0938 9.73157 15.0938 9.84375C15.0938 9.95593 15.1334 10.0517 15.2128 10.131C15.2921 10.2103 15.3879 10.25 15.5 10.25H21.1875C21.2997 10.25 21.3955 10.2103 21.4748 10.131C21.5541 10.0517 21.5938 9.95593 21.5938 9.84375C21.5938 9.73157 21.5541 9.63581 21.4748 9.55649C21.3955 9.47716 21.2997 9.4375 21.1875 9.4375H15.5ZM10.9188 13.1621L10.8665 13.0576C10.8163 12.9572 10.738 12.8893 10.6316 12.8539C10.5252 12.8184 10.4218 12.8257 10.3215 12.8759C10.2733 12.9 10.2315 12.9324 10.1962 12.9731C10.1609 13.0138 10.1348 13.0597 10.1177 13.1108C10.1007 13.1619 10.0941 13.2143 10.0979 13.268C10.1017 13.3218 10.1157 13.3728 10.1398 13.4209L10.6764 14.4942C10.7266 14.5945 10.8049 14.6624 10.9113 14.6979C11.0177 14.7334 11.1211 14.726 11.2214 14.6758C11.229 14.6721 11.2364 14.6681 11.2437 14.6639C11.251 14.6596 11.2581 14.6552 11.2651 14.6505L13.7026 13.0255C13.796 12.9633 13.8536 12.8772 13.8756 12.7672C13.8976 12.6572 13.8775 12.5555 13.8153 12.4622C13.7531 12.3688 13.667 12.3111 13.5569 12.2891C13.4469 12.2672 13.3453 12.2873 13.2519 12.3495L11.1973 13.7192L10.9188 13.1621ZM15.5 13.0937C15.3879 13.0937 15.2921 13.1334 15.2128 13.2127C15.1334 13.2921 15.0938 13.3878 15.0938 13.5C15.0938 13.6122 15.1334 13.7079 15.2128 13.7873C15.2921 13.8666 15.3879 13.9062 15.5 13.9062H21.1875C21.2997 13.9062 21.3955 13.8666 21.4748 13.7873C21.5541 13.7079 21.5938 13.6122 21.5938 13.5C21.5938 13.3878 21.5541 13.2921 21.4748 13.2127C21.3955 13.1334 21.2997 13.0937 21.1875 13.0937H15.5ZM10.9188 16.4121L10.8665 16.3076C10.8163 16.2072 10.738 16.1393 10.6316 16.1039C10.5252 16.0684 10.4218 16.0757 10.3215 16.1259C10.2733 16.15 10.2315 16.1824 10.1962 16.2231C10.1609 16.2638 10.1348 16.3097 10.1177 16.3608C10.1007 16.4119 10.0941 16.4643 10.0979 16.518C10.1017 16.5718 10.1157 16.6228 10.1398 16.6709L10.6764 17.7442C10.7266 17.8445 10.8049 17.9124 10.9113 17.9479C11.0177 17.9834 11.1211 17.976 11.2214 17.9258C11.229 17.9221 11.2364 17.9181 11.2437 17.9139C11.251 17.9096 11.2581 17.9052 11.2651 17.9005L13.7026 16.2755C13.7474 16.2456 13.7848 16.2083 13.8148 16.1635C13.8448 16.1188 13.8651 16.07 13.8756 16.0172C13.8862 15.9644 13.8862 15.9115 13.8758 15.8586C13.8653 15.8058 13.8452 15.757 13.8153 15.7122C13.7531 15.6188 13.667 15.5611 13.5569 15.5391C13.4469 15.5172 13.3453 15.5373 13.2519 15.5995L12.4625 16.1258L11.1973 16.9692L10.9188 16.4121ZM15.5 16.75C15.3879 16.75 15.2921 16.7896 15.2128 16.869C15.1334 16.9483 15.0938 17.0441 15.0938 17.1562C15.0938 17.2684 15.1334 17.3642 15.2128 17.4435C15.2921 17.5228 15.3879 17.5625 15.5 17.5625H21.1875C21.2997 17.5625 21.3955 17.5228 21.4748 17.4435C21.5541 17.3642 21.5938 17.2684 21.5938 17.1562C21.5938 17.0441 21.5541 16.9483 21.4748 16.869C21.3955 16.7896 21.2997 16.75 21.1875 16.75H15.5Z" fill="#1F4A8C"/>
</g>
</svg>
