<svg width="241" height="32" viewBox="0 0 241 32" fill="none" xmlns="http://www.w3.org/2000/svg">
<mask id="path-1-inside-1_1_15723" fill="white">
<path d="M0 2C0 0.895431 0.895431 0 2 0H239C240.105 0 241 0.895431 241 2V30C241 31.1046 240.105 32 239 32H2C0.89543 32 0 31.1046 0 30V2Z"/>
</mask>
<path d="M0 2C0 0.895431 0.895431 0 2 0H239C240.105 0 241 0.895431 241 2V30C241 31.1046 240.105 32 239 32H2C0.89543 32 0 31.1046 0 30V2Z" fill="#F9FAFB"/>
<path d="M18.3063 11.965V21H16.8243V17.048H12.5733V21H11.0913V11.965H12.5733V15.839H16.8243V11.965H18.3063ZM23.6244 21.117C22.9484 21.117 22.3374 20.9653 21.7914 20.662C21.2454 20.35 20.8164 19.9167 20.5044 19.362C20.1924 18.7987 20.0364 18.1487 20.0364 17.412C20.0364 16.684 20.1967 16.0383 20.5174 15.475C20.838 14.9117 21.2757 14.4783 21.8304 14.175C22.385 13.8717 23.0047 13.72 23.6894 13.72C24.374 13.72 24.9937 13.8717 25.5484 14.175C26.103 14.4783 26.5407 14.9117 26.8614 15.475C27.182 16.0383 27.3424 16.684 27.3424 17.412C27.3424 18.14 27.1777 18.7857 26.8484 19.349C26.519 19.9123 26.0684 20.35 25.4964 20.662C24.933 20.9653 24.309 21.117 23.6244 21.117ZM23.6244 19.83C24.0057 19.83 24.361 19.739 24.6904 19.557C25.0284 19.375 25.3014 19.102 25.5094 18.738C25.7174 18.374 25.8214 17.932 25.8214 17.412C25.8214 16.892 25.7217 16.4543 25.5224 16.099C25.323 15.735 25.0587 15.462 24.7294 15.28C24.4 15.098 24.0447 15.007 23.6634 15.007C23.282 15.007 22.9267 15.098 22.5974 15.28C22.2767 15.462 22.021 15.735 21.8304 16.099C21.6397 16.4543 21.5444 16.892 21.5444 17.412C21.5444 18.1833 21.7394 18.7813 22.1294 19.206C22.528 19.622 23.0264 19.83 23.6244 19.83ZM37.7384 13.72C38.3017 13.72 38.8044 13.837 39.2464 14.071C39.6971 14.305 40.0481 14.6517 40.2994 15.111C40.5594 15.5703 40.6894 16.125 40.6894 16.775V21H39.2204V16.996C39.2204 16.3547 39.0601 15.865 38.7394 15.527C38.4187 15.1803 37.9811 15.007 37.4264 15.007C36.8717 15.007 36.4297 15.1803 36.1004 15.527C35.7797 15.865 35.6194 16.3547 35.6194 16.996V21H34.1504V16.996C34.1504 16.3547 33.9901 15.865 33.6694 15.527C33.3487 15.1803 32.9111 15.007 32.3564 15.007C31.8017 15.007 31.3597 15.1803 31.0304 15.527C30.7097 15.865 30.5494 16.3547 30.5494 16.996V21H29.0674V13.837H30.5494V14.656C30.7921 14.3613 31.0997 14.1317 31.4724 13.967C31.8451 13.8023 32.2437 13.72 32.6684 13.72C33.2404 13.72 33.7517 13.8413 34.2024 14.084C34.6531 14.3267 34.9997 14.6777 35.2424 15.137C35.4591 14.7037 35.7971 14.3613 36.2564 14.11C36.7157 13.85 37.2097 13.72 37.7384 13.72ZM49.4002 17.243C49.4002 17.5117 49.3829 17.7543 49.3482 17.971H43.8752C43.9185 18.543 44.1309 19.0023 44.5122 19.349C44.8935 19.6957 45.3615 19.869 45.9162 19.869C46.7135 19.869 47.2769 19.5353 47.6062 18.868H49.2052C48.9885 19.5267 48.5942 20.0683 48.0222 20.493C47.4589 20.909 46.7569 21.117 45.9162 21.117C45.2315 21.117 44.6162 20.9653 44.0702 20.662C43.5329 20.35 43.1082 19.9167 42.7962 19.362C42.4929 18.7987 42.3412 18.1487 42.3412 17.412C42.3412 16.6753 42.4885 16.0297 42.7832 15.475C43.0865 14.9117 43.5069 14.4783 44.0442 14.175C44.5902 13.8717 45.2142 13.72 45.9162 13.72C46.5922 13.72 47.1945 13.8673 47.7232 14.162C48.2519 14.4567 48.6635 14.8727 48.9582 15.41C49.2529 15.9387 49.4002 16.5497 49.4002 17.243ZM47.8532 16.775C47.8445 16.229 47.6495 15.7913 47.2682 15.462C46.8869 15.1327 46.4145 14.968 45.8512 14.968C45.3399 14.968 44.9022 15.1327 44.5382 15.462C44.1742 15.7827 43.9575 16.2203 43.8882 16.775H47.8532Z" fill="#2E4F8B"/>
<mask id="path-5-inside-2_1_15723" fill="white">
<path fill-rule="evenodd" clip-rule="evenodd" d="M57.4845 11.2346C57.5193 11.1996 57.5607 11.1719 57.6063 11.153C57.6518 11.1341 57.7007 11.1244 57.75 11.1244C57.7993 11.1244 57.8482 11.1341 57.8937 11.153C57.9393 11.1719 57.9807 11.1996 58.0155 11.2346L62.5155 15.7346C62.5504 15.7694 62.5781 15.8108 62.597 15.8563C62.6159 15.9019 62.6257 15.9507 62.6257 16.0001C62.6257 16.0494 62.6159 16.0982 62.597 16.1438C62.5781 16.1893 62.5504 16.2307 62.5155 16.2656L58.0155 20.7656C57.9451 20.836 57.8496 20.8755 57.75 20.8755C57.6504 20.8755 57.5549 20.836 57.4845 20.7656C57.4141 20.6951 57.3745 20.5996 57.3745 20.5001C57.3745 20.4005 57.4141 20.305 57.4845 20.2346L61.7197 16.0001L57.4845 11.7656C57.4496 11.7307 57.4219 11.6893 57.403 11.6438C57.3841 11.5982 57.3743 11.5494 57.3743 11.5001C57.3743 11.4507 57.3841 11.4019 57.403 11.3563C57.4219 11.3108 57.4496 11.2694 57.4845 11.2346Z"/>
</mask>
<path fill-rule="evenodd" clip-rule="evenodd" d="M57.4845 11.2346C57.5193 11.1996 57.5607 11.1719 57.6063 11.153C57.6518 11.1341 57.7007 11.1244 57.75 11.1244C57.7993 11.1244 57.8482 11.1341 57.8937 11.153C57.9393 11.1719 57.9807 11.1996 58.0155 11.2346L62.5155 15.7346C62.5504 15.7694 62.5781 15.8108 62.597 15.8563C62.6159 15.9019 62.6257 15.9507 62.6257 16.0001C62.6257 16.0494 62.6159 16.0982 62.597 16.1438C62.5781 16.1893 62.5504 16.2307 62.5155 16.2656L58.0155 20.7656C57.9451 20.836 57.8496 20.8755 57.75 20.8755C57.6504 20.8755 57.5549 20.836 57.4845 20.7656C57.4141 20.6951 57.3745 20.5996 57.3745 20.5001C57.3745 20.4005 57.4141 20.305 57.4845 20.2346L61.7197 16.0001L57.4845 11.7656C57.4496 11.7307 57.4219 11.6893 57.403 11.6438C57.3841 11.5982 57.3743 11.5494 57.3743 11.5001C57.3743 11.4507 57.3841 11.4019 57.403 11.3563C57.4219 11.3108 57.4496 11.2694 57.4845 11.2346Z" fill="#9CA3AF"/>
<path d="M58.0155 11.2346L57.3075 11.9408L57.3084 11.9417L58.0155 11.2346ZM62.5155 15.7346L61.8084 16.4417L61.8093 16.4426L62.5155 15.7346ZM62.5155 16.2656L61.8093 15.5576L61.8084 15.5585L62.5155 16.2656ZM57.4845 20.2346L56.7775 19.5274L56.7774 19.5275L57.4845 20.2346ZM61.7197 16.0001L62.4268 16.7072L63.1341 16.0001L62.4268 15.2929L61.7197 16.0001ZM57.4845 11.7656L58.1915 11.0584L58.1907 11.0576L57.4845 11.7656ZM58.1925 11.9408C58.1344 11.999 58.0655 12.0452 57.9895 12.0767L57.223 10.2294C57.056 10.2987 56.9042 10.4003 56.7765 10.5283L58.1925 11.9408ZM57.9895 12.0767C57.9136 12.1082 57.8322 12.1244 57.75 12.1244V10.1244C57.5691 10.1244 57.3901 10.1601 57.223 10.2294L57.9895 12.0767ZM57.75 12.1244C57.6678 12.1244 57.5864 12.1082 57.5105 12.0767L58.277 10.2294C58.1099 10.1601 57.9309 10.1244 57.75 10.1244V12.1244ZM57.5105 12.0767C57.4345 12.0452 57.3656 11.999 57.3075 11.9408L58.7235 10.5283C58.5958 10.4003 58.444 10.2987 58.277 10.2294L57.5105 12.0767ZM57.3084 11.9417L61.8084 16.4417L63.2226 15.0275L58.7226 10.5275L57.3084 11.9417ZM61.8093 16.4426C61.7511 16.3845 61.7049 16.3155 61.6734 16.2396L63.5207 15.4731C63.4514 15.306 63.3498 15.1543 63.2217 15.0266L61.8093 16.4426ZM61.6734 16.2396C61.6419 16.1637 61.6257 16.0823 61.6257 16.0001H63.6257C63.6257 15.8192 63.59 15.6401 63.5207 15.4731L61.6734 16.2396ZM61.6257 16.0001C61.6257 15.9178 61.6419 15.8364 61.6734 15.7605L63.5207 16.5271C63.59 16.36 63.6257 16.1809 63.6257 16.0001H61.6257ZM61.6734 15.7605C61.7049 15.6846 61.7511 15.6156 61.8093 15.5576L63.2217 16.9736C63.3498 16.8458 63.4514 16.6941 63.5207 16.5271L61.6734 15.7605ZM61.8084 15.5585L57.3084 20.0585L58.7226 21.4727L63.2226 16.9727L61.8084 15.5585ZM57.3084 20.0585C57.4255 19.9413 57.5844 19.8755 57.75 19.8755V21.8755C58.1148 21.8755 58.4647 21.7306 58.7226 21.4727L57.3084 20.0585ZM57.75 19.8755C57.9156 19.8755 58.0745 19.9413 58.1916 20.0585L56.7774 21.4727C57.0353 21.7306 57.3852 21.8755 57.75 21.8755V19.8755ZM58.1916 20.0585C58.3087 20.1756 58.3745 20.3344 58.3745 20.5001H56.3745C56.3745 20.8649 56.5194 21.2147 56.7774 21.4727L58.1916 20.0585ZM58.3745 20.5001C58.3745 20.6657 58.3087 20.8245 58.1916 20.9417L56.7774 19.5275C56.5194 19.7854 56.3745 20.1353 56.3745 20.5001H58.3745ZM58.1915 20.9417L62.4268 16.7072L61.0127 15.2929L56.7775 19.5274L58.1915 20.9417ZM62.4268 15.2929L58.1915 11.0584L56.7775 12.4727L61.0127 16.7072L62.4268 15.2929ZM58.1907 11.0576C58.2489 11.1156 58.2951 11.1846 58.3266 11.2605L56.4793 12.0271C56.5486 12.1941 56.6502 12.3458 56.7783 12.4736L58.1907 11.0576ZM58.3266 11.2605C58.3581 11.3365 58.3743 11.4179 58.3743 11.5001H56.3743C56.3743 11.6809 56.41 11.86 56.4793 12.0271L58.3266 11.2605ZM58.3743 11.5001C58.3743 11.5823 58.3581 11.6637 58.3266 11.7396L56.4793 10.9731C56.41 11.1401 56.3743 11.3192 56.3743 11.5001H58.3743ZM58.3266 11.7396C58.2951 11.8155 58.2489 11.8845 58.1907 11.9426L56.7783 10.5266C56.6502 10.6543 56.5486 10.806 56.4793 10.9731L58.3266 11.7396Z" fill="#9CA3AF" mask="url(#path-5-inside-2_1_15723)"/>
<path d="M72.511 11.965V21H71.029V11.965H72.511ZM78.3307 13.72C78.8941 13.72 79.3967 13.837 79.8387 14.071C80.2894 14.305 80.6404 14.6517 80.8917 15.111C81.1431 15.5703 81.2687 16.125 81.2687 16.775V21H79.7997V16.996C79.7997 16.3547 79.6394 15.865 79.3187 15.527C78.9981 15.1803 78.5604 15.007 78.0057 15.007C77.4511 15.007 77.0091 15.1803 76.6797 15.527C76.3591 15.865 76.1987 16.3547 76.1987 16.996V21H74.7167V13.837H76.1987V14.656C76.4414 14.3613 76.7491 14.1317 77.1217 13.967C77.5031 13.8023 77.9061 13.72 78.3307 13.72ZM86.0191 21.117C85.4558 21.117 84.9488 21.0173 84.4981 20.818C84.0561 20.61 83.7051 20.3327 83.4451 19.986C83.1851 19.6307 83.0464 19.2363 83.0291 18.803H84.5631C84.5891 19.1063 84.7321 19.362 84.9921 19.57C85.2608 19.7693 85.5944 19.869 85.9931 19.869C86.4091 19.869 86.7298 19.791 86.9551 19.635C87.1891 19.4703 87.3061 19.2623 87.3061 19.011C87.3061 18.7423 87.1761 18.543 86.9161 18.413C86.6648 18.283 86.2618 18.14 85.7071 17.984C85.1698 17.8367 84.7321 17.6937 84.3941 17.555C84.0561 17.4163 83.7614 17.204 83.5101 16.918C83.2674 16.632 83.1461 16.255 83.1461 15.787C83.1461 15.4057 83.2588 15.059 83.4841 14.747C83.7094 14.4263 84.0301 14.175 84.4461 13.993C84.8708 13.811 85.3561 13.72 85.9021 13.72C86.7168 13.72 87.3711 13.928 87.8651 14.344C88.3678 14.7513 88.6364 15.3103 88.6711 16.021H87.1891C87.1631 15.7003 87.0331 15.4447 86.7991 15.254C86.5651 15.0633 86.2488 14.968 85.8501 14.968C85.4601 14.968 85.1611 15.0417 84.9531 15.189C84.7451 15.3363 84.6411 15.5313 84.6411 15.774C84.6411 15.9647 84.7104 16.125 84.8491 16.255C84.9878 16.385 85.1568 16.489 85.3561 16.567C85.5554 16.6363 85.8501 16.7273 86.2401 16.84C86.7601 16.9787 87.1848 17.1217 87.5141 17.269C87.8521 17.4077 88.1424 17.6157 88.3851 17.893C88.6278 18.1703 88.7534 18.5387 88.7621 18.998C88.7621 19.4053 88.6494 19.7693 88.4241 20.09C88.1988 20.4107 87.8781 20.662 87.4621 20.844C87.0548 21.026 86.5738 21.117 86.0191 21.117ZM91.3774 12.888C91.1088 12.888 90.8834 12.797 90.7014 12.615C90.5194 12.433 90.4284 12.2077 90.4284 11.939C90.4284 11.6703 90.5194 11.445 90.7014 11.263C90.8834 11.081 91.1088 10.99 91.3774 10.99C91.6374 10.99 91.8584 11.081 92.0404 11.263C92.2224 11.445 92.3134 11.6703 92.3134 11.939C92.3134 12.2077 92.2224 12.433 92.0404 12.615C91.8584 12.797 91.6374 12.888 91.3774 12.888ZM92.1054 13.837V21H90.6234V13.837H92.1054ZM97.1972 13.72C97.7518 13.72 98.2415 13.8327 98.6662 14.058C99.0995 14.2747 99.4375 14.5477 99.6802 14.877V13.837H101.175V21.117C101.175 21.7757 101.037 22.3607 100.759 22.872C100.482 23.392 100.079 23.7993 99.5502 24.094C99.0302 24.3887 98.4062 24.536 97.6782 24.536C96.7075 24.536 95.9015 24.3063 95.2602 23.847C94.6188 23.3963 94.2548 22.781 94.1682 22.001H95.6372C95.7498 22.3737 95.9882 22.6727 96.3522 22.898C96.7248 23.132 97.1668 23.249 97.6782 23.249C98.2762 23.249 98.7572 23.067 99.1212 22.703C99.4938 22.339 99.6802 21.8103 99.6802 21.117V19.921C99.4288 20.259 99.0865 20.545 98.6532 20.779C98.2285 21.0043 97.7432 21.117 97.1972 21.117C96.5732 21.117 96.0012 20.961 95.4812 20.649C94.9698 20.3283 94.5625 19.8863 94.2592 19.323C93.9645 18.751 93.8172 18.1053 93.8172 17.386C93.8172 16.6667 93.9645 16.0297 94.2592 15.475C94.5625 14.9203 94.9698 14.4913 95.4812 14.188C96.0012 13.876 96.5732 13.72 97.1972 13.72ZM99.6802 17.412C99.6802 16.918 99.5762 16.489 99.3682 16.125C99.1688 15.761 98.9045 15.4837 98.5752 15.293C98.2458 15.1023 97.8905 15.007 97.5092 15.007C97.1278 15.007 96.7725 15.1023 96.4432 15.293C96.1138 15.475 95.8452 15.748 95.6372 16.112C95.4378 16.4673 95.3382 16.892 95.3382 17.386C95.3382 17.88 95.4378 18.3133 95.6372 18.686C95.8452 19.0587 96.1138 19.3447 96.4432 19.544C96.7812 19.7347 97.1365 19.83 97.5092 19.83C97.8905 19.83 98.2458 19.7347 98.5752 19.544C98.9045 19.3533 99.1688 19.076 99.3682 18.712C99.5762 18.3393 99.6802 17.906 99.6802 17.412ZM107.087 13.72C107.633 13.72 108.118 13.837 108.543 14.071C108.976 14.305 109.314 14.6517 109.557 15.111C109.808 15.5703 109.934 16.125 109.934 16.775V21H108.465V16.996C108.465 16.3547 108.304 15.865 107.984 15.527C107.663 15.1803 107.225 15.007 106.671 15.007C106.116 15.007 105.674 15.1803 105.345 15.527C105.024 15.865 104.864 16.3547 104.864 16.996V21H103.382V11.38H104.864V14.669C105.115 14.3657 105.431 14.1317 105.813 13.967C106.203 13.8023 106.627 13.72 107.087 13.72ZM113.813 15.046V19.011C113.813 19.2797 113.874 19.4747 113.995 19.596C114.125 19.7087 114.342 19.765 114.645 19.765H115.555V21H114.385C113.718 21 113.206 20.844 112.851 20.532C112.496 20.22 112.318 19.713 112.318 19.011V15.046H111.473V13.837H112.318V12.056H113.813V13.837H115.555V15.046H113.813Z" fill="#2E4F8B"/>
<path d="M-1 2C-1 0.343146 0.343146 -1 2 -1H239C240.657 -1 242 0.343146 242 2H240C240 1.44772 239.552 1 239 1H2C1.44772 1 1 1.44772 1 2H-1ZM242 30C242 31.6569 240.657 33 239 33H2C0.343146 33 -1 31.6569 -1 30H1C1 30.5523 1.44772 31 2 31H239C239.552 31 240 30.5523 240 30H242ZM2 33C0.343146 33 -1 31.6569 -1 30V2C-1 0.343146 0.343146 -1 2 -1V1C1.44772 1 1 1.44772 1 2V30C1 30.5523 1.44772 31 2 31V33ZM239 -1C240.657 -1 242 0.343146 242 2V30C242 31.6569 240.657 33 239 33V31C239.552 31 240 30.5523 240 30V2C240 1.44772 239.552 1 239 1V-1Z" fill="black" fill-opacity="0.09" mask="url(#path-1-inside-1_1_15723)"/>
</svg>
