<svg width="34" height="30" viewBox="0 0 34 30" fill="none" xmlns="http://www.w3.org/2000/svg">
<rect width="34" height="30" fill="#F9FAFB"/>
<path d="M14 12.3333V17.6667L16.6667 15L14 12.3333ZM12.3333 21C11.9667 21 11.6527 20.8696 11.3913 20.6087C11.1304 20.3473 11 20.0333 11 19.6667V10.3333C11 9.96667 11.1304 9.65267 11.3913 9.39133C11.6527 9.13044 11.9667 9 12.3333 9H21.6667C22.0333 9 22.3473 9.13044 22.6087 9.39133C22.8696 9.65267 23 9.96667 23 10.3333V19.6667C23 20.0333 22.8696 20.3473 22.6087 20.6087C22.3473 20.8696 22.0333 21 21.6667 21H12.3333ZM18.3333 19.6667V10.3333H12.3333V19.6667H18.3333Z" fill="#0FA958"/>
</svg>
