<svg width="604" height="38" viewBox="0 0 604 38" fill="none" xmlns="http://www.w3.org/2000/svg">
<path d="M0 0H604V38H0V0Z" fill="#DEEBF8"/>
<rect x="14.5" y="12.8086" width="13.7922" height="13.2023" rx="1.5" fill="#F6F6F6" stroke="#D9D9D9"/>
<path d="M43.0481 20.5075H41.9921V23.2555H40.4801V15.1675H43.0121C43.9241 15.1675 44.6521 15.4155 45.1961 15.9115C45.7481 16.4075 46.0241 17.0435 46.0241 17.8195C46.0241 18.6435 45.7401 19.2995 45.1721 19.7875C44.6121 20.2675 43.9041 20.5075 43.0481 20.5075ZM42.8801 16.4035H41.9921V19.2835H42.8441C43.3961 19.2835 43.8081 19.1515 44.0801 18.8875C44.3521 18.6235 44.4881 18.2675 44.4881 17.8195C44.4881 17.3795 44.3521 17.0355 44.0801 16.7875C43.8081 16.5315 43.4081 16.4035 42.8801 16.4035ZM48.5281 23.2555H47.0761L47.0881 17.1715H48.5281V18.2515C48.8081 17.4995 49.3201 17.1235 50.0641 17.1235C50.2321 17.1235 50.3681 17.1355 50.4721 17.1595V18.5515C50.2881 18.4715 50.0841 18.4315 49.8601 18.4315C49.4681 18.4315 49.1481 18.5915 48.9001 18.9115C48.6521 19.2315 48.5281 19.6315 48.5281 20.1115V23.2555ZM56.8626 20.1955C56.8626 21.1155 56.6026 21.8715 56.0826 22.4635C55.5706 23.0555 54.8506 23.3515 53.9226 23.3515C53.0026 23.3515 52.2826 23.0635 51.7626 22.4875C51.2506 21.9115 50.9946 21.1755 50.9946 20.2795C50.9946 19.3515 51.2626 18.5875 51.7986 17.9875C52.3346 17.3795 53.0426 17.0755 53.9226 17.0755C54.8586 17.0755 55.5826 17.3715 56.0946 17.9635C56.6066 18.5475 56.8626 19.2915 56.8626 20.1955ZM52.5066 20.2315C52.5066 20.7915 52.6306 21.2595 52.8786 21.6355C53.1266 22.0115 53.4786 22.1995 53.9346 22.1995C54.4066 22.1995 54.7626 22.0155 55.0026 21.6475C55.2426 21.2795 55.3626 20.8115 55.3626 20.2435C55.3626 19.6595 55.2466 19.1835 55.0146 18.8155C54.7826 18.4395 54.4186 18.2515 53.9226 18.2515C53.4666 18.2515 53.1146 18.4395 52.8666 18.8155C52.6266 19.1915 52.5066 19.6635 52.5066 20.2315ZM59.5437 25.5475H58.1037V17.1715H59.5437V18.1075C59.9757 17.4275 60.5957 17.0875 61.4037 17.0875C62.1957 17.0875 62.8237 17.3715 63.2877 17.9395C63.7597 18.5075 63.9957 19.2555 63.9957 20.1835C63.9957 21.0955 63.7597 21.8515 63.2877 22.4515C62.8237 23.0435 62.1917 23.3395 61.3917 23.3395C60.5757 23.3395 59.9597 23.0075 59.5437 22.3435V25.5475ZM59.9997 18.7795C59.6957 19.0915 59.5437 19.5555 59.5437 20.1715C59.5437 20.7875 59.6917 21.2635 59.9877 21.5995C60.2837 21.9355 60.6397 22.1035 61.0557 22.1035C61.4877 22.1035 61.8397 21.9395 62.1117 21.6115C62.3837 21.2755 62.5197 20.8075 62.5197 20.2075C62.5197 19.6075 62.3837 19.1435 62.1117 18.8155C61.8397 18.4795 61.4957 18.3115 61.0797 18.3115C60.6637 18.3115 60.3037 18.4675 59.9997 18.7795ZM69.8727 22.9195C69.4487 23.1835 68.8367 23.3155 68.0367 23.3155C67.0687 23.3155 66.3047 23.0275 65.7447 22.4515C65.1847 21.8755 64.9047 21.1315 64.9047 20.2195C64.9047 19.2515 65.1687 18.4915 65.6967 17.9395C66.2247 17.3875 66.8847 17.1115 67.6767 17.1115C68.4687 17.1115 69.0967 17.3515 69.5607 17.8315C70.0247 18.3115 70.2567 19.0115 70.2567 19.9315C70.2567 20.1555 70.2287 20.4435 70.1727 20.7955H66.3567C66.4607 21.2355 66.6767 21.5715 67.0047 21.8035C67.3407 22.0355 67.7567 22.1515 68.2527 22.1515C68.8927 22.1515 69.4327 21.9915 69.8727 21.6715V22.9195ZM67.7127 18.2395C67.3687 18.2395 67.0687 18.3675 66.8127 18.6235C66.5647 18.8715 66.4047 19.2355 66.3327 19.7155H68.8887V19.5355C68.8727 19.1435 68.7647 18.8315 68.5647 18.5995C68.3727 18.3595 68.0887 18.2395 67.7127 18.2395ZM73.0203 23.2555H71.5683L71.5803 17.1715H73.0203V18.2515C73.3003 17.4995 73.8123 17.1235 74.5563 17.1235C74.7243 17.1235 74.8603 17.1355 74.9643 17.1595V18.5515C74.7803 18.4715 74.5763 18.4315 74.3523 18.4315C73.9603 18.4315 73.6403 18.5915 73.3923 18.9115C73.1443 19.2315 73.0203 19.6315 73.0203 20.1115V23.2555ZM79.1708 23.1115C78.8908 23.2475 78.5308 23.3155 78.0908 23.3155C76.7788 23.3155 76.1228 22.6515 76.1228 21.3235V18.2515H75.2108V17.1715H76.1228V15.7075H77.5628V17.1715H79.0748V18.2515H77.5628V21.3475C77.5628 21.6035 77.6308 21.7995 77.7668 21.9355C77.9028 22.0635 78.0908 22.1275 78.3308 22.1275C78.6348 22.1275 78.9148 22.0435 79.1708 21.8755V23.1115ZM83.4776 23.0875C82.8696 24.7115 81.9416 25.5235 80.6936 25.5235C80.4616 25.5235 80.2616 25.5035 80.0936 25.4635V24.2755C80.2216 24.3075 80.3576 24.3235 80.5016 24.3235C81.2296 24.3235 81.7456 23.9275 82.0496 23.1355L79.6496 17.1715H81.2456L81.9536 19.1155C82.1696 19.6915 82.3416 20.1755 82.4696 20.5675C82.6056 20.9595 82.6896 21.2075 82.7216 21.3115L82.7576 21.4795C82.8376 21.1995 83.0936 20.4115 83.5256 19.1155L84.1616 17.1715H85.6736L83.4776 23.0875ZM91.1194 23.2555H89.6074V15.1675H91.1194V23.2555ZM95.5381 23.2555H92.8981V15.1675H95.5381C96.7461 15.1675 97.7341 15.5395 98.5021 16.2835C99.2701 17.0275 99.6541 17.9675 99.6541 19.1035C99.6541 20.3435 99.2821 21.3475 98.5381 22.1155C97.7941 22.8755 96.7941 23.2555 95.5381 23.2555ZM95.4901 16.4395H94.4461V21.9955H95.5141C96.3621 21.9955 97.0061 21.7355 97.4461 21.2155C97.8861 20.6875 98.1061 19.9835 98.1061 19.1035C98.1061 18.3275 97.8701 17.6915 97.3981 17.1955C96.9341 16.6915 96.2981 16.4395 95.4901 16.4395Z" fill="black"/>
<path d="M134.69 23.2555H133.178V15.1675H134.894L136.838 18.5395C137.158 19.0915 137.442 19.6075 137.69 20.0875C137.946 20.5595 138.118 20.8955 138.206 21.0955L138.338 21.3955C138.274 20.7315 138.242 19.7795 138.242 18.5395V15.1675H139.766V23.2555H138.038L136.07 19.8955C135.758 19.3675 135.474 18.8635 135.218 18.3835C134.97 17.8955 134.798 17.5435 134.702 17.3275L134.558 16.9915C134.646 17.7515 134.69 18.7155 134.69 19.8835V23.2555ZM143.467 22.2355C143.787 22.2355 144.035 22.1435 144.211 21.9595C144.395 21.7675 144.487 21.5195 144.487 21.2155V20.6395H143.743C143.367 20.6395 143.079 20.7195 142.879 20.8795C142.679 21.0315 142.579 21.2275 142.579 21.4675C142.579 21.9795 142.875 22.2355 143.467 22.2355ZM144.547 22.5235C144.267 23.0435 143.739 23.3035 142.963 23.3035C142.387 23.3035 141.927 23.1355 141.583 22.7995C141.247 22.4635 141.079 22.0395 141.079 21.5275C141.079 20.9515 141.295 20.4995 141.727 20.1715C142.159 19.8435 142.783 19.6795 143.599 19.6795H144.487V19.3075C144.487 18.9715 144.399 18.7155 144.223 18.5395C144.047 18.3635 143.747 18.2755 143.323 18.2755C142.675 18.2755 142.079 18.4555 141.535 18.8155V17.4835C141.991 17.2035 142.647 17.0635 143.503 17.0635C145.151 17.0635 145.975 17.8315 145.975 19.3675V23.2555H144.547V22.5235ZM156.089 23.2555H154.637V19.5235C154.637 18.7075 154.325 18.2995 153.701 18.2995C153.389 18.2995 153.109 18.4355 152.861 18.7075C152.621 18.9795 152.501 19.4075 152.501 19.9915V23.2555H151.049V19.5235C151.049 18.7075 150.737 18.2995 150.113 18.2995C149.801 18.2995 149.521 18.4355 149.273 18.7075C149.025 18.9795 148.901 19.4075 148.901 19.9915V23.2555H147.461V17.1715H148.901V18.1315C149.245 17.4435 149.817 17.0995 150.617 17.0995C151.505 17.0995 152.081 17.4835 152.345 18.2515C152.505 17.8835 152.745 17.5995 153.065 17.3995C153.385 17.1995 153.749 17.0995 154.157 17.0995C154.773 17.0995 155.249 17.2875 155.585 17.6635C155.921 18.0315 156.089 18.5595 156.089 19.2475V23.2555ZM162.219 22.9195C161.795 23.1835 161.183 23.3155 160.383 23.3155C159.415 23.3155 158.651 23.0275 158.091 22.4515C157.531 21.8755 157.251 21.1315 157.251 20.2195C157.251 19.2515 157.515 18.4915 158.043 17.9395C158.571 17.3875 159.231 17.1115 160.023 17.1115C160.815 17.1115 161.443 17.3515 161.907 17.8315C162.371 18.3115 162.603 19.0115 162.603 19.9315C162.603 20.1555 162.575 20.4435 162.519 20.7955H158.703C158.807 21.2355 159.023 21.5715 159.351 21.8035C159.687 22.0355 160.103 22.1515 160.599 22.1515C161.239 22.1515 161.779 21.9915 162.219 21.6715V22.9195ZM160.059 18.2395C159.715 18.2395 159.415 18.3675 159.159 18.6235C158.911 18.8715 158.751 19.2355 158.679 19.7155H161.235V19.5355C161.219 19.1435 161.111 18.8315 160.911 18.5995C160.719 18.3595 160.435 18.2395 160.059 18.2395Z" fill="black"/>
<path d="M222.527 20.5075H221.471V23.2555H219.959V15.1675H222.491C223.403 15.1675 224.131 15.4155 224.675 15.9115C225.227 16.4075 225.503 17.0435 225.503 17.8195C225.503 18.6435 225.219 19.2995 224.651 19.7875C224.091 20.2675 223.383 20.5075 222.527 20.5075ZM222.359 16.4035H221.471V19.2835H222.323C222.875 19.2835 223.287 19.1515 223.559 18.8875C223.831 18.6235 223.967 18.2675 223.967 17.8195C223.967 17.3795 223.831 17.0355 223.559 16.7875C223.287 16.5315 222.887 16.4035 222.359 16.4035ZM231.847 23.2555H230.407V19.5235C230.407 19.1395 230.307 18.8395 230.107 18.6235C229.915 18.4075 229.663 18.2995 229.351 18.2995C229.007 18.2995 228.695 18.4315 228.415 18.6955C228.143 18.9595 228.007 19.3915 228.007 19.9915V23.2555H226.567V14.7715H228.007V18.2035C228.335 17.4675 228.955 17.0995 229.867 17.0995C230.459 17.0995 230.935 17.2875 231.295 17.6635C231.663 18.0315 231.847 18.5675 231.847 19.2715V23.2555ZM238.896 20.1955C238.896 21.1155 238.636 21.8715 238.116 22.4635C237.604 23.0555 236.884 23.3515 235.956 23.3515C235.036 23.3515 234.316 23.0635 233.796 22.4875C233.284 21.9115 233.028 21.1755 233.028 20.2795C233.028 19.3515 233.296 18.5875 233.832 17.9875C234.368 17.3795 235.076 17.0755 235.956 17.0755C236.892 17.0755 237.616 17.3715 238.128 17.9635C238.64 18.5475 238.896 19.2915 238.896 20.1955ZM234.54 20.2315C234.54 20.7915 234.664 21.2595 234.912 21.6355C235.16 22.0115 235.512 22.1995 235.968 22.1995C236.44 22.1995 236.796 22.0155 237.036 21.6475C237.276 21.2795 237.396 20.8115 237.396 20.2435C237.396 19.6595 237.28 19.1835 237.048 18.8155C236.816 18.4395 236.452 18.2515 235.956 18.2515C235.5 18.2515 235.148 18.4395 234.9 18.8155C234.66 19.1915 234.54 19.6635 234.54 20.2315ZM245.417 23.2555H243.977V19.5115C243.977 19.1115 243.881 18.8115 243.689 18.6115C243.497 18.4035 243.237 18.2995 242.909 18.2995C242.533 18.2995 242.217 18.4475 241.961 18.7435C241.705 19.0315 241.577 19.4475 241.577 19.9915V23.2555H240.137V17.1715H241.577V18.2155C241.921 17.4715 242.545 17.0995 243.449 17.0995C244.057 17.0995 244.537 17.2835 244.889 17.6515C245.241 18.0195 245.417 18.5395 245.417 19.2115V23.2555ZM251.566 22.9195C251.142 23.1835 250.53 23.3155 249.73 23.3155C248.762 23.3155 247.998 23.0275 247.438 22.4515C246.878 21.8755 246.598 21.1315 246.598 20.2195C246.598 19.2515 246.862 18.4915 247.39 17.9395C247.918 17.3875 248.578 17.1115 249.37 17.1115C250.162 17.1115 250.79 17.3515 251.254 17.8315C251.718 18.3115 251.95 19.0115 251.95 19.9315C251.95 20.1555 251.922 20.4435 251.866 20.7955H248.05C248.154 21.2355 248.37 21.5715 248.698 21.8035C249.034 22.0355 249.45 22.1515 249.946 22.1515C250.586 22.1515 251.126 21.9915 251.566 21.6715V22.9195ZM249.406 18.2395C249.062 18.2395 248.762 18.3675 248.506 18.6235C248.258 18.8715 248.098 19.2355 248.026 19.7155H250.582V19.5355C250.566 19.1435 250.458 18.8315 250.258 18.5995C250.066 18.3595 249.782 18.2395 249.406 18.2395ZM257.74 23.2555H256.228V15.1675H257.944L259.888 18.5395C260.208 19.0915 260.492 19.6075 260.74 20.0875C260.996 20.5595 261.168 20.8955 261.256 21.0955L261.388 21.3955C261.324 20.7315 261.292 19.7795 261.292 18.5395V15.1675H262.816V23.2555H261.088L259.12 19.8955C258.808 19.3675 258.524 18.8635 258.268 18.3835C258.02 17.8955 257.848 17.5435 257.752 17.3275L257.608 16.9915C257.696 17.7515 257.74 18.7155 257.74 19.8835V23.2555ZM269.65 23.2555H268.198V22.2595C267.878 22.9635 267.254 23.3155 266.326 23.3155C265.71 23.3155 265.23 23.1395 264.886 22.7875C264.542 22.4355 264.37 21.9355 264.37 21.2875V17.1715H265.81V20.9515C265.81 21.3355 265.902 21.6275 266.086 21.8275C266.278 22.0275 266.538 22.1275 266.866 22.1275C267.282 22.1275 267.606 21.9875 267.838 21.7075C268.078 21.4275 268.198 21.0035 268.198 20.4355V17.1715H269.65V23.2555ZM279.843 23.2555H278.391V19.5235C278.391 18.7075 278.079 18.2995 277.455 18.2995C277.143 18.2995 276.863 18.4355 276.615 18.7075C276.375 18.9795 276.255 19.4075 276.255 19.9915V23.2555H274.803V19.5235C274.803 18.7075 274.491 18.2995 273.867 18.2995C273.555 18.2995 273.275 18.4355 273.027 18.7075C272.779 18.9795 272.655 19.4075 272.655 19.9915V23.2555H271.215V17.1715H272.655V18.1315C272.999 17.4435 273.571 17.0995 274.371 17.0995C275.259 17.0995 275.835 17.4835 276.099 18.2515C276.259 17.8835 276.499 17.5995 276.819 17.3995C277.139 17.1995 277.503 17.0995 277.911 17.0995C278.527 17.0995 279.003 17.2875 279.339 17.6635C279.675 18.0315 279.843 18.5595 279.843 19.2475V23.2555ZM282.792 23.2555H281.34V14.7715H282.792V18.0955C283.216 17.4235 283.824 17.0875 284.616 17.0875C285.376 17.0875 286 17.3715 286.488 17.9395C286.984 18.4995 287.232 19.2595 287.232 20.2195C287.232 21.0835 286.996 21.8195 286.524 22.4275C286.06 23.0355 285.428 23.3395 284.628 23.3395C283.828 23.3395 283.216 22.9995 282.792 22.3195V23.2555ZM282.792 20.1595C282.792 20.7915 282.936 21.2755 283.224 21.6115C283.512 21.9395 283.872 22.1035 284.304 22.1035C284.72 22.1035 285.068 21.9315 285.348 21.5875C285.628 21.2435 285.768 20.7955 285.768 20.2435C285.768 19.6355 285.624 19.1635 285.336 18.8275C285.056 18.4835 284.708 18.3115 284.292 18.3115C283.9 18.3115 283.552 18.4675 283.248 18.7795C282.944 19.0835 282.792 19.5435 282.792 20.1595ZM293.109 22.9195C292.685 23.1835 292.073 23.3155 291.273 23.3155C290.305 23.3155 289.541 23.0275 288.981 22.4515C288.421 21.8755 288.141 21.1315 288.141 20.2195C288.141 19.2515 288.405 18.4915 288.933 17.9395C289.461 17.3875 290.121 17.1115 290.913 17.1115C291.705 17.1115 292.333 17.3515 292.797 17.8315C293.261 18.3115 293.493 19.0115 293.493 19.9315C293.493 20.1555 293.465 20.4435 293.409 20.7955H289.593C289.697 21.2355 289.913 21.5715 290.241 21.8035C290.577 22.0355 290.993 22.1515 291.489 22.1515C292.129 22.1515 292.669 21.9915 293.109 21.6715V22.9195ZM290.949 18.2395C290.605 18.2395 290.305 18.3675 290.049 18.6235C289.801 18.8715 289.641 19.2355 289.569 19.7155H292.125V19.5355C292.109 19.1435 292.001 18.8315 291.801 18.5995C291.609 18.3595 291.325 18.2395 290.949 18.2395ZM296.257 23.2555H294.805L294.817 17.1715H296.257V18.2515C296.537 17.4995 297.049 17.1235 297.793 17.1235C297.961 17.1235 298.097 17.1355 298.201 17.1595V18.5515C298.017 18.4715 297.813 18.4315 297.589 18.4315C297.197 18.4315 296.877 18.5915 296.629 18.9115C296.381 19.2315 296.257 19.6315 296.257 20.1115V23.2555Z" fill="black"/>
<path d="M378.408 21.252H377.352V24H375.84V15.912H378.372C379.284 15.912 380.012 16.16 380.556 16.656C381.108 17.152 381.384 17.788 381.384 18.564C381.384 19.388 381.1 20.044 380.532 20.532C379.972 21.012 379.264 21.252 378.408 21.252ZM378.24 17.148H377.352V20.028H378.204C378.756 20.028 379.168 19.896 379.44 19.632C379.712 19.368 379.848 19.012 379.848 18.564C379.848 18.124 379.712 17.78 379.44 17.532C379.168 17.276 378.768 17.148 378.24 17.148ZM383.888 24H382.436L382.448 17.916H383.888V18.996C384.168 18.244 384.68 17.868 385.424 17.868C385.592 17.868 385.728 17.88 385.832 17.904V19.296C385.648 19.216 385.444 19.176 385.22 19.176C384.828 19.176 384.508 19.336 384.26 19.656C384.012 19.976 383.888 20.376 383.888 20.856V24ZM392.222 20.94C392.222 21.86 391.962 22.616 391.442 23.208C390.93 23.8 390.21 24.096 389.282 24.096C388.362 24.096 387.642 23.808 387.122 23.232C386.61 22.656 386.354 21.92 386.354 21.024C386.354 20.096 386.622 19.332 387.158 18.732C387.694 18.124 388.402 17.82 389.282 17.82C390.218 17.82 390.942 18.116 391.454 18.708C391.966 19.292 392.222 20.036 392.222 20.94ZM387.866 20.976C387.866 21.536 387.99 22.004 388.238 22.38C388.486 22.756 388.838 22.944 389.294 22.944C389.766 22.944 390.122 22.76 390.362 22.392C390.602 22.024 390.722 21.556 390.722 20.988C390.722 20.404 390.606 19.928 390.374 19.56C390.142 19.184 389.778 18.996 389.282 18.996C388.826 18.996 388.474 19.184 388.226 19.56C387.986 19.936 387.866 20.408 387.866 20.976ZM394.904 26.292H393.464V17.916H394.904V18.852C395.336 18.172 395.956 17.832 396.764 17.832C397.556 17.832 398.184 18.116 398.648 18.684C399.12 19.252 399.356 20 399.356 20.928C399.356 21.84 399.12 22.596 398.648 23.196C398.184 23.788 397.552 24.084 396.752 24.084C395.936 24.084 395.32 23.752 394.904 23.088V26.292ZM395.36 19.524C395.056 19.836 394.904 20.3 394.904 20.916C394.904 21.532 395.052 22.008 395.348 22.344C395.644 22.68 396 22.848 396.416 22.848C396.848 22.848 397.2 22.684 397.472 22.356C397.744 22.02 397.88 21.552 397.88 20.952C397.88 20.352 397.744 19.888 397.472 19.56C397.2 19.224 396.856 19.056 396.44 19.056C396.024 19.056 395.664 19.212 395.36 19.524ZM405.233 23.664C404.809 23.928 404.197 24.06 403.397 24.06C402.429 24.06 401.665 23.772 401.105 23.196C400.545 22.62 400.265 21.876 400.265 20.964C400.265 19.996 400.529 19.236 401.057 18.684C401.585 18.132 402.245 17.856 403.037 17.856C403.829 17.856 404.457 18.096 404.921 18.576C405.385 19.056 405.617 19.756 405.617 20.676C405.617 20.9 405.589 21.188 405.533 21.54H401.717C401.821 21.98 402.037 22.316 402.365 22.548C402.701 22.78 403.117 22.896 403.613 22.896C404.253 22.896 404.793 22.736 405.233 22.416V23.664ZM403.073 18.984C402.729 18.984 402.429 19.112 402.173 19.368C401.925 19.616 401.765 19.98 401.693 20.46H404.249V20.28C404.233 19.888 404.125 19.576 403.925 19.344C403.733 19.104 403.449 18.984 403.073 18.984ZM408.38 24H406.928L406.94 17.916H408.38V18.996C408.66 18.244 409.172 17.868 409.916 17.868C410.084 17.868 410.22 17.88 410.324 17.904V19.296C410.14 19.216 409.936 19.176 409.712 19.176C409.32 19.176 409 19.336 408.752 19.656C408.504 19.976 408.38 20.376 408.38 20.856V24ZM414.531 23.856C414.251 23.992 413.891 24.06 413.451 24.06C412.139 24.06 411.483 23.396 411.483 22.068V18.996H410.571V17.916H411.483V16.452H412.923V17.916H414.435V18.996H412.923V22.092C412.923 22.348 412.991 22.544 413.127 22.68C413.263 22.808 413.451 22.872 413.691 22.872C413.995 22.872 414.275 22.788 414.531 22.62V23.856ZM418.838 23.832C418.23 25.456 417.302 26.268 416.054 26.268C415.822 26.268 415.622 26.248 415.454 26.208V25.02C415.582 25.052 415.718 25.068 415.862 25.068C416.59 25.068 417.106 24.672 417.41 23.88L415.01 17.916H416.606L417.314 19.86C417.53 20.436 417.702 20.92 417.83 21.312C417.966 21.704 418.05 21.952 418.082 22.056L418.118 22.224C418.198 21.944 418.454 21.156 418.886 19.86L419.522 17.916H421.034L418.838 23.832ZM429.755 21.732C429.755 22.452 429.495 23.028 428.975 23.46C428.463 23.884 427.787 24.096 426.947 24.096C426.035 24.096 425.279 23.924 424.679 23.58V22.032C425.367 22.528 426.119 22.776 426.935 22.776C427.303 22.776 427.599 22.688 427.823 22.512C428.047 22.328 428.159 22.084 428.159 21.78C428.159 21.636 428.131 21.508 428.075 21.396C428.019 21.284 427.903 21.172 427.727 21.06C427.559 20.948 427.427 20.868 427.331 20.82C427.243 20.772 427.055 20.684 426.767 20.556C426.687 20.516 426.627 20.488 426.587 20.472C426.291 20.336 426.051 20.216 425.867 20.112C425.683 20 425.483 19.852 425.267 19.668C425.051 19.484 424.887 19.264 424.775 19.008C424.671 18.752 424.619 18.46 424.619 18.132C424.619 17.444 424.871 16.892 425.375 16.476C425.887 16.06 426.563 15.852 427.403 15.852C428.163 15.852 428.819 15.984 429.371 16.248V17.712C428.771 17.352 428.131 17.172 427.451 17.172C427.075 17.172 426.779 17.256 426.563 17.424C426.355 17.592 426.251 17.808 426.251 18.072C426.251 18.336 426.363 18.556 426.587 18.732C426.819 18.9 427.163 19.088 427.619 19.296C427.939 19.44 428.199 19.568 428.399 19.68C428.599 19.784 428.815 19.932 429.047 20.124C429.287 20.316 429.463 20.548 429.575 20.82C429.695 21.084 429.755 21.388 429.755 21.732ZM434.382 23.856C434.102 23.992 433.742 24.06 433.302 24.06C431.99 24.06 431.334 23.396 431.334 22.068V18.996H430.422V17.916H431.334V16.452H432.774V17.916H434.286V18.996H432.774V22.092C432.774 22.348 432.842 22.544 432.978 22.68C433.114 22.808 433.302 22.872 433.542 22.872C433.846 22.872 434.126 22.788 434.382 22.62V23.856ZM437.657 22.98C437.977 22.98 438.225 22.888 438.401 22.704C438.585 22.512 438.677 22.264 438.677 21.96V21.384H437.933C437.557 21.384 437.269 21.464 437.069 21.624C436.869 21.776 436.769 21.972 436.769 22.212C436.769 22.724 437.065 22.98 437.657 22.98ZM438.737 23.268C438.457 23.788 437.929 24.048 437.153 24.048C436.577 24.048 436.117 23.88 435.773 23.544C435.437 23.208 435.269 22.784 435.269 22.272C435.269 21.696 435.485 21.244 435.917 20.916C436.349 20.588 436.973 20.424 437.789 20.424H438.677V20.052C438.677 19.716 438.589 19.46 438.413 19.284C438.237 19.108 437.937 19.02 437.513 19.02C436.865 19.02 436.269 19.2 435.725 19.56V18.228C436.181 17.948 436.837 17.808 437.693 17.808C439.341 17.808 440.165 18.576 440.165 20.112V24H438.737V23.268ZM445.011 23.856C444.731 23.992 444.371 24.06 443.931 24.06C442.619 24.06 441.963 23.396 441.963 22.068V18.996H441.051V17.916H441.963V16.452H443.403V17.916H444.915V18.996H443.403V22.092C443.403 22.348 443.471 22.544 443.607 22.68C443.743 22.808 443.931 22.872 444.171 22.872C444.475 22.872 444.755 22.788 445.011 22.62V23.856ZM451.418 24H449.966V23.004C449.646 23.708 449.022 24.06 448.094 24.06C447.478 24.06 446.998 23.884 446.654 23.532C446.31 23.18 446.138 22.68 446.138 22.032V17.916H447.578V21.696C447.578 22.08 447.67 22.372 447.854 22.572C448.046 22.772 448.306 22.872 448.634 22.872C449.05 22.872 449.374 22.732 449.606 22.452C449.846 22.172 449.966 21.748 449.966 21.18V17.916H451.418V24ZM456.955 22.248C456.955 22.816 456.751 23.26 456.343 23.58C455.935 23.9 455.391 24.06 454.711 24.06C453.959 24.06 453.351 23.936 452.887 23.688V22.368C453.423 22.728 454.003 22.908 454.627 22.908C454.891 22.908 455.095 22.86 455.239 22.764C455.391 22.66 455.467 22.52 455.467 22.344C455.467 22.24 455.443 22.148 455.395 22.068C455.347 21.98 455.255 21.896 455.119 21.816C454.983 21.736 454.875 21.68 454.795 21.648C454.723 21.608 454.575 21.54 454.351 21.444C454.327 21.436 454.307 21.428 454.291 21.42C454.283 21.412 454.267 21.404 454.243 21.396C454.219 21.388 454.199 21.38 454.183 21.372C453.295 20.972 452.851 20.396 452.851 19.644C452.851 19.084 453.063 18.644 453.487 18.324C453.911 18.004 454.443 17.844 455.083 17.844C455.699 17.844 456.211 17.932 456.619 18.108V19.38C456.219 19.14 455.719 19.02 455.119 19.02C454.871 19.02 454.675 19.076 454.531 19.188C454.395 19.292 454.327 19.428 454.327 19.596C454.327 19.66 454.335 19.72 454.351 19.776C454.375 19.832 454.411 19.888 454.459 19.944C454.515 19.992 454.567 20.036 454.615 20.076C454.663 20.116 454.731 20.16 454.819 20.208C454.907 20.248 454.983 20.284 455.047 20.316C455.111 20.348 455.199 20.388 455.311 20.436C455.423 20.484 455.511 20.524 455.575 20.556C455.999 20.764 456.335 20.996 456.583 21.252C456.831 21.508 456.955 21.84 456.955 22.248Z" fill="black"/>
<path d="M533.796 20.7823L533.664 21.1903H536.256L536.124 20.7823C535.82 19.8383 535.572 19.0583 535.38 18.4423C535.188 17.8183 535.072 17.4303 535.032 17.2783L534.972 17.0503C534.884 17.4263 534.492 18.6703 533.796 20.7823ZM532.68 24.2023H531.372L534.168 16.1143H535.788L538.548 24.2023H537.228L536.592 22.2223H533.328L532.68 24.2023ZM544.046 23.9623C543.654 24.2023 543.154 24.3223 542.546 24.3223C541.594 24.3223 540.834 24.0223 540.266 23.4223C539.698 22.8223 539.414 22.0743 539.414 21.1783C539.414 20.3063 539.698 19.5623 540.266 18.9463C540.842 18.3223 541.618 18.0103 542.594 18.0103C543.122 18.0103 543.606 18.1223 544.046 18.3463V19.4263C543.654 19.1783 543.21 19.0543 542.714 19.0543C542.082 19.0543 541.574 19.2543 541.19 19.6543C540.814 20.0543 540.626 20.5663 540.626 21.1903C540.642 21.8063 540.83 22.3143 541.19 22.7143C541.55 23.1063 542.054 23.3023 542.702 23.3023C543.182 23.3023 543.63 23.1703 544.046 22.9063V23.9623ZM548.59 24.0463C548.326 24.1903 548.002 24.2623 547.618 24.2623C546.362 24.2623 545.734 23.6263 545.734 22.3543V19.0303H544.786V18.1183H545.734V16.6303H546.922V18.1183H548.518V19.0303H546.922V22.3783C546.922 22.9623 547.202 23.2543 547.762 23.2543C548.09 23.2543 548.366 23.1663 548.59 22.9903V24.0463ZM551.123 24.2023H549.935V18.1183H551.123V24.2023ZM551.267 16.2583C551.267 16.4583 551.195 16.6303 551.051 16.7743C550.907 16.9183 550.731 16.9903 550.523 16.9903C550.315 16.9903 550.139 16.9223 549.995 16.7863C549.859 16.6423 549.791 16.4663 549.791 16.2583C549.791 16.0503 549.859 15.8743 549.995 15.7303C550.139 15.5863 550.315 15.5143 550.523 15.5143C550.731 15.5143 550.907 15.5863 551.051 15.7303C551.195 15.8743 551.267 16.0503 551.267 16.2583ZM557.52 18.9223C558.024 19.5063 558.276 20.2543 558.276 21.1663C558.276 22.0783 558.016 22.8303 557.496 23.4223C556.984 24.0143 556.276 24.3103 555.372 24.3103C554.476 24.3103 553.772 24.0183 553.26 23.4343C552.748 22.8503 552.492 22.1103 552.492 21.2143C552.492 20.3023 552.756 19.5463 553.284 18.9463C553.812 18.3383 554.508 18.0343 555.372 18.0343C556.3 18.0343 557.016 18.3303 557.52 18.9223ZM553.716 21.1783C553.716 21.7783 553.864 22.2863 554.16 22.7023C554.456 23.1103 554.86 23.3143 555.372 23.3143C555.916 23.3143 556.328 23.1143 556.608 22.7143C556.896 22.3143 557.04 21.8063 557.04 21.1903C557.04 20.5583 556.904 20.0423 556.632 19.6423C556.36 19.2343 555.936 19.0303 555.36 19.0303C554.84 19.0303 554.436 19.2383 554.148 19.6543C553.86 20.0623 553.716 20.5703 553.716 21.1783ZM564.629 24.2023H563.453V20.3623C563.453 19.9383 563.345 19.6143 563.129 19.3903C562.921 19.1663 562.641 19.0543 562.289 19.0543C561.873 19.0543 561.517 19.2183 561.221 19.5463C560.925 19.8663 560.777 20.3183 560.777 20.9023V24.2023H559.601V18.1183H560.777V19.1623C561.137 18.4103 561.769 18.0343 562.673 18.0343C563.273 18.0343 563.749 18.2183 564.101 18.5863C564.453 18.9543 564.629 19.4543 564.629 20.0863V24.2023ZM570.015 22.5223C570.015 23.0663 569.823 23.4943 569.439 23.8063C569.055 24.1103 568.535 24.2623 567.879 24.2623C567.159 24.2623 566.559 24.1423 566.079 23.9023V22.7863C566.639 23.1303 567.219 23.3023 567.819 23.3023C568.131 23.3023 568.371 23.2383 568.539 23.1103C568.715 22.9823 568.803 22.8143 568.803 22.6063C568.803 22.4303 568.735 22.2743 568.599 22.1383C568.463 21.9943 568.323 21.8903 568.179 21.8263C568.043 21.7543 567.807 21.6463 567.471 21.5023C566.519 21.1103 566.043 20.5343 566.043 19.7743C566.043 19.2383 566.243 18.8183 566.643 18.5143C567.043 18.2103 567.543 18.0583 568.143 18.0583C568.799 18.0583 569.311 18.1463 569.679 18.3223V19.3903C569.287 19.1583 568.783 19.0423 568.167 19.0423C567.887 19.0423 567.663 19.1063 567.495 19.2343C567.335 19.3623 567.255 19.5303 567.255 19.7383C567.255 19.7943 567.259 19.8503 567.267 19.9063C567.283 19.9543 567.307 20.0063 567.339 20.0623C567.371 20.1103 567.399 20.1543 567.423 20.1943C567.455 20.2263 567.503 20.2623 567.567 20.3023C567.631 20.3423 567.679 20.3783 567.711 20.4103C567.751 20.4343 567.811 20.4663 567.891 20.5063C567.979 20.5463 568.043 20.5783 568.083 20.6023C568.123 20.6183 568.191 20.6503 568.287 20.6983C568.391 20.7383 568.463 20.7663 568.503 20.7823C568.975 20.9903 569.343 21.2263 569.607 21.4903C569.879 21.7463 570.015 22.0903 570.015 22.5223Z" fill="black"/>
</svg>
