<svg width="16" height="15" viewBox="0 0 16 15" fill="none" xmlns="http://www.w3.org/2000/svg">
<g clip-path="url(#clip0_1_15842)">
<path d="M3.22461 7.5L6.97461 3.75L10.7246 7.5L6.97461 11.25L3.22461 7.5Z" fill="#204A8C"/>
<path d="M6.97461 1.875C8.08713 1.875 9.17467 2.2049 10.0997 2.82298C11.0247 3.44107 11.7457 4.31957 12.1714 5.34741C12.5972 6.37524 12.7086 7.50624 12.4915 8.59738C12.2745 9.68853 11.7388 10.6908 10.9521 11.4775C10.1654 12.2641 9.16314 12.7999 8.07199 13.0169C6.98085 13.234 5.84985 13.1226 4.82202 12.6968C3.79418 12.2711 2.91568 11.5501 2.2976 10.6251C1.67951 9.70006 1.34961 8.61252 1.34961 7.5C1.35135 6.00869 1.94454 4.57896 2.99905 3.52444C4.05357 2.46993 5.4833 1.87674 6.97461 1.875ZM6.97461 0.9375C5.67667 0.9375 4.40788 1.32238 3.32868 2.04348C2.24948 2.76458 1.40835 3.7895 0.911653 4.98864C0.414953 6.18778 0.284993 7.50728 0.538209 8.78028C0.791424 10.0533 1.41644 11.2226 2.33422 12.1404C3.25201 13.0582 4.42133 13.6832 5.69433 13.9364C6.96733 14.1896 8.28683 14.0597 9.48597 13.563C10.6851 13.0663 11.71 12.2251 12.4311 11.1459C13.1522 10.0667 13.5371 8.79794 13.5371 7.5C13.5371 5.75952 12.8457 4.09032 11.615 2.85961C10.3843 1.6289 8.7151 0.9375 6.97461 0.9375Z" fill="#204A8C"/>
</g>
<defs>
<clipPath id="clip0_1_15842">
<rect width="15.875" height="15" fill="white"/>
</clipPath>
</defs>
</svg>
