<svg width="16" height="16" viewBox="0 0 16 16" fill="none" xmlns="http://www.w3.org/2000/svg">
<path fill-rule="evenodd" clip-rule="evenodd" d="M7.64599 11.3541C7.69244 11.4006 7.74761 11.4376 7.80836 11.4628C7.8691 11.488 7.93422 11.501 7.99999 11.501C8.06576 11.501 8.13088 11.488 8.19162 11.4628C8.25237 11.4376 8.30754 11.4006 8.35399 11.3541L14.354 5.35408C14.4479 5.2602 14.5006 5.13286 14.5006 5.00008C14.5006 4.86731 14.4479 4.73997 14.354 4.64608C14.2601 4.5522 14.1328 4.49945 14 4.49945C13.8672 4.49945 13.7399 4.5522 13.646 4.64608L7.99999 10.2931L2.35399 4.64608C2.2601 4.5522 2.13277 4.49945 1.99999 4.49945C1.86721 4.49945 1.73988 4.5522 1.64599 4.64608C1.5521 4.73997 1.49936 4.86731 1.49936 5.00008C1.49936 5.13286 1.5521 5.2602 1.64599 5.35408L7.64599 11.3541Z" fill="#1F2937"/>
</svg>
