<svg width="31" height="27" viewBox="0 0 31 27" fill="none" xmlns="http://www.w3.org/2000/svg">
<rect width="31" height="27" fill="#F9FAFB"/>
<path d="M19.1158 19.9999C18.5882 19.9999 17.9772 19.8258 17.2753 19.4781C16.4921 19.0902 16.1145 19.1038 15.8648 19.1162C15.6639 19.1225 15.4543 19.1326 15.2474 18.9167C15.1748 18.8409 14.8449 18.4282 15.4933 17.7514C15.8166 17.4139 16.2602 17.3167 16.6453 17.311L14.3997 14.967C14.2507 14.8121 14.1684 14.6046 14.1689 14.3847C14.1695 14.1647 14.2518 13.9584 14.4013 13.8029C14.5508 13.6474 14.7485 13.5609 14.9592 13.5604H14.9603C15.1704 13.5604 15.3681 13.6457 15.5171 13.8018L16.4498 14.7759C16.4872 14.6979 16.537 14.6261 16.5977 14.5633C16.8116 14.3394 17.1182 14.2705 17.3896 14.3587C17.4275 14.2467 17.4898 14.141 17.5753 14.0517C17.8694 13.7441 18.3396 13.7305 18.6483 14.0093C18.6852 13.9312 18.735 13.8589 18.7967 13.7944C19.1049 13.4727 19.6049 13.4722 19.9125 13.7927L21.375 15.3192C22.293 16.277 22.1907 17.6655 21.1253 18.7781C21.1231 18.7804 21.1209 18.7827 21.1182 18.7855L20.5132 19.4164C20.1362 19.8054 19.6726 19.9999 19.1158 19.9999ZM16.0116 18.5475C16.3074 18.5475 16.7618 18.5984 17.5076 18.967C19.1244 19.7681 19.7798 19.3791 20.133 19.0156L20.7429 18.379C20.7445 18.3767 20.7466 18.375 20.7483 18.3733C21.3939 17.6915 21.8364 16.5998 20.9969 15.7235L19.5301 14.1924C19.4343 14.0924 19.2772 14.0935 19.1802 14.1941C19.0838 14.2948 19.0827 14.4582 19.1781 14.5588L19.1786 14.5594L19.5442 14.941C19.5973 14.9964 19.6233 15.0688 19.6233 15.1411C19.6233 15.2135 19.5967 15.2859 19.5442 15.3413C19.4386 15.4515 19.2669 15.4515 19.1613 15.3413L18.3082 14.4508C18.2123 14.3508 18.0552 14.3513 17.9583 14.4525C17.8613 14.5537 17.8608 14.7171 17.9572 14.8177L18.5665 15.4538C18.6196 15.5092 18.6456 15.5816 18.6456 15.6539C18.6456 15.7263 18.6191 15.7987 18.5665 15.8541C18.4609 15.9643 18.2892 15.9643 18.1836 15.8541L17.3305 14.9636C17.2346 14.8635 17.0781 14.8647 16.9806 14.9653C16.9335 15.0145 16.9075 15.0801 16.9075 15.149C16.9075 15.2175 16.9329 15.2819 16.979 15.33L17.5883 15.966C17.6414 16.0214 17.6674 16.0938 17.6674 16.1661C17.6674 16.2385 17.6409 16.3109 17.5883 16.3663C17.4827 16.4765 17.311 16.4765 17.2054 16.3663L15.1336 14.2043C15.087 14.1557 15.0253 14.1286 14.9597 14.1286C14.8937 14.1291 14.8314 14.1563 14.7843 14.2055C14.7371 14.2546 14.7111 14.3197 14.7106 14.3886C14.7106 14.457 14.736 14.5215 14.7826 14.5701L17.5856 17.4959C17.6734 17.5869 17.6902 17.7288 17.6268 17.8396C17.5634 17.9504 17.4351 18.0025 17.3175 17.9668C17.3072 17.964 16.3371 17.6734 15.8757 18.154C15.666 18.3733 15.6352 18.5079 15.6406 18.5379C15.6633 18.5543 15.6688 18.5605 15.8432 18.5531C15.8935 18.5497 15.9493 18.5475 16.0116 18.5475Z" fill="#204A8C"/>
<path d="M19.0204 10.9576H10.8957C9.85038 10.9576 9 10.0699 9 8.97879C9 7.88763 9.85038 7 10.8957 7H19.0204C20.0657 7 20.9161 7.88763 20.9161 8.97879C20.9161 10.0699 20.0657 10.9576 19.0204 10.9576ZM10.8957 7.56537C10.1494 7.56537 9.54164 8.19914 9.54164 8.97879C9.54164 9.75843 10.1494 10.3922 10.8957 10.3922H19.0204C19.7668 10.3922 20.3745 9.75843 20.3745 8.97879C20.3745 8.19914 19.7668 7.56537 19.0204 7.56537H10.8957Z" fill="#204A8C"/>
<path d="M11.4375 9.82672C10.9895 9.82672 10.625 9.44622 10.625 8.97867C10.625 8.51111 10.9895 8.13062 11.4375 8.13062C11.8854 8.13062 12.2499 8.51111 12.2499 8.97867C12.2499 9.44622 11.8854 9.82672 11.4375 9.82672ZM11.4375 8.69598C11.288 8.69598 11.1666 8.82319 11.1666 8.97867C11.1666 9.13414 11.288 9.26135 11.4375 9.26135C11.587 9.26135 11.7083 9.13414 11.7083 8.97867C11.7083 8.82319 11.587 8.69598 11.4375 8.69598Z" fill="#204A8C"/>
<path d="M14.1455 9.82672C13.6975 9.82672 13.333 9.44622 13.333 8.97867C13.333 8.51111 13.6975 8.13062 14.1455 8.13062C14.5934 8.13062 14.9579 8.51111 14.9579 8.97867C14.9579 9.44622 14.5934 9.82672 14.1455 9.82672ZM14.1455 8.69598C13.996 8.69598 13.8746 8.82319 13.8746 8.97867C13.8746 9.13414 13.996 9.26135 14.1455 9.26135C14.295 9.26135 14.4163 9.13414 14.4163 8.97867C14.4163 8.82319 14.295 8.69598 14.1455 8.69598Z" fill="#204A8C"/>
<path d="M13.0623 14.3497H10.8957C9.85038 14.3497 9 13.462 9 12.3709C9 11.8428 9.19716 11.3464 9.55572 10.9722C9.91429 10.5979 10.3904 10.3921 10.8957 10.3921H19.0204C20.0657 10.3921 20.9161 11.2797 20.9161 12.3709C20.9161 12.5269 20.7948 12.6536 20.6453 12.6536C20.4958 12.6536 20.3745 12.5269 20.3745 12.3709C20.3745 11.5912 19.7668 10.9575 19.0204 10.9575H10.8957C10.535 10.9575 10.1954 11.105 9.93867 11.3719C9.68193 11.6387 9.54164 11.9943 9.54164 12.3709C9.54164 13.1505 10.1494 13.7843 10.8957 13.7843H13.0623C13.2118 13.7843 13.3331 13.9109 13.3331 14.067C13.3331 14.223 13.2118 14.3497 13.0623 14.3497Z" fill="#204A8C"/>
<path d="M11.4375 13.2191C10.9895 13.2191 10.625 12.8386 10.625 12.371C10.625 11.9034 10.9895 11.5229 11.4375 11.5229C11.8854 11.5229 12.2499 11.9034 12.2499 12.371C12.2499 12.8386 11.8854 13.2191 11.4375 13.2191ZM11.4375 12.0883C11.288 12.0883 11.1666 12.2155 11.1666 12.371C11.1666 12.5265 11.288 12.6537 11.4375 12.6537C11.587 12.6537 11.7083 12.5265 11.7083 12.371C11.7083 12.2155 11.587 12.0883 11.4375 12.0883Z" fill="#204A8C"/>
<path d="M14.1455 13.2191C13.6975 13.2191 13.333 12.8386 13.333 12.371C13.333 11.9034 13.6975 11.5229 14.1455 11.5229C14.5934 11.5229 14.9579 11.9034 14.9579 12.371C14.9579 12.8386 14.5934 13.2191 14.1455 13.2191ZM14.1455 12.0883C13.996 12.0883 13.8746 12.2155 13.8746 12.371C13.8746 12.5265 13.996 12.6537 14.1455 12.6537C14.295 12.6537 14.4163 12.5265 14.4163 12.371C14.4163 12.2155 14.295 12.0883 14.1455 12.0883Z" fill="#204A8C"/>
<path d="M14.1456 17.742H10.8957C9.85038 17.742 9 16.8544 9 15.7632C9 15.2352 9.19716 14.7388 9.55572 14.3645C9.91429 13.9902 10.3904 13.7844 10.8957 13.7844H13.0623C13.2118 13.7844 13.3331 13.9111 13.3331 14.0671C13.3331 14.2231 13.2118 14.3498 13.0623 14.3498H10.8957C10.535 14.3498 10.1954 14.4974 9.93867 14.7642C9.68193 15.0311 9.54164 15.3867 9.54164 15.7632C9.54164 16.5429 10.1494 17.1766 10.8957 17.1766H14.1456C14.2951 17.1766 14.4164 17.3033 14.4164 17.4593C14.4164 17.6154 14.2951 17.742 14.1456 17.742Z" fill="#204A8C"/>
<path d="M11.4375 16.6111C10.9895 16.6111 10.625 16.2306 10.625 15.7631C10.625 15.2955 10.9895 14.915 11.4375 14.915C11.8854 14.915 12.2499 15.2955 12.2499 15.7631C12.2499 16.2306 11.8854 16.6111 11.4375 16.6111ZM11.4375 15.4804C11.288 15.4804 11.1666 15.6076 11.1666 15.7631C11.1666 15.9186 11.288 16.0458 11.4375 16.0458C11.587 16.0458 11.7083 15.9186 11.7083 15.7631C11.7083 15.6076 11.587 15.4804 11.4375 15.4804Z" fill="#204A8C"/>
</svg>
