<svg width="611" height="36" viewBox="0 0 611 36" fill="none" xmlns="http://www.w3.org/2000/svg">
<path d="M7 0H611V36H7V0Z" fill="white"/>
<path d="M7.25 0.25H610.75V35.75H7.25V0.25Z" stroke="black" stroke-opacity="0.13" stroke-width="0.5"/>
<rect x="19.5" y="11.937" width="13.7557" height="13.2023" rx="1.5" fill="#F6F6F6" stroke="#D9D9D9"/>
<path d="M48.6363 18.2461C49.2443 18.2461 49.7363 18.0101 50.1123 17.5381C50.0963 16.8021 49.9603 16.2221 49.7043 15.7981C49.4563 15.3741 49.0803 15.1621 48.5763 15.1621C48.1603 15.1621 47.8283 15.3021 47.5803 15.5821C47.3323 15.8541 47.2083 16.2261 47.2083 16.6981C47.2083 17.1781 47.3363 17.5581 47.5923 17.8381C47.8563 18.1101 48.2043 18.2461 48.6363 18.2461ZM51.2763 17.6461C51.2763 19.0701 50.9723 20.1741 50.3643 20.9581C49.7643 21.7421 48.9003 22.1341 47.7723 22.1341C47.2603 22.1341 46.8003 22.0581 46.3923 21.9061V20.7661C46.8003 20.9501 47.2323 21.0421 47.6883 21.0421C49.0643 21.0421 49.8563 20.2261 50.0643 18.5941C49.6803 19.0341 49.1083 19.2541 48.3483 19.2541C47.6923 19.2541 47.1323 19.0221 46.6683 18.5581C46.2123 18.0941 45.9843 17.4821 45.9843 16.7221C45.9843 15.9621 46.2123 15.3341 46.6683 14.8381C47.1243 14.3421 47.7443 14.0941 48.5283 14.0941C49.4243 14.0941 50.1043 14.4261 50.5683 15.0901C51.0403 15.7461 51.2763 16.5981 51.2763 17.6461ZM53.9009 22.0381H52.6409L55.8449 15.2101H51.9209V14.1901H57.0929V15.2101L53.9009 22.0381ZM59.4087 22.0381H58.1487L61.3527 15.2101H57.4287V14.1901H62.6007V15.2101L59.4087 22.0381ZM68.6726 19.9501C68.6726 20.6141 68.4166 21.1461 67.9046 21.5461C67.3926 21.9461 66.7446 22.1461 65.9606 22.1461C65.1926 22.1461 64.5606 21.9541 64.0646 21.5701C63.5686 21.1781 63.3206 20.6581 63.3206 20.0101C63.3206 19.0821 63.7646 18.4461 64.6526 18.1021C64.2766 17.9421 63.9806 17.7101 63.7646 17.4061C63.5566 17.1021 63.4526 16.7461 63.4526 16.3381C63.4526 15.6341 63.6966 15.0821 64.1846 14.6821C64.6726 14.2821 65.2646 14.0821 65.9606 14.0821C66.6806 14.0821 67.2846 14.2781 67.7726 14.6701C68.2606 15.0541 68.5046 15.6141 68.5046 16.3501C68.5046 17.1421 68.1126 17.7221 67.3286 18.0901C68.2246 18.3941 68.6726 19.0141 68.6726 19.9501ZM64.5206 19.9621C64.5206 20.2981 64.6446 20.5781 64.8926 20.8021C65.1406 21.0261 65.5006 21.1381 65.9726 21.1381C66.4606 21.1381 66.8326 21.0181 67.0886 20.7781C67.3526 20.5381 67.4846 20.2421 67.4846 19.8901C67.4846 19.5381 67.3566 19.2421 67.1006 19.0021C66.8446 18.7621 66.4686 18.6421 65.9726 18.6421C65.4926 18.6501 65.1286 18.7821 64.8806 19.0381C64.6406 19.2861 64.5206 19.5941 64.5206 19.9621ZM64.6526 16.3261C64.6526 16.7341 64.7766 17.0461 65.0246 17.2621C65.2806 17.4701 65.6086 17.5741 66.0086 17.5741C66.3846 17.5741 66.6926 17.4661 66.9326 17.2501C67.1806 17.0261 67.3046 16.7141 67.3046 16.3141C67.3046 15.9621 67.1926 15.6701 66.9686 15.4381C66.7526 15.2061 66.4166 15.0901 65.9606 15.0901C65.5526 15.0901 65.2326 15.2101 65.0006 15.4501C64.7686 15.6901 64.6526 15.9821 64.6526 16.3261ZM75.1776 19.4821C75.1776 20.2821 74.9456 20.9341 74.4816 21.4381C74.0176 21.9421 73.3936 22.1941 72.6096 22.1941C71.6976 22.1941 70.9976 21.8541 70.5096 21.1741C70.0296 20.4941 69.7896 19.5941 69.7896 18.4741C69.7896 17.1621 70.1216 16.0861 70.7856 15.2461C71.4576 14.4061 72.3536 13.9861 73.4736 13.9861C73.8736 13.9861 74.2536 14.0461 74.6136 14.1661V15.3061C74.3016 15.1461 73.9376 15.0661 73.5216 15.0661C72.8176 15.0661 72.2536 15.3181 71.8296 15.8221C71.4056 16.3181 71.1376 16.9581 71.0256 17.7421C71.5456 17.2381 72.1616 16.9861 72.8736 16.9861C73.5856 16.9861 74.1456 17.2141 74.5536 17.6701C74.9696 18.1261 75.1776 18.7301 75.1776 19.4821ZM72.6216 21.1261C73.0376 21.1261 73.3656 20.9781 73.6056 20.6821C73.8456 20.3781 73.9656 19.9821 73.9656 19.4941C73.9656 19.0381 73.8456 18.6781 73.6056 18.4141C73.3656 18.1501 73.0456 18.0181 72.6456 18.0181C72.0216 18.0181 71.4696 18.2781 70.9896 18.7981C71.0216 19.5741 71.1856 20.1581 71.4816 20.5501C71.7856 20.9341 72.1656 21.1261 72.6216 21.1261ZM77.7251 22.0381H76.4651L79.6691 15.2101H75.7451V14.1901H80.9171V15.2101L77.7251 22.0381ZM87.037 19.4821C87.037 20.2821 86.805 20.9341 86.341 21.4381C85.877 21.9421 85.253 22.1941 84.469 22.1941C83.557 22.1941 82.857 21.8541 82.369 21.1741C81.889 20.4941 81.649 19.5941 81.649 18.4741C81.649 17.1621 81.981 16.0861 82.645 15.2461C83.317 14.4061 84.213 13.9861 85.333 13.9861C85.733 13.9861 86.113 14.0461 86.473 14.1661V15.3061C86.161 15.1461 85.797 15.0661 85.381 15.0661C84.677 15.0661 84.113 15.3181 83.689 15.8221C83.265 16.3181 82.997 16.9581 82.885 17.7421C83.405 17.2381 84.021 16.9861 84.733 16.9861C85.445 16.9861 86.005 17.2141 86.413 17.6701C86.829 18.1261 87.037 18.7301 87.037 19.4821ZM84.481 21.1261C84.897 21.1261 85.225 20.9781 85.465 20.6821C85.705 20.3781 85.825 19.9821 85.825 19.4941C85.825 19.0381 85.705 18.6781 85.465 18.4141C85.225 18.1501 84.905 18.0181 84.505 18.0181C83.881 18.0181 83.329 18.2781 82.849 18.7981C82.881 19.5741 83.045 20.1581 83.341 20.5501C83.645 20.9341 84.025 21.1261 84.481 21.1261ZM89.5845 22.0381H88.3245L91.5285 15.2101H87.6045V14.1901H92.7765V15.2101L89.5845 22.0381ZM98.5363 19.5421C98.5363 20.3261 98.2763 20.9541 97.7563 21.4261C97.2443 21.8901 96.5283 22.1221 95.6083 22.1221C94.7843 22.1221 94.1043 21.9861 93.5683 21.7141V20.5741C94.0803 20.8861 94.6963 21.0421 95.4163 21.0421C96.6803 21.0421 97.3123 20.5301 97.3123 19.5061C97.3123 19.0981 97.1683 18.7821 96.8803 18.5581C96.6003 18.3261 96.2203 18.2101 95.7403 18.2101C95.1323 18.2101 94.5323 18.3501 93.9403 18.6301V14.1781H98.0083V15.1981H95.1043V17.2621C95.4003 17.1981 95.6723 17.1661 95.9203 17.1661C96.7363 17.1661 97.3763 17.3821 97.8403 17.8141C98.3043 18.2381 98.5363 18.8141 98.5363 19.5421Z" fill="black"/>
<path d="M138.382 19.8541C138.382 20.5981 138.198 21.1501 137.83 21.5101C137.47 21.8621 136.982 22.0381 136.366 22.0381C135.87 22.0381 135.474 21.9541 135.178 21.7861V20.6461C135.506 20.8461 135.834 20.9461 136.162 20.9461C136.818 20.9461 137.146 20.5981 137.146 19.9021V13.9501H138.382V19.8541ZM142.031 21.1621C142.415 21.1621 142.715 21.0581 142.931 20.8501C143.155 20.6341 143.267 20.3541 143.267 20.0101V19.3261H142.355C141.907 19.3261 141.567 19.4141 141.335 19.5901C141.111 19.7661 140.999 19.9901 140.999 20.2621C140.999 20.5421 141.087 20.7621 141.263 20.9221C141.439 21.0821 141.695 21.1621 142.031 21.1621ZM143.303 21.3181C142.991 21.8301 142.443 22.0861 141.659 22.0861C141.083 22.0861 140.619 21.9221 140.267 21.5941C139.923 21.2581 139.751 20.8341 139.751 20.3221C139.751 19.7381 139.971 19.2861 140.411 18.9661C140.851 18.6381 141.467 18.4741 142.259 18.4741H143.267V18.1261C143.267 17.7101 143.167 17.3981 142.967 17.1901C142.767 16.9741 142.435 16.8661 141.971 16.8661C141.323 16.8661 140.735 17.0461 140.207 17.4061V16.2661C140.679 15.9941 141.303 15.8581 142.079 15.8581C143.671 15.8581 144.467 16.6301 144.467 18.1741V22.0381H143.303V21.3181ZM154.416 22.0381H153.24V18.1981C153.24 17.3261 152.888 16.8901 152.184 16.8901C151.832 16.8901 151.516 17.0461 151.236 17.3581C150.964 17.6701 150.828 18.1301 150.828 18.7381V22.0381H149.652V18.1981C149.652 17.3261 149.296 16.8901 148.584 16.8901C148.24 16.8901 147.928 17.0461 147.648 17.3581C147.368 17.6701 147.228 18.1301 147.228 18.7381V22.0381H146.052V15.9541H147.228V16.9261C147.572 16.2221 148.144 15.8701 148.944 15.8701C149.856 15.8701 150.44 16.2621 150.696 17.0461C150.864 16.6701 151.108 16.3821 151.428 16.1821C151.748 15.9741 152.108 15.8701 152.508 15.8701C153.132 15.8701 153.604 16.0541 153.924 16.4221C154.252 16.7901 154.416 17.2981 154.416 17.9461V22.0381ZM160.549 21.7141C160.101 21.9701 159.509 22.0981 158.773 22.0981C157.829 22.0981 157.077 21.8141 156.517 21.2461C155.957 20.6781 155.677 19.9341 155.677 19.0141C155.677 18.0381 155.933 17.2741 156.445 16.7221C156.957 16.1621 157.609 15.8821 158.401 15.8821C159.177 15.8821 159.793 16.1261 160.249 16.6141C160.705 17.0941 160.933 17.7901 160.933 18.7021C160.933 18.9501 160.909 19.2101 160.861 19.4821H156.865C156.945 20.0101 157.169 20.4141 157.537 20.6941C157.905 20.9741 158.369 21.1141 158.929 21.1141C159.577 21.1141 160.117 20.9621 160.549 20.6581V21.7141ZM158.425 16.8541C158.025 16.8541 157.681 17.0021 157.393 17.2981C157.105 17.5861 156.925 18.0061 156.853 18.5581H159.793V18.3421C159.777 17.8861 159.653 17.5261 159.421 17.2621C159.189 16.9901 158.857 16.8541 158.425 16.8541ZM166.121 20.3581C166.121 20.9021 165.929 21.3301 165.545 21.6421C165.161 21.9461 164.641 22.0981 163.985 22.0981C163.265 22.0981 162.665 21.9781 162.185 21.7381V20.6221C162.745 20.9661 163.325 21.1381 163.925 21.1381C164.237 21.1381 164.477 21.0741 164.645 20.9461C164.821 20.8181 164.909 20.6501 164.909 20.4421C164.909 20.2661 164.841 20.1101 164.705 19.9741C164.569 19.8301 164.429 19.7261 164.285 19.6621C164.149 19.5901 163.913 19.4821 163.577 19.3381C162.625 18.9461 162.149 18.3701 162.149 17.6101C162.149 17.0741 162.349 16.6541 162.749 16.3501C163.149 16.0461 163.649 15.8941 164.249 15.8941C164.905 15.8941 165.417 15.9821 165.785 16.1581V17.2261C165.393 16.9941 164.889 16.8781 164.273 16.8781C163.993 16.8781 163.769 16.9421 163.601 17.0701C163.441 17.1981 163.361 17.3661 163.361 17.5741C163.361 17.6301 163.365 17.6861 163.373 17.7421C163.389 17.7901 163.413 17.8421 163.445 17.8981C163.477 17.9461 163.505 17.9901 163.529 18.0301C163.561 18.0621 163.609 18.0981 163.673 18.1381C163.737 18.1781 163.785 18.2141 163.817 18.2461C163.857 18.2701 163.917 18.3021 163.997 18.3421C164.085 18.3821 164.149 18.4141 164.189 18.4381C164.229 18.4541 164.297 18.4861 164.393 18.5341C164.497 18.5741 164.569 18.6021 164.609 18.6181C165.081 18.8261 165.449 19.0621 165.713 19.3261C165.985 19.5821 166.121 19.9261 166.121 20.3581Z" fill="black"/>
<path d="M227.048 17.5513H224.828V19.7833H223.736V17.5513H221.564V16.4833H223.736V14.2393H224.828V16.4833H227.048V17.5513ZM232.79 18.9313C232.79 19.5793 232.558 20.1153 232.094 20.5393C231.63 20.9553 230.978 21.1633 230.138 21.1633C229.346 21.1633 228.678 21.0273 228.134 20.7553V19.6033C228.726 19.9233 229.374 20.0833 230.078 20.0833C230.55 20.0833 230.918 19.9673 231.182 19.7353C231.454 19.4953 231.59 19.1913 231.59 18.8233C231.59 18.4393 231.442 18.1433 231.146 17.9353C230.85 17.7273 230.406 17.6233 229.814 17.6233H229.334V16.6153H229.814C230.254 16.6153 230.622 16.5073 230.918 16.2913C231.222 16.0673 231.374 15.7633 231.374 15.3793C231.374 14.9953 231.25 14.7073 231.002 14.5153C230.762 14.3233 230.43 14.2273 230.006 14.2273C229.462 14.2273 228.922 14.3953 228.386 14.7313V13.5913C228.882 13.3033 229.434 13.1593 230.042 13.1593C230.842 13.1593 231.466 13.3593 231.914 13.7593C232.37 14.1513 232.598 14.6473 232.598 15.2473C232.598 15.6793 232.49 16.0593 232.274 16.3873C232.066 16.7073 231.754 16.9513 231.338 17.1193C231.794 17.2313 232.15 17.4433 232.406 17.7553C232.662 18.0673 232.79 18.4593 232.79 18.9313ZM235.498 21.0913H234.238L237.442 14.2633H233.518V13.2433H238.69V14.2633L235.498 21.0913ZM247.611 18.5353C247.611 19.3353 247.379 19.9873 246.915 20.4913C246.451 20.9953 245.827 21.2473 245.043 21.2473C244.131 21.2473 243.431 20.9073 242.943 20.2273C242.463 19.5473 242.223 18.6473 242.223 17.5273C242.223 16.2153 242.555 15.1393 243.219 14.2993C243.891 13.4593 244.787 13.0393 245.907 13.0393C246.307 13.0393 246.687 13.0993 247.047 13.2193V14.3593C246.735 14.1993 246.371 14.1193 245.955 14.1193C245.251 14.1193 244.687 14.3713 244.263 14.8753C243.839 15.3713 243.571 16.0113 243.459 16.7953C243.979 16.2913 244.595 16.0393 245.307 16.0393C246.019 16.0393 246.579 16.2673 246.987 16.7233C247.403 17.1793 247.611 17.7833 247.611 18.5353ZM245.055 20.1793C245.471 20.1793 245.799 20.0313 246.039 19.7353C246.279 19.4313 246.399 19.0353 246.399 18.5473C246.399 18.0913 246.279 17.7313 246.039 17.4673C245.799 17.2033 245.479 17.0713 245.079 17.0713C244.455 17.0713 243.903 17.3313 243.423 17.8513C243.455 18.6273 243.619 19.2113 243.915 19.6033C244.219 19.9873 244.599 20.1793 245.055 20.1793ZM250.158 21.0913H248.898L252.102 14.2633H248.178V13.2433H253.35V14.2633L250.158 21.0913ZM259.47 18.5353C259.47 19.3353 259.238 19.9873 258.774 20.4913C258.31 20.9953 257.686 21.2473 256.902 21.2473C255.99 21.2473 255.29 20.9073 254.802 20.2273C254.322 19.5473 254.082 18.6473 254.082 17.5273C254.082 16.2153 254.414 15.1393 255.078 14.2993C255.75 13.4593 256.646 13.0393 257.766 13.0393C258.166 13.0393 258.546 13.0993 258.906 13.2193V14.3593C258.594 14.1993 258.23 14.1193 257.814 14.1193C257.11 14.1193 256.546 14.3713 256.122 14.8753C255.698 15.3713 255.43 16.0113 255.318 16.7953C255.838 16.2913 256.454 16.0393 257.166 16.0393C257.878 16.0393 258.438 16.2673 258.846 16.7233C259.262 17.1793 259.47 17.7833 259.47 18.5353ZM256.914 20.1793C257.33 20.1793 257.658 20.0313 257.898 19.7353C258.138 19.4313 258.258 19.0353 258.258 18.5473C258.258 18.0913 258.138 17.7313 257.898 17.4673C257.658 17.2033 257.338 17.0713 256.938 17.0713C256.314 17.0713 255.762 17.3313 255.282 17.8513C255.314 18.6273 255.478 19.2113 255.774 19.6033C256.078 19.9873 256.458 20.1793 256.914 20.1793ZM268.574 19.0033C268.574 19.6673 268.318 20.1993 267.806 20.5993C267.294 20.9993 266.646 21.1993 265.862 21.1993C265.094 21.1993 264.462 21.0073 263.966 20.6233C263.47 20.2313 263.222 19.7113 263.222 19.0633C263.222 18.1353 263.666 17.4993 264.554 17.1553C264.178 16.9953 263.882 16.7633 263.666 16.4593C263.458 16.1553 263.354 15.7993 263.354 15.3913C263.354 14.6873 263.598 14.1353 264.086 13.7353C264.574 13.3353 265.166 13.1353 265.862 13.1353C266.582 13.1353 267.186 13.3313 267.674 13.7233C268.162 14.1073 268.406 14.6673 268.406 15.4033C268.406 16.1953 268.014 16.7753 267.23 17.1433C268.126 17.4473 268.574 18.0673 268.574 19.0033ZM264.422 19.0153C264.422 19.3513 264.546 19.6313 264.794 19.8553C265.042 20.0793 265.402 20.1913 265.874 20.1913C266.362 20.1913 266.734 20.0713 266.99 19.8313C267.254 19.5913 267.386 19.2953 267.386 18.9433C267.386 18.5913 267.258 18.2953 267.002 18.0553C266.746 17.8153 266.37 17.6953 265.874 17.6953C265.394 17.7033 265.03 17.8353 264.782 18.0913C264.542 18.3393 264.422 18.6473 264.422 19.0153ZM264.554 15.3793C264.554 15.7873 264.678 16.0993 264.926 16.3153C265.182 16.5233 265.51 16.6273 265.91 16.6273C266.286 16.6273 266.594 16.5193 266.834 16.3033C267.082 16.0793 267.206 15.7673 267.206 15.3673C267.206 15.0153 267.094 14.7233 266.87 14.4913C266.654 14.2593 266.318 14.1433 265.862 14.1433C265.454 14.1433 265.134 14.2633 264.902 14.5033C264.67 14.7433 264.554 15.0353 264.554 15.3793ZM274.215 18.9313C274.215 19.5793 273.983 20.1153 273.519 20.5393C273.055 20.9553 272.403 21.1633 271.563 21.1633C270.771 21.1633 270.103 21.0273 269.559 20.7553V19.6033C270.151 19.9233 270.799 20.0833 271.503 20.0833C271.975 20.0833 272.343 19.9673 272.607 19.7353C272.879 19.4953 273.015 19.1913 273.015 18.8233C273.015 18.4393 272.867 18.1433 272.571 17.9353C272.275 17.7273 271.831 17.6233 271.239 17.6233H270.759V16.6153H271.239C271.679 16.6153 272.047 16.5073 272.343 16.2913C272.647 16.0673 272.799 15.7633 272.799 15.3793C272.799 14.9953 272.675 14.7073 272.427 14.5153C272.187 14.3233 271.855 14.2273 271.431 14.2273C270.887 14.2273 270.347 14.3953 269.811 14.7313V13.5913C270.307 13.3033 270.859 13.1593 271.467 13.1593C272.267 13.1593 272.891 13.3593 273.339 13.7593C273.795 14.1513 274.023 14.6473 274.023 15.2473C274.023 15.6793 273.915 16.0593 273.699 16.3873C273.491 16.7073 273.179 16.9513 272.763 17.1193C273.219 17.2313 273.575 17.4433 273.831 17.7553C274.087 18.0673 274.215 18.4593 274.215 18.9313ZM277.8 17.2993C278.408 17.2993 278.9 17.0633 279.276 16.5913C279.26 15.8553 279.124 15.2753 278.868 14.8513C278.62 14.4273 278.244 14.2153 277.74 14.2153C277.324 14.2153 276.992 14.3553 276.744 14.6353C276.496 14.9073 276.372 15.2793 276.372 15.7513C276.372 16.2313 276.5 16.6113 276.756 16.8913C277.02 17.1633 277.368 17.2993 277.8 17.2993ZM280.44 16.6993C280.44 18.1233 280.136 19.2273 279.528 20.0113C278.928 20.7953 278.064 21.1873 276.936 21.1873C276.424 21.1873 275.964 21.1113 275.556 20.9593V19.8193C275.964 20.0033 276.396 20.0953 276.852 20.0953C278.228 20.0953 279.02 19.2793 279.228 17.6473C278.844 18.0873 278.272 18.3073 277.512 18.3073C276.856 18.3073 276.296 18.0753 275.832 17.6113C275.376 17.1473 275.148 16.5353 275.148 15.7753C275.148 15.0153 275.376 14.3873 275.832 13.8913C276.288 13.3953 276.908 13.1473 277.692 13.1473C278.588 13.1473 279.268 13.4793 279.732 14.1433C280.204 14.7993 280.44 15.6513 280.44 16.6993ZM289.309 18.5953C289.309 19.3793 289.049 20.0073 288.529 20.4793C288.017 20.9433 287.301 21.1753 286.381 21.1753C285.557 21.1753 284.877 21.0393 284.341 20.7673V19.6273C284.853 19.9393 285.469 20.0953 286.189 20.0953C287.453 20.0953 288.085 19.5833 288.085 18.5593C288.085 18.1513 287.941 17.8353 287.653 17.6113C287.373 17.3793 286.993 17.2633 286.513 17.2633C285.905 17.2633 285.305 17.4033 284.713 17.6833V13.2313H288.781V14.2513H285.877V16.3153C286.173 16.2513 286.445 16.2193 286.693 16.2193C287.509 16.2193 288.149 16.4353 288.613 16.8673C289.077 17.2913 289.309 17.8673 289.309 18.5953ZM295.259 21.0913H290.231V20.1193C291.239 19.3833 292.087 18.6233 292.775 17.8393C293.471 17.0473 293.819 16.3273 293.819 15.6793C293.819 15.2233 293.687 14.8753 293.423 14.6353C293.159 14.3873 292.795 14.2633 292.331 14.2633C291.691 14.2633 291.063 14.5033 290.447 14.9833V13.8193C291.023 13.3793 291.707 13.1593 292.499 13.1593C293.235 13.1593 293.843 13.3673 294.323 13.7833C294.803 14.1913 295.043 14.7753 295.043 15.5353C295.043 16.9433 293.979 18.4553 291.851 20.0713H295.259V21.0913ZM301.8 17.1433C301.8 18.3673 301.556 19.3473 301.068 20.0833C300.588 20.8193 299.9 21.1873 299.004 21.1873C298.148 21.1873 297.472 20.8193 296.976 20.0833C296.488 19.3473 296.244 18.3673 296.244 17.1433C296.244 15.9113 296.488 14.9353 296.976 14.2153C297.472 13.4873 298.148 13.1233 299.004 13.1233C299.876 13.1233 300.56 13.4833 301.056 14.2033C301.552 14.9233 301.8 15.9033 301.8 17.1433ZM297.888 14.9833C297.592 15.4873 297.444 16.2073 297.444 17.1433C297.444 18.0793 297.588 18.8073 297.876 19.3273C298.172 19.8393 298.548 20.0953 299.004 20.0953C299.5 20.0953 299.888 19.8393 300.168 19.3273C300.448 18.8153 300.588 18.0873 300.588 17.1433C300.588 16.1913 300.44 15.4673 300.144 14.9713C299.856 14.4673 299.476 14.2153 299.004 14.2153C298.556 14.2153 298.184 14.4713 297.888 14.9833ZM305.316 17.2993C305.924 17.2993 306.416 17.0633 306.792 16.5913C306.776 15.8553 306.64 15.2753 306.384 14.8513C306.136 14.4273 305.76 14.2153 305.256 14.2153C304.84 14.2153 304.508 14.3553 304.26 14.6353C304.012 14.9073 303.888 15.2793 303.888 15.7513C303.888 16.2313 304.016 16.6113 304.272 16.8913C304.536 17.1633 304.884 17.2993 305.316 17.2993ZM307.956 16.6993C307.956 18.1233 307.652 19.2273 307.044 20.0113C306.444 20.7953 305.58 21.1873 304.452 21.1873C303.94 21.1873 303.48 21.1113 303.072 20.9593V19.8193C303.48 20.0033 303.912 20.0953 304.368 20.0953C305.744 20.0953 306.536 19.2793 306.744 17.6473C306.36 18.0873 305.788 18.3073 305.028 18.3073C304.372 18.3073 303.812 18.0753 303.348 17.6113C302.892 17.1473 302.664 16.5353 302.664 15.7753C302.664 15.0153 302.892 14.3873 303.348 13.8913C303.804 13.3953 304.424 13.1473 305.208 13.1473C306.104 13.1473 306.784 13.4793 307.248 14.1433C307.72 14.7993 307.956 15.6513 307.956 16.6993Z" fill="black"/>
<path d="M392.02 16.72C392.524 17.304 392.776 18.052 392.776 18.964C392.776 19.876 392.516 20.628 391.996 21.22C391.484 21.812 390.776 22.108 389.872 22.108C388.976 22.108 388.272 21.816 387.76 21.232C387.248 20.648 386.992 19.908 386.992 19.012C386.992 18.1 387.256 17.344 387.784 16.744C388.312 16.136 389.008 15.832 389.872 15.832C390.8 15.832 391.516 16.128 392.02 16.72ZM388.216 18.976C388.216 19.576 388.364 20.084 388.66 20.5C388.956 20.908 389.36 21.112 389.872 21.112C390.416 21.112 390.828 20.912 391.108 20.512C391.396 20.112 391.54 19.604 391.54 18.988C391.54 18.356 391.404 17.84 391.132 17.44C390.86 17.032 390.436 16.828 389.86 16.828C389.34 16.828 388.936 17.036 388.648 17.452C388.36 17.86 388.216 18.368 388.216 18.976ZM397.065 16.828H395.781V22H394.605V16.828H393.633V15.916H394.605V15.448C394.605 14.816 394.773 14.32 395.109 13.96C395.453 13.592 395.933 13.408 396.549 13.408C396.773 13.408 397.001 13.44 397.233 13.504V14.536C397.049 14.456 396.857 14.416 396.657 14.416C396.073 14.416 395.781 14.764 395.781 15.46V15.916H397.065V16.828ZM401.073 16.828H399.789V22H398.613V16.828H397.641V15.916H398.613V15.448C398.613 14.816 398.781 14.32 399.117 13.96C399.461 13.592 399.941 13.408 400.557 13.408C400.781 13.408 401.009 13.44 401.241 13.504V14.536C401.057 14.456 400.865 14.416 400.665 14.416C400.081 14.416 399.789 14.764 399.789 15.46V15.916H401.073V16.828ZM406.082 22H404.858L405.482 13.912H406.946L408.026 16.864C408.218 17.368 408.41 17.904 408.602 18.472C408.794 19.032 408.938 19.468 409.034 19.78L409.19 20.248C409.558 19.16 409.962 18.032 410.402 16.864L411.53 13.912H412.994L413.738 22H412.514L412.226 18.832L411.974 15.592C411.614 16.608 411.222 17.688 410.798 18.832L409.67 21.844H408.698L407.606 18.832L406.514 15.64C406.514 15.992 406.45 17.056 406.322 18.832L406.082 22ZM417.304 21.124C417.688 21.124 417.988 21.02 418.204 20.812C418.428 20.596 418.54 20.316 418.54 19.972V19.288H417.628C417.18 19.288 416.84 19.376 416.608 19.552C416.384 19.728 416.272 19.952 416.272 20.224C416.272 20.504 416.36 20.724 416.536 20.884C416.712 21.044 416.968 21.124 417.304 21.124ZM418.576 21.28C418.264 21.792 417.716 22.048 416.932 22.048C416.356 22.048 415.892 21.884 415.54 21.556C415.196 21.22 415.024 20.796 415.024 20.284C415.024 19.7 415.244 19.248 415.684 18.928C416.124 18.6 416.74 18.436 417.532 18.436H418.54V18.088C418.54 17.672 418.44 17.36 418.24 17.152C418.04 16.936 417.708 16.828 417.244 16.828C416.596 16.828 416.008 17.008 415.48 17.368V16.228C415.952 15.956 416.576 15.82 417.352 15.82C418.944 15.82 419.74 16.592 419.74 18.136V22H418.576V21.28ZM422.5 22H421.324V15.916H422.5V16.984C422.796 16.232 423.328 15.856 424.096 15.856C424.208 15.856 424.332 15.868 424.468 15.892V17.044C424.3 16.972 424.112 16.936 423.904 16.936C423.496 16.936 423.16 17.116 422.896 17.476C422.632 17.836 422.5 18.264 422.5 18.76V22ZM426.567 22H425.391V13.6H426.567V22ZM427.971 18.82L430.359 22H428.955L426.615 18.82L428.907 15.916H430.287L427.971 18.82ZM435.927 21.676C435.479 21.932 434.887 22.06 434.151 22.06C433.207 22.06 432.455 21.776 431.895 21.208C431.335 20.64 431.055 19.896 431.055 18.976C431.055 18 431.311 17.236 431.823 16.684C432.335 16.124 432.987 15.844 433.779 15.844C434.555 15.844 435.171 16.088 435.627 16.576C436.083 17.056 436.311 17.752 436.311 18.664C436.311 18.912 436.287 19.172 436.239 19.444H432.243C432.323 19.972 432.547 20.376 432.915 20.656C433.283 20.936 433.747 21.076 434.307 21.076C434.955 21.076 435.495 20.924 435.927 20.62V21.676ZM433.803 16.816C433.403 16.816 433.059 16.964 432.771 17.26C432.483 17.548 432.303 17.968 432.231 18.52H435.171V18.304C435.155 17.848 435.031 17.488 434.799 17.224C434.567 16.952 434.235 16.816 433.803 16.816ZM440.887 21.844C440.623 21.988 440.299 22.06 439.915 22.06C438.659 22.06 438.031 21.424 438.031 20.152V16.828H437.083V15.916H438.031V14.428H439.219V15.916H440.815V16.828H439.219V20.176C439.219 20.76 439.499 21.052 440.059 21.052C440.387 21.052 440.663 20.964 440.887 20.788V21.844Z" fill="black"/>
<path d="M522.894 23.7848H523.984L530.701 17.3198L529.611 16.2704L522.894 22.7354V23.7848ZM534.03 16.2329L530.721 13.0848L531.811 12.0354C532.109 11.748 532.476 11.6044 532.911 11.6044C533.346 11.6044 533.712 11.748 534.011 12.0354L535.101 13.0848C535.4 13.3721 535.555 13.7189 535.568 14.1252C535.581 14.5309 535.439 14.8775 535.14 15.1648L534.03 16.2329ZM532.901 17.3386L524.646 25.284H521.336V22.0983L529.591 14.1529L532.901 17.3386ZM530.156 16.7951L529.611 16.2704L530.701 17.3198L530.156 16.7951Z" fill="#00B895"/>
<path d="M548.429 14.0407H551.545C551.545 13.6432 551.38 13.2618 551.088 12.9807C550.796 12.6996 550.4 12.5416 549.987 12.5416C549.574 12.5416 549.178 12.6996 548.886 12.9807C548.594 13.2618 548.429 13.6432 548.429 14.0407ZM546.872 14.0407C546.872 13.2456 547.2 12.4829 547.784 11.9207C548.368 11.3584 549.161 11.0425 549.987 11.0425C550.813 11.0425 551.605 11.3584 552.19 11.9207C552.774 12.4829 553.102 13.2456 553.102 14.0407H556.996C557.202 14.0407 557.401 14.1197 557.547 14.2603C557.693 14.4009 557.775 14.5915 557.775 14.7903C557.775 14.9891 557.693 15.1798 557.547 15.3203C557.401 15.4609 557.202 15.5399 556.996 15.5399H556.309L555.619 23.2904C555.553 24.0388 555.197 24.736 554.622 25.244C554.047 25.752 553.295 26.0339 552.515 26.0338H547.459C546.679 26.0339 545.927 25.752 545.352 25.244C544.777 24.736 544.421 24.0388 544.355 23.2904L543.665 15.5399H542.978C542.771 15.5399 542.573 15.4609 542.427 15.3203C542.281 15.1798 542.199 14.9891 542.199 14.7903C542.199 14.5915 542.281 14.4009 542.427 14.2603C542.573 14.1197 542.771 14.0407 542.978 14.0407H546.872ZM552.323 18.5381C552.323 18.3393 552.241 18.1487 552.095 18.0081C551.949 17.8676 551.751 17.7886 551.545 17.7886C551.338 17.7886 551.14 17.8676 550.994 18.0081C550.848 18.1487 550.766 18.3393 550.766 18.5381V21.5364C550.766 21.7352 550.848 21.9259 550.994 22.0664C551.14 22.207 551.338 22.286 551.545 22.286C551.751 22.286 551.949 22.207 552.095 22.0664C552.241 21.9259 552.323 21.7352 552.323 21.5364V18.5381ZM548.429 17.7886C548.636 17.7886 548.834 17.8676 548.98 18.0081C549.126 18.1487 549.208 18.3393 549.208 18.5381V21.5364C549.208 21.7352 549.126 21.9259 548.98 22.0664C548.834 22.207 548.636 22.286 548.429 22.286C548.223 22.286 548.025 22.207 547.879 22.0664C547.733 21.9259 547.651 21.7352 547.651 21.5364V18.5381C547.651 18.3393 547.733 18.1487 547.879 18.0081C548.025 17.8676 548.223 17.7886 548.429 17.7886ZM545.906 23.163C545.939 23.5373 546.117 23.886 546.405 24.14C546.693 24.3941 547.069 24.5349 547.459 24.5347H552.515C552.905 24.5345 553.281 24.3935 553.568 24.1395C553.855 23.8855 554.033 23.537 554.066 23.163L554.745 15.5399H545.229L545.906 23.163Z" fill="#F24E1E"/>
<rect width="33.4463" height="28.4046" transform="translate(562.283 3.86243)" fill="#DEEBF8"/>
<path d="M574.491 14.2775L579.007 18.6234L583.522 14.2775L584.909 15.622L579.007 21.3029L573.104 15.622L574.491 14.2775Z" fill="black"/>
</svg>
