<svg width="17" height="16" viewBox="0 0 17 16" fill="none" xmlns="http://www.w3.org/2000/svg">
<path d="M8.02906 5.33366C8.76506 5.33366 9.36724 4.73366 9.36724 4.00033C9.36724 3.26699 8.76506 2.66699 8.02906 2.66699C7.29307 2.66699 5.52002 3.26691 5.52002 4.00024C5.52002 4.73358 7.29307 5.33366 8.02906 5.33366ZM8.02906 6.66699C7.29307 6.66699 5.52002 7.26691 5.52002 8.00024C5.52002 8.73358 7.29307 9.33366 8.02906 9.33366C8.76506 9.33366 9.36724 8.73366 9.36724 8.00033C9.36724 7.26699 8.76506 6.66699 8.02906 6.66699ZM8.02906 10.667C7.29307 10.667 5.52002 11.2669 5.52002 12.0002C5.52002 12.7336 7.29307 13.3337 8.02906 13.3337C8.76506 13.3337 9.36724 12.7337 9.36724 12.0003C9.36724 11.267 8.76506 10.667 8.02906 10.667Z" fill="#1F4A8C"/>
</svg>
