<svg width="16" height="16" viewBox="0 0 16 16" fill="none" xmlns="http://www.w3.org/2000/svg">
<g clip-path="url(#clip0_1_15940)">
<path d="M8.66666 16C7.52221 16 6.47777 15.6804 5.53332 15.0413C4.58888 14.4027 3.90555 13.55 3.48332 12.4833L1.78332 8.2C1.73888 8.08889 1.70843 7.986 1.69199 7.89133C1.6751 7.79711 1.66666 7.68889 1.66666 7.56667C1.66666 7.23333 1.79443 6.93889 2.04999 6.68333C2.30555 6.42778 2.59999 6.3 2.93332 6.3C3.0111 6.3 3.08066 6.30267 3.14199 6.308C3.20288 6.31378 3.26666 6.32778 3.33332 6.35L3.84999 6.48333C4.00555 6.52778 4.14999 6.586 4.28332 6.658C4.41666 6.73044 4.54443 6.82222 4.66666 6.93333V3C4.66666 2.53333 4.82777 2.13889 5.14999 1.81667C5.47221 1.49444 5.86666 1.33333 6.33332 1.33333C6.39999 1.33333 6.46399 1.336 6.52532 1.34133C6.58621 1.34711 6.64443 1.35556 6.69999 1.36667C6.76666 0.944444 6.95843 0.611111 7.27532 0.366667C7.59177 0.122222 7.94443 0 8.33332 0C8.68888 0 9.00555 0.0973333 9.28332 0.292C9.5611 0.486222 9.7611 0.744444 9.88332 1.06667C9.9611 1.04444 10.0362 1.02778 10.1087 1.01667C10.1807 1.00556 10.2555 1 10.3333 1C10.8 1 11.1944 1.16111 11.5167 1.48333C11.8389 1.80556 12 2.2 12 2.66667V3.03333C12.0555 3.02222 12.1111 3.01378 12.1667 3.008C12.2222 3.00267 12.2778 3 12.3333 3C12.8 3 13.1944 3.16111 13.5167 3.48333C13.8389 3.80556 14 4.2 14 4.66667V10.6667C14 12.1556 13.4833 13.4167 12.45 14.45C11.4167 15.4833 10.1555 16 8.66666 16ZM8.66666 14.6667C9.77777 14.6667 10.7222 14.2778 11.5 13.5C12.2778 12.7222 12.6667 11.7778 12.6667 10.6667V4.66667C12.6667 4.57778 12.6333 4.5 12.5667 4.43333C12.5 4.36667 12.4222 4.33333 12.3333 4.33333C12.2444 4.33333 12.1667 4.36667 12.1 4.43333C12.0333 4.5 12 4.57778 12 4.66667V8H10.6667V2.66667C10.6667 2.57778 10.6333 2.5 10.5667 2.43333C10.5 2.36667 10.4222 2.33333 10.3333 2.33333C10.2444 2.33333 10.1667 2.36667 10.1 2.43333C10.0333 2.5 9.99999 2.57778 9.99999 2.66667V8H8.66666V1.66667C8.66666 1.57778 8.63332 1.5 8.56666 1.43333C8.49999 1.36667 8.42221 1.33333 8.33332 1.33333C8.24443 1.33333 8.16666 1.36667 8.09999 1.43333C8.03332 1.5 7.99999 1.57778 7.99999 1.66667V8H6.66666V3C6.66666 2.91111 6.63332 2.83333 6.56666 2.76667C6.49999 2.7 6.42221 2.66667 6.33332 2.66667C6.24443 2.66667 6.16666 2.7 6.09999 2.76667C6.03332 2.83333 5.99999 2.91111 5.99999 3V10H4.66666L4.01666 8.33333C3.93888 8.14444 3.83066 8.00556 3.69199 7.91667C3.55288 7.82778 3.32221 7.73333 2.99999 7.63333L4.73332 12C5.05555 12.8 5.5751 13.4444 6.29199 13.9333C7.00843 14.4222 7.79999 14.6667 8.66666 14.6667Z" fill="#1F4A8C"/>
</g>
<defs>
<clipPath id="clip0_1_15940">
<rect width="16" height="16" fill="white"/>
</clipPath>
</defs>
</svg>
