<svg width="12" height="12" viewBox="0 0 12 12" fill="none" xmlns="http://www.w3.org/2000/svg">
<mask id="path-1-inside-1_1_15733" fill="white">
<path fill-rule="evenodd" clip-rule="evenodd" d="M3.4845 1.23456C3.51933 1.19964 3.56071 1.17193 3.60627 1.15303C3.65183 1.13412 3.70067 1.12439 3.75 1.12439C3.79932 1.12439 3.84817 1.13412 3.89372 1.15303C3.93928 1.17193 3.98066 1.19964 4.0155 1.23456L8.5155 5.73456C8.55042 5.76939 8.57813 5.81078 8.59703 5.85633C8.61594 5.90189 8.62567 5.95073 8.62567 6.00006C8.62567 6.04939 8.61594 6.09823 8.59703 6.14378C8.57813 6.18934 8.55042 6.23073 8.5155 6.26556L4.0155 10.7656C3.94508 10.836 3.84958 10.8755 3.75 10.8755C3.65042 10.8755 3.55491 10.836 3.4845 10.7656C3.41408 10.6951 3.37452 10.5996 3.37452 10.5001C3.37452 10.4005 3.41408 10.305 3.4845 10.2346L7.71975 6.00006L3.4845 1.76556C3.44958 1.73073 3.42187 1.68934 3.40296 1.64379C3.38406 1.59823 3.37433 1.54939 3.37433 1.50006C3.37433 1.45073 3.38406 1.40189 3.40296 1.35633C3.42187 1.31078 3.44958 1.26939 3.4845 1.23456Z"/>
</mask>
<path fill-rule="evenodd" clip-rule="evenodd" d="M3.4845 1.23456C3.51933 1.19964 3.56071 1.17193 3.60627 1.15303C3.65183 1.13412 3.70067 1.12439 3.75 1.12439C3.79932 1.12439 3.84817 1.13412 3.89372 1.15303C3.93928 1.17193 3.98066 1.19964 4.0155 1.23456L8.5155 5.73456C8.55042 5.76939 8.57813 5.81078 8.59703 5.85633C8.61594 5.90189 8.62567 5.95073 8.62567 6.00006C8.62567 6.04939 8.61594 6.09823 8.59703 6.14378C8.57813 6.18934 8.55042 6.23073 8.5155 6.26556L4.0155 10.7656C3.94508 10.836 3.84958 10.8755 3.75 10.8755C3.65042 10.8755 3.55491 10.836 3.4845 10.7656C3.41408 10.6951 3.37452 10.5996 3.37452 10.5001C3.37452 10.4005 3.41408 10.305 3.4845 10.2346L7.71975 6.00006L3.4845 1.76556C3.44958 1.73073 3.42187 1.68934 3.40296 1.64379C3.38406 1.59823 3.37433 1.54939 3.37433 1.50006C3.37433 1.45073 3.38406 1.40189 3.40296 1.35633C3.42187 1.31078 3.44958 1.26939 3.4845 1.23456Z" fill="#9CA3AF"/>
<path d="M4.0155 1.23456L3.3075 1.94077L3.30839 1.94167L4.0155 1.23456ZM8.5155 5.73456L7.80839 6.44167L7.80929 6.44256L8.5155 5.73456ZM8.5155 6.26556L7.80929 5.55756L7.80839 5.55845L8.5155 6.26556ZM3.4845 10.2346L2.77745 9.52739L2.77739 9.52745L3.4845 10.2346ZM7.71975 6.00006L8.42679 6.70723L9.13409 6.00006L8.42679 5.29289L7.71975 6.00006ZM3.4845 1.76556L4.19154 1.05839L4.19071 1.05756L3.4845 1.76556ZM4.1925 1.94077C4.13444 1.99898 4.06547 2.04516 3.98954 2.07666L3.22301 0.229388C3.05596 0.298706 2.90422 0.400299 2.7765 0.528348L4.1925 1.94077ZM3.98954 2.07666C3.91361 2.10817 3.83221 2.12439 3.75 2.12439V0.12439C3.56914 0.12439 3.39006 0.160071 3.22301 0.229388L3.98954 2.07666ZM3.75 2.12439C3.66779 2.12439 3.58639 2.10817 3.51046 2.07666L4.27699 0.229388C4.10994 0.160071 3.93086 0.12439 3.75 0.12439V2.12439ZM3.51046 2.07666C3.43453 2.04516 3.36556 1.99898 3.3075 1.94077L4.7235 0.528348C4.59577 0.400299 4.44404 0.298706 4.27699 0.229388L3.51046 2.07666ZM3.30839 1.94167L7.80839 6.44167L9.22261 5.02745L4.72261 0.527453L3.30839 1.94167ZM7.80929 6.44256C7.75108 6.3845 7.7049 6.31553 7.6734 6.2396L9.52067 5.47307C9.45136 5.30602 9.34976 5.15429 9.22171 5.02656L7.80929 6.44256ZM7.6734 6.2396C7.64189 6.16367 7.62567 6.08227 7.62567 6.00006H9.62567C9.62567 5.8192 9.58999 5.64012 9.52067 5.47307L7.6734 6.2396ZM7.62567 6.00006C7.62567 5.91785 7.64189 5.83645 7.6734 5.76052L9.52067 6.52705C9.58999 6.36 9.62567 6.18092 9.62567 6.00006H7.62567ZM7.6734 5.76052C7.7049 5.68459 7.75108 5.61562 7.80929 5.55756L9.22171 6.97356C9.34976 6.84583 9.45136 6.6941 9.52067 6.52705L7.6734 5.76052ZM7.80839 5.55845L3.30839 10.0585L4.72261 11.4727L9.22261 6.97267L7.80839 5.55845ZM3.30839 10.0585C3.42552 9.94133 3.58437 9.87553 3.75 9.87553V11.8755C4.1148 11.8755 4.46465 11.7306 4.72261 11.4727L3.30839 10.0585ZM3.75 9.87553C3.91563 9.87553 4.07448 9.94133 4.19161 10.0585L2.77739 11.4727C3.03534 11.7306 3.3852 11.8755 3.75 11.8755V9.87553ZM4.19161 10.0585C4.30873 10.1756 4.37452 10.3344 4.37452 10.5001H2.37452C2.37452 10.8649 2.51944 11.2147 2.77739 11.4727L4.19161 10.0585ZM4.37452 10.5001C4.37452 10.6657 4.30873 10.8245 4.19161 10.9417L2.77739 9.52745C2.51944 9.7854 2.37452 10.1353 2.37452 10.5001H4.37452ZM4.19154 10.9417L8.42679 6.70723L7.01271 5.29289L2.77745 9.52739L4.19154 10.9417ZM8.42679 5.29289L4.19154 1.05839L2.77745 2.47273L7.01271 6.70723L8.42679 5.29289ZM4.19071 1.05756C4.24891 1.11562 4.29509 1.18459 4.3266 1.26052L2.47933 2.02705C2.54864 2.1941 2.65024 2.34584 2.77829 2.47356L4.19071 1.05756ZM4.3266 1.26052C4.35811 1.33645 4.37433 1.41786 4.37433 1.50006H2.37433C2.37433 1.68092 2.41001 1.86 2.47933 2.02705L4.3266 1.26052ZM4.37433 1.50006C4.37433 1.58226 4.35811 1.66367 4.3266 1.7396L2.47933 0.973068C2.41001 1.14012 2.37433 1.3192 2.37433 1.50006H4.37433ZM4.3266 1.7396C4.29509 1.81553 4.24891 1.8845 4.19071 1.94256L2.77829 0.52656C2.65024 0.654285 2.54864 0.806017 2.47933 0.973068L4.3266 1.7396Z" fill="#9CA3AF" mask="url(#path-1-inside-1_1_15733)"/>
</svg>
