<svg width="20" height="20" viewBox="0 0 20 20" fill="none" xmlns="http://www.w3.org/2000/svg">
<rect width="20" height="20" rx="1" fill="#141A21"/>
<rect x="0.25" y="0.25" width="19.5" height="19.5" rx="0.75" stroke="#141A21" stroke-opacity="0.05" stroke-width="0.5"/>
<g clip-path="url(#clip0_1_15961)">
<path d="M13.6765 4.85303H7.51837C7.46782 4.85303 7.42646 4.89439 7.42646 4.94494V5.58832C7.42646 5.63887 7.46782 5.68023 7.51837 5.68023H13.2169V13.5846C13.2169 13.6352 13.2583 13.6766 13.3088 13.6766H13.9522C14.0027 13.6766 14.0441 13.6352 14.0441 13.5846V5.22067C14.0441 5.01732 13.8798 4.85303 13.6765 4.85303ZM12.2059 6.32362H6.32352C6.12016 6.32362 5.95587 6.48791 5.95587 6.69126V12.7885C5.95587 12.8861 5.99493 12.9792 6.06387 13.0481L8.05491 15.0391C8.08018 15.0644 8.1089 15.0851 8.13993 15.1023V15.1242H8.18818C8.22839 15.1391 8.2709 15.1471 8.31456 15.1471H12.2059C12.4092 15.1471 12.5735 14.9829 12.5735 14.7795V6.69126C12.5735 6.48791 12.4092 6.32362 12.2059 6.32362ZM8.13878 13.9546L7.14958 12.9642H8.13878V13.9546ZM11.7463 14.3199H8.87407V12.6885C8.87407 12.4346 8.66842 12.2289 8.41451 12.2289H6.78308V7.15082H11.7463V14.3199Z" fill="white"/>
</g>
<defs>
<clipPath id="clip0_1_15961">
<rect width="11.7647" height="11.7647" fill="white" transform="translate(4.11765 4.11768)"/>
</clipPath>
</defs>
</svg>
