<svg width="34" height="30" viewBox="0 0 34 30" fill="none" xmlns="http://www.w3.org/2000/svg">
<rect width="34" height="30" fill="#F9FAFB"/>
<g clip-path="url(#clip0_1_15887)">
<path d="M17.4375 16.375H24V17.4883L22.125 19.5977V22H19.3125V19.5977L17.4375 17.4883V16.375ZM21.1875 19.2461L22.9014 17.3125H18.5361L20.25 19.2461V21.0625H21.1875V19.2461ZM18.375 9.8125V10.75H12.75V9.8125H18.375ZM12.75 16.375V15.4375H16.5V16.375H12.75ZM9.9375 19.1875H17.6938L18.375 19.9565V20.125H9V7H20.25V15.4375H19.3125V7.9375H9.9375V19.1875ZM18.375 12.625V13.5625H12.75V12.625H18.375ZM11.8125 9.8125V10.75H10.875V9.8125H11.8125ZM11.8125 12.625V13.5625H10.875V12.625H11.8125ZM10.875 16.375V15.4375H11.8125V16.375H10.875Z" fill="#204A8C"/>
</g>
<defs>
<clipPath id="clip0_1_15887">
<rect width="15" height="15" fill="white" transform="translate(9 7)"/>
</clipPath>
</defs>
</svg>
