<svg width="16" height="16" viewBox="0 0 16 16" fill="none" xmlns="http://www.w3.org/2000/svg">
<path d="M8.66667 14V12.6667H9.33333C9.85556 12.6667 10.3193 12.564 10.7247 12.3587C11.1304 12.1529 11.3333 11.9222 11.3333 11.6667C11.3333 11.5111 11.2611 11.3667 11.1167 11.2333C10.9722 11.1 10.7722 10.9778 10.5167 10.8667L11.5 9.88333C11.8556 10.0944 12.1389 10.3444 12.35 10.6333C12.5611 10.9222 12.6667 11.2667 12.6667 11.6667C12.6667 12.4 12.3167 12.9722 11.6167 13.3833C10.9167 13.7944 10.1556 14 9.33333 14H8.66667ZM3.05 8.9C2.72778 8.71111 2.47222 8.49156 2.28333 8.24133C2.09444 7.99156 2 7.68889 2 7.33333C2 6.86667 2.17222 6.47489 2.51667 6.158C2.86111 5.84156 3.47778 5.48889 4.36667 5.1C5.06667 4.77778 5.51378 4.55267 5.708 4.42467C5.90267 4.29711 6 4.15556 6 4C6 3.82222 5.89156 3.66667 5.67467 3.53333C5.45822 3.4 5.12222 3.33333 4.66667 3.33333C4.27778 3.33333 3.95822 3.40556 3.708 3.55C3.45822 3.69444 3.33333 3.84444 3.33333 4H2C2 3.46667 2.24444 3 2.73333 2.6C3.22222 2.2 3.86667 2 4.66667 2C5.46667 2 6.11111 2.18044 6.6 2.54133C7.08889 2.90267 7.33333 3.38889 7.33333 4C7.33333 4.43333 7.17222 4.82222 6.85 5.16667C6.52778 5.51111 5.87778 5.89444 4.9 6.31667C4.25556 6.59444 3.83333 6.8 3.63333 6.93333C3.43333 7.06667 3.33333 7.2 3.33333 7.33333C3.33333 7.43333 3.39711 7.53067 3.52467 7.62533C3.65267 7.71956 3.82778 7.81111 4.05 7.9L3.05 8.9ZM12.5667 6.93333L9.73333 4.1L11.3833 2.45L14.2167 5.28333L12.5667 6.93333ZM4 12.6667H4.93333L9.73333 7.86667L8.8 6.93333L4 11.7333V12.6667ZM2.66667 14V11.1667L8.8 5.03333L11.6333 7.86667L5.5 14H2.66667Z" fill="#1F4A8C"/>
</svg>
