<svg width="16" height="16" viewBox="0 0 16 16" fill="none" xmlns="http://www.w3.org/2000/svg">
<path d="M5 5.33333V10.6667L7.66667 8L5 5.33333ZM3.33333 14C2.96667 14 2.65267 13.8696 2.39133 13.6087C2.13044 13.3473 2 13.0333 2 12.6667V3.33333C2 2.96667 2.13044 2.65267 2.39133 2.39133C2.65267 2.13044 2.96667 2 3.33333 2H12.6667C13.0333 2 13.3473 2.13044 13.6087 2.39133C13.8696 2.65267 14 2.96667 14 3.33333V12.6667C14 13.0333 13.8696 13.3473 13.6087 13.6087C13.3473 13.8696 13.0333 14 12.6667 14H3.33333ZM9.33333 12.6667V3.33333H3.33333V12.6667H9.33333Z" fill="#00B895"/>
</svg>
