<svg width="129" height="40" viewBox="0 0 129 40" fill="none" xmlns="http://www.w3.org/2000/svg">
<g clip-path="url(#clip0_1_15699)">
<path d="M20.0159 0C8.96406 0 0 8.95726 0 20.0007V40H4.18147V20.0007C4.18147 11.1988 11.2073 4.1783 20.0159 4.1783H30.4681V0H20.0159Z" fill="#00B895"/>
<path d="M35.8487 0V20.0007C35.8487 24.7826 33.7741 29.0386 30.4679 31.9276V8.70088H26.2864V34.553C24.9771 35.1112 23.574 35.4979 22.1049 35.6884V15.862H17.9235V35.8217H13.742V23.0231H9.56055V39.9985H20.0142C31.0661 39.9985 40.0287 31.0427 40.0287 19.9993V0H35.8487Z" fill="#1F4A8C"/>
<path d="M48.2491 16.9388C47.5659 16.659 47.0205 16.2444 46.6114 15.6965C46.2024 15.1485 45.9868 14.4878 45.9648 13.7157H49.0218C49.0658 14.1523 49.2168 14.4849 49.4748 14.7149C49.7329 14.9449 50.0686 15.0592 50.4821 15.0592C50.8955 15.0592 51.243 14.961 51.4908 14.7647C51.7371 14.5698 51.8602 14.2974 51.8602 13.9501C51.8602 13.6586 51.762 13.4183 51.567 13.2279C51.3705 13.0374 51.1301 12.8807 50.8442 12.7576C50.5583 12.6345 50.1522 12.4954 49.6258 12.3386C48.8634 12.1042 48.2432 11.8683 47.7609 11.6339C47.28 11.3995 46.8651 11.0523 46.5176 10.5937C46.1701 10.1352 45.9971 9.53597 45.9971 8.79759C45.9971 7.70174 46.3944 6.84176 47.1891 6.22058C47.9837 5.59941 49.0203 5.28882 50.2973 5.28882C51.5743 5.28882 52.6432 5.59941 53.4393 6.22058C54.2339 6.84176 54.6591 7.70614 54.7163 8.81371H51.6081C51.5861 8.4328 51.4453 8.13393 51.1887 7.91564C50.9307 7.69734 50.6008 7.58893 50.1976 7.58893C49.8501 7.58893 49.5701 7.68123 49.3575 7.86582C49.1449 8.05042 49.0379 8.31706 49.0379 8.66281C49.0379 9.04372 49.2168 9.33965 49.576 9.55209C49.9337 9.76452 50.4938 9.99453 51.2562 10.2407C52.0171 10.4985 52.6358 10.7446 53.1123 10.979C53.5888 11.2134 53.9994 11.5548 54.3468 12.0031C54.6943 12.4514 54.8673 13.0272 54.8673 13.7318C54.8673 14.4365 54.6958 15.0138 54.3556 15.5617C54.014 16.1096 53.5185 16.5462 52.869 16.8714C52.2194 17.1967 51.4527 17.3578 50.5671 17.3578C49.6815 17.3578 48.9323 17.2186 48.2491 16.9388Z" fill="#1F4A8C"/>
<path d="M56.8989 8.21889C57.4033 7.30617 58.1056 6.59563 59.0073 6.08726C59.9089 5.57889 60.9308 5.32397 62.073 5.32397C63.4732 5.32397 64.671 5.69317 65.668 6.43155C66.665 7.16993 67.3306 8.17787 67.6663 9.45246H64.5083C64.2737 8.9602 63.9394 8.58515 63.5083 8.32731C63.0773 8.06946 62.5876 7.942 62.0378 7.942C61.1522 7.942 60.4368 8.24966 59.8869 8.86498C59.3386 9.48029 59.0644 10.3036 59.0644 11.3321C59.0644 12.3606 59.3386 13.1839 59.8869 13.7992C60.4353 14.4146 61.1522 14.7222 62.0378 14.7222C62.5861 14.7222 63.0758 14.5933 63.5083 14.3369C63.9394 14.0791 64.2722 13.7055 64.5083 13.2118H67.6663C67.3306 14.4878 66.6635 15.4914 65.668 16.2253C64.671 16.9579 63.4732 17.3241 62.073 17.3241C60.9308 17.3241 59.9089 17.0692 59.0073 16.5608C58.1056 16.0525 57.4033 15.3434 56.8989 14.438C56.3946 13.5311 56.1424 12.4968 56.1424 11.3321C56.1424 10.1674 56.3946 9.13015 56.8989 8.21889Z" fill="#1F4A8C"/>
<path d="M71.9592 16.5872C71.0356 16.073 70.301 15.3536 69.7585 14.4307C69.2146 13.5077 68.9434 12.469 68.9434 11.3175C68.9434 10.1659 69.2146 9.13015 69.7585 8.21157C70.301 7.29446 71.0356 6.57805 71.9592 6.06236C72.8829 5.54813 73.899 5.29028 75.0074 5.29028C76.1158 5.29028 77.1318 5.54813 78.057 6.06236C78.9806 6.57659 79.7093 7.29299 80.2401 8.21157C80.7723 9.12869 81.0376 10.1645 81.0376 11.3175C81.0376 12.4704 80.7693 13.5077 80.2313 14.4307C79.6932 15.3536 78.966 16.073 78.0482 16.5872C77.1304 17.1014 76.1158 17.3593 75.0074 17.3593C73.899 17.3593 72.8829 17.1014 71.9592 16.5872ZM77.2682 13.8007C77.8341 13.1737 78.1171 12.3459 78.1171 11.316C78.1171 10.2861 77.8341 9.44367 77.2682 8.82396C76.7022 8.20278 75.9486 7.89219 75.0088 7.89219C74.069 7.89219 73.2978 8.19985 72.7334 8.81517C72.1674 9.43049 71.8845 10.2641 71.8845 11.316C71.8845 12.3679 72.1674 13.1883 72.7334 13.808C73.2993 14.4292 74.0573 14.7398 75.0088 14.7398C75.9604 14.7398 76.7022 14.4263 77.2682 13.7992V13.8007Z" fill="#1F4A8C"/>
<path d="M85.4565 5.45874V12.5085C85.4565 13.2132 85.6295 13.7567 85.977 14.1362C86.3245 14.5171 86.8333 14.7075 87.5062 14.7075C88.1792 14.7075 88.6923 14.5171 89.0515 14.1362C89.4093 13.7553 89.5896 13.2132 89.5896 12.5085V5.45874H92.4618V12.4924C92.4618 13.5443 92.2375 14.4336 91.7903 15.1617C91.3417 15.8898 90.7405 16.4378 89.984 16.8069C89.2275 17.1761 88.3859 17.3607 87.4564 17.3607C86.5268 17.3607 85.6955 17.1791 84.9624 16.8157C84.2294 16.4524 83.6488 15.9045 83.2236 15.1705C82.7984 14.438 82.5858 13.5458 82.5858 12.4939V5.46021H85.458L85.4565 5.45874Z" fill="#1F4A8C"/>
<path d="M102.961 5.45874V7.75885H99.8364V17.2435H96.9642V7.75739H93.8398V5.45728H102.961V5.45874Z" fill="#1F4A8C"/>
<path d="M53.254 27.8636C52.9739 28.3896 52.5253 28.8173 51.9095 29.147C51.2937 29.4766 50.5035 29.6422 49.5417 29.6422H47.4246V34.3757H45.5098V22.7096H49.5417C50.4375 22.7096 51.197 22.8634 51.8172 23.1711C52.4388 23.4787 52.9036 23.8963 53.2115 24.4222C53.5194 24.9482 53.6733 25.5357 53.6733 26.1847C53.6733 26.778 53.5326 27.3377 53.2525 27.8636H53.254ZM51.1706 27.5867C51.5283 27.2571 51.7087 26.7897 51.7087 26.1847C51.7087 24.9086 50.9858 24.2713 49.5417 24.2713H47.4246V28.0819H49.5417C50.2689 28.0819 50.8128 27.9163 51.1706 27.5867Z" fill="#00B895"/>
<path d="M61.5701 34.3757L58.8826 29.7096H57.4208V34.3757H55.506V22.7096H59.538C60.4338 22.7096 61.1933 22.8664 61.8134 23.1799C62.4351 23.4934 62.8998 23.9124 63.2077 24.4383C63.5156 24.9643 63.6696 25.5518 63.6696 26.2008C63.6696 26.9626 63.4482 27.6526 63.0054 28.2738C62.5626 28.895 61.8823 29.3169 60.9645 29.5411L63.8543 34.3757H61.5701ZM57.4208 28.1815H59.538C60.2549 28.1815 60.7945 28.0028 61.1595 27.6439C61.5231 27.2864 61.7049 26.8044 61.7049 26.2008C61.7049 25.5972 61.5261 25.124 61.1669 24.7826C60.8077 24.4413 60.2652 24.2713 59.538 24.2713H57.4208V28.183V28.1815Z" fill="#00B895"/>
<path d="M68.4477 33.7297C67.5343 33.2213 66.813 32.5107 66.2807 31.598C65.7485 30.6868 65.4832 29.6598 65.4832 28.517C65.4832 27.3743 65.7485 26.3517 66.2807 25.4448C66.813 24.538 67.5343 23.8304 68.4477 23.322C69.3597 22.8136 70.3596 22.5587 71.446 22.5587C72.5324 22.5587 73.5485 22.8136 74.4619 23.322C75.3738 23.8318 76.0937 24.5395 76.6201 25.4448C77.1464 26.3517 77.4088 27.3758 77.4088 28.517C77.4088 29.6583 77.1449 30.6853 76.6201 31.598C76.0937 32.5107 75.3738 33.2213 74.4619 33.7297C73.5485 34.2395 72.5441 34.4929 71.446 34.4929C70.3478 34.4929 69.3597 34.238 68.4477 33.7297ZM73.5118 32.3027C74.1159 31.9496 74.5894 31.4471 74.931 30.7922C75.2727 30.1374 75.4427 29.3799 75.4427 28.517C75.4427 27.6541 75.2712 26.8996 74.931 26.2506C74.5894 25.6016 74.1159 25.1035 73.5118 24.7563C72.9078 24.4091 72.2187 24.2362 71.446 24.2362C70.6733 24.2362 69.9842 24.4105 69.3802 24.7563C68.7761 25.1035 68.3026 25.6016 67.961 26.2506C67.6193 26.8996 67.4478 27.6556 67.4478 28.517C67.4478 29.3785 67.6179 30.1374 67.961 30.7922C68.3026 31.4471 68.7761 31.9511 69.3802 32.3027C69.9842 32.6558 70.6733 32.8316 71.446 32.8316C72.2187 32.8316 72.9078 32.6558 73.5118 32.3027Z" fill="#00B895"/>
<path d="M81.0218 34.0827C80.3943 33.8088 79.9017 33.4191 79.5439 32.9166C79.1847 32.4126 79.0059 31.8251 79.0059 31.1541H81.0555C81.0995 31.6581 81.2989 32.0712 81.6523 32.3965C82.0056 32.7217 82.5012 32.8829 83.1389 32.8829C83.7767 32.8829 84.3148 32.7232 84.6843 32.4038C85.0537 32.0844 85.2385 31.6742 85.2385 31.1702C85.2385 30.7791 85.1241 30.4597 84.8939 30.2136C84.6637 29.9674 84.3793 29.777 84.0377 29.6422C83.6961 29.5074 83.2225 29.3624 82.6185 29.2056C81.8561 29.0034 81.2373 28.7998 80.7623 28.5932C80.2858 28.3866 79.8812 28.0643 79.5439 27.6278C79.2082 27.1912 79.0396 26.6096 79.0396 25.8814C79.0396 25.2104 79.2082 24.623 79.5439 24.119C79.8797 23.615 80.3503 23.2297 80.9544 22.9601C81.5584 22.692 82.2592 22.5573 83.0539 22.5573C84.1843 22.5573 85.1124 22.84 85.8337 23.4055C86.5565 23.971 86.9568 24.746 87.0345 25.7305H84.9174C84.8837 25.3057 84.6828 24.9423 84.3133 24.6391C83.9439 24.3358 83.4571 24.1864 82.8516 24.1864C82.3032 24.1864 81.8546 24.327 81.5071 24.6068C81.1596 24.8867 80.9866 25.2896 80.9866 25.8155C80.9866 26.1744 81.0966 26.4674 81.3136 26.6975C81.532 26.9275 81.8091 27.1091 82.1449 27.2424C82.4806 27.3772 82.9395 27.5223 83.5216 27.679C84.2943 27.8915 84.9247 28.1039 85.4115 28.3163C85.8982 28.5288 86.3132 28.8569 86.6548 29.2979C86.9964 29.7403 87.1665 30.3308 87.1665 31.0691C87.1665 31.6625 87.0067 32.2221 86.687 32.7481C86.3674 33.274 85.9026 33.696 85.2927 34.0153C84.6828 34.3347 83.9629 34.4929 83.1345 34.4929C82.3502 34.4929 81.6449 34.3567 81.0174 34.0813L81.0218 34.0827Z" fill="#00B895"/>
<path d="M97.1817 27.8636C96.9017 28.3896 96.453 28.8173 95.8372 29.147C95.2215 29.4766 94.4312 29.6422 93.4694 29.6422H91.3523V34.3757H89.4375V22.7096H93.4694C94.3652 22.7096 95.1247 22.8634 95.7449 23.1711C96.3665 23.4787 96.8313 23.8963 97.1392 24.4222C97.4471 24.9482 97.601 25.5357 97.601 26.1847C97.601 26.778 97.4603 27.3377 97.1803 27.8636H97.1817ZM95.0983 27.5867C95.4561 27.2571 95.6364 26.7897 95.6364 26.1847C95.6364 24.9086 94.9136 24.2713 93.4694 24.2713H91.3523V28.0819H93.4694C94.1966 28.0819 94.7406 27.9163 95.0983 27.5867Z" fill="#00B895"/>
<path d="M101.348 24.2538V27.6775H105.38V29.2393H101.348V32.8154H105.883V34.3772H99.4316V22.6935H105.883V24.2552H101.348V24.2538Z" fill="#00B895"/>
<path d="M108.394 25.4463C108.926 24.5395 109.648 23.8318 110.561 23.3235C111.473 22.8151 112.473 22.5602 113.56 22.5602C114.803 22.5602 115.908 22.8649 116.877 23.4744C117.847 24.0838 118.549 24.9482 118.986 26.0675H116.684C116.382 25.4522 115.961 24.9936 115.424 24.6903C114.886 24.3886 114.265 24.2377 113.56 24.2377C112.787 24.2377 112.098 24.412 111.494 24.7577C110.89 25.105 110.416 25.6031 110.074 26.2521C109.733 26.9011 109.561 27.6571 109.561 28.5185C109.561 29.3799 109.731 30.1359 110.074 30.7849C110.416 31.4339 110.89 31.935 111.494 32.2866C112.098 32.6397 112.787 32.8155 113.56 32.8155C114.265 32.8155 114.886 32.6646 115.424 32.3628C115.963 32.061 116.382 31.6024 116.684 30.9856H118.986C118.549 32.1049 117.847 32.9664 116.877 33.57C115.908 34.1736 114.803 34.4768 113.56 34.4768C112.461 34.4768 111.46 34.2219 110.552 33.7135C109.645 33.2037 108.925 32.4961 108.394 31.5907C107.862 30.6838 107.597 29.6598 107.597 28.5185C107.597 27.3772 107.862 26.3532 108.394 25.4463Z" fill="#00B895"/>
<path d="M128.762 22.7096V24.2713H125.654V34.3757H123.739V24.2713H120.615V22.7096H128.762Z" fill="#00B895"/>
</g>
<defs>
<clipPath id="clip0_1_15699">
<rect width="128.762" height="40" fill="white"/>
</clipPath>
</defs>
</svg>
