<svg width="16" height="16" viewBox="0 0 16 16" fill="none" xmlns="http://www.w3.org/2000/svg">
<path d="M13.7778 13.7778H2.22222C2.10434 13.7778 1.9913 13.8246 1.90795 13.9079C1.8246 13.9913 1.77777 14.1043 1.77777 14.2222C1.77777 14.3401 1.8246 14.4531 1.90795 14.5365C1.9913 14.6198 2.10434 14.6667 2.22222 14.6667H13.7778C13.8956 14.6667 14.0087 14.6198 14.092 14.5365C14.1754 14.4531 14.2222 14.3401 14.2222 14.2222C14.2222 14.1043 14.1754 13.9913 14.092 13.9079C14.0087 13.8246 13.8956 13.7778 13.7778 13.7778Z" fill="#223484"/>
<path d="M7.99995 13.1022L12.7155 8.38666C12.7883 8.30164 12.8264 8.19227 12.822 8.08041C12.8177 7.96856 12.7713 7.86245 12.6922 7.7833C12.613 7.70414 12.5069 7.65778 12.3951 7.65345C12.2832 7.64913 12.1739 7.68718 12.0888 7.75999L8.44439 11.4V2.22222C8.44439 2.10434 8.39757 1.9913 8.31422 1.90795C8.23087 1.8246 8.11782 1.77777 7.99995 1.77777C7.88207 1.77777 7.76903 1.8246 7.68568 1.90795C7.60233 1.9913 7.5555 2.10434 7.5555 2.22222V11.4L3.9155 7.75999C3.87566 7.71347 3.82663 7.67568 3.77149 7.649C3.71635 7.62233 3.65629 7.60734 3.59508 7.60497C3.53387 7.60261 3.47284 7.61292 3.4158 7.63527C3.35877 7.65761 3.30697 7.6915 3.26366 7.73481C3.22035 7.77813 3.18645 7.82993 3.16411 7.88696C3.14176 7.94399 3.13145 8.00503 3.13382 8.06624C3.13618 8.12745 3.15117 8.18751 3.17785 8.24265C3.20452 8.29779 3.24231 8.34682 3.28884 8.38666L7.99995 13.1022Z" fill="#223484"/>
</svg>
