<svg width="316" height="69" viewBox="0 0 316 69" fill="none" xmlns="http://www.w3.org/2000/svg">
<path d="M69.6521 0C72.935 5.75 76.218 11.5 79.5009 17.2058C72.935 17.25 66.3247 17.25 59.7588 17.2942C58.7828 17.2942 57.8511 17.25 56.8751 17.25C51.2408 17.2058 45.5622 17.2058 39.9279 17.2058C42.1018 13.4904 44.2756 9.81923 46.4051 6.10385C47.5586 4.11346 48.6233 2.03462 49.6881 0C56.3427 0 62.9974 0 69.6521 0Z" fill="#019DD7"/>
<path d="M49.6881 0C48.579 2.03462 47.5586 4.06923 46.4052 6.10385C44.2757 9.81923 42.1018 13.4904 39.928 17.2058C39.8392 17.2942 39.7061 17.3385 39.573 17.3385C33.0515 17.2942 26.5299 17.25 20.0084 17.25C21.2949 14.8615 22.5815 12.4731 23.9124 10.1288C25.8201 6.72308 27.7721 3.36154 29.7242 0C36.3788 0 43.0335 0 49.6881 0Z" fill="#02BAF0"/>
<path d="M0 50.8653C0.443644 50.2903 0.931652 49.7596 1.28657 49.1846C3.99279 44.5403 6.69902 39.8961 9.40525 35.2076C9.44961 35.075 9.62707 35.0307 9.7158 34.9423C10.0707 35.1634 10.5144 35.2961 10.6918 35.6057C11.6678 37.1538 12.5995 38.7019 13.5311 40.25C15.3944 43.4788 17.2134 46.7076 19.0767 49.8923C19.3429 50.2903 19.9196 50.5115 20.3633 50.8211C20.0083 51.573 19.6534 52.3692 19.2541 53.1211C16.7697 57.4999 14.2853 61.8788 11.8009 66.2134C11.4016 66.9653 10.9136 67.6288 10.2925 68.5576C8.56233 65.6384 6.92084 62.8519 5.32373 60.1096C3.81534 57.5442 2.30695 54.9346 0.798559 52.3692C0.621101 52.0596 0.266186 51.8826 0 51.6615C0 51.4403 0 51.1749 0 50.8653Z" fill="#CDEAF2"/>
<path d="M314.588 21.7173C314.277 22.1154 313.967 22.5134 313.567 23.0442C313.213 22.6461 312.902 22.2923 312.503 21.85C312.37 22.5577 312.237 23.1769 312.015 24.15C310.861 22.8231 311.704 21.4961 311.127 20.2577C310.773 20.3019 310.285 20.3019 309.752 20.3904C309.708 21.5846 309.619 22.6904 309.575 23.8404C308.377 22.9557 308.909 21.8057 308.643 20.7C308.332 20.4788 307.889 20.2134 307.445 19.948C307.49 19.8596 307.534 19.7269 307.534 19.6384C309.087 19.6384 310.595 19.6384 312.325 19.6384C312.636 20.0807 313.035 20.6557 313.434 21.2307C314.41 21.0096 314.1 19.2846 315.475 19.5942C315.608 20.7442 315.741 21.9384 315.874 23.0884C315.874 23.3981 315.874 23.6634 315.874 23.9731C315.564 23.8846 315.209 23.8404 314.765 23.7519C314.81 23.1327 314.81 22.5134 314.854 21.9384C314.854 21.8057 314.854 21.6731 314.81 21.5404C314.765 21.4961 314.677 21.6288 314.588 21.7173Z" fill="#273887"/>
<path d="M49.6881 69C49.6881 68.8673 49.6881 68.7346 49.6881 68.6019C49.8212 68.5577 49.9986 68.5135 50.1317 68.4692C56.6533 68.5135 63.1305 68.5135 69.652 68.5577C69.652 68.6904 69.652 68.8231 69.652 69C62.9974 69 56.3427 69 49.6881 69Z" fill="#CDEAF2"/>
<path d="M315.874 22.9999C315.741 21.8499 315.608 20.6557 315.475 19.5057C315.608 19.3288 315.741 19.1961 315.874 19.0192C315.874 20.3461 315.874 21.673 315.874 22.9999Z" fill="#0D6EAF"/>
<path d="M108.16 47.4596C108.16 53.2096 108.16 58.4731 108.16 63.9135C105.72 63.9135 103.369 63.9135 100.885 63.9135C100.84 63.5154 100.707 63.0288 100.707 62.5423C100.707 53.2538 100.574 43.9654 100.752 34.7212C100.885 27.4231 104.611 20.4346 112.996 18.3558C120.361 16.5423 127.015 17.825 132.028 23.9289C138.994 32.4212 136.376 48.3885 123.067 51.4846C118.187 52.6346 113.528 51.9269 109.536 48.6096C109.225 48.3442 108.87 48.0789 108.16 47.4596ZM127.947 34.8539C127.903 34.1904 127.858 33.5269 127.769 32.8635C127.193 28.3077 123.865 25.0789 118.852 24.5039C115.259 24.1058 110.734 25.9192 108.915 30.3423C108.072 32.3769 107.983 34.5 108.205 36.6231C109.003 43.3462 116.146 47.2385 122.268 44.3192C126.261 42.4173 127.814 39.0115 127.947 34.8539Z" fill="#223484"/>
<path d="M227.146 51.0423C225.194 51.2635 223.463 51.5731 221.689 51.6173C217.208 51.7058 212.683 51.8827 208.202 51.6616C206.028 51.5731 203.854 50.9096 201.814 50.0692C197.421 48.3 196.046 45.0712 196.312 40.5154C196.712 33.9692 200.66 31.6692 207.004 31.0058C210.642 30.6077 214.369 30.9173 218.051 30.9173C218.539 30.9173 219.071 30.9173 219.559 30.9173C219.737 27.4231 218.184 25.0789 214.945 24.3269C210.864 23.3981 206.738 23.3539 202.79 25.1231C202.257 25.3442 201.725 25.6096 201.192 25.8308C198.353 23.6635 198.575 20.4789 201.769 19.0192C203.233 18.3558 204.875 17.9577 206.427 17.825C210.198 17.4712 213.925 17.5596 217.652 18.5769C223.774 20.2135 227.146 24.4596 227.19 30.6962C227.234 37.0212 227.19 43.3462 227.19 49.7154C227.234 50.0692 227.19 50.4231 227.146 51.0423ZM219.825 36.6231C218.406 36.4462 217.119 36.1808 215.788 36.0923C212.86 35.9154 209.888 35.7385 207.049 36.7116C204.875 37.4635 203.766 39.1885 203.81 41.4442C203.854 43.6116 204.919 45.2039 207.137 45.8231C211.308 46.9289 215.522 46.6635 219.781 45.9116C219.825 42.8154 219.825 39.8962 219.825 36.6231Z" fill="#223484"/>
<path d="M176.215 34.8537C176.526 43.6999 169.339 51.9268 158.47 52.0153C148.31 52.1037 140.502 44.496 140.591 34.721C140.635 24.9018 148.266 17.6922 158.47 17.6922C168.94 17.648 176.57 25.7422 176.215 34.8537ZM158.381 24.2826C152.613 24.2826 148.354 28.7941 148.354 34.898C148.354 40.7806 152.702 45.3806 158.292 45.3806C164.193 45.3806 168.452 41.046 168.407 34.8537C168.407 27.5114 163.305 24.2383 158.381 24.2826Z" fill="#223484"/>
<path d="M302.609 26.5827C298.439 23.9288 293.781 23.1327 288.901 23.4865C287.792 23.575 286.683 23.7961 285.662 24.1942C284.021 24.7692 283.267 25.875 283.311 27.3346C283.355 28.8827 284.287 29.8557 285.662 30.1654C288.014 30.6961 290.409 31.05 292.805 31.448C295.068 31.8461 297.286 32.2442 299.548 32.6865C300.125 32.8192 300.657 33.0404 301.234 33.2615C307.312 35.9596 308.643 43.5673 303.896 48.2115C302.033 50.025 299.77 50.998 297.241 51.4403C289.966 52.7673 283 51.75 276.346 48.6096C276.035 48.4769 275.725 48.2115 275.281 47.9019C276.168 46.2654 277.056 44.673 277.854 43.2134C280.915 44.0538 283.799 45.0711 286.816 45.6904C289.788 46.3096 292.849 46.3538 295.822 45.5134C296.798 45.2038 297.907 44.5846 298.484 43.7884C299.726 41.975 298.617 39.675 296.177 39.0557C294.136 38.525 291.962 38.3038 289.833 38.0384C286.993 37.6404 284.11 37.4634 281.403 36.2692C278.387 34.9423 276.301 32.775 275.902 29.3692C275.503 25.5654 276.612 22.425 279.939 20.2134C282.069 18.798 284.509 18.1346 286.993 17.8692C291.119 17.4711 295.245 17.5596 299.326 18.6211C300.391 18.8865 301.456 19.2846 302.388 19.8154C305.671 21.6288 305.759 24.2384 302.609 26.5827Z" fill="#223484"/>
<path d="M190.057 51.0423C187.528 51.0423 185.266 51.0423 182.826 51.0423C182.781 50.3789 182.693 49.7154 182.693 49.0962C182.693 35.2962 182.693 21.5404 182.693 7.74042C182.693 4.33465 183.846 3.22888 187.262 3.49426C188.194 3.53849 189.125 3.84811 190.057 4.02503C190.057 19.7712 190.057 35.2962 190.057 51.0423Z" fill="#273887"/>
<path d="M89.2167 34.5C88.6844 35.5173 88.1964 36.5788 87.6196 37.5962C84.7359 42.5058 81.8523 47.3712 78.9686 52.2808C78.3031 52.1038 77.6376 51.8385 76.9722 51.7942C71.2492 51.75 65.5705 51.75 59.8475 51.75C59.8475 51.5731 59.8475 51.3962 59.8032 51.2192C60.0693 50.6885 60.2912 50.1577 60.5574 49.6712C63.4854 44.6288 66.3691 39.5865 69.2971 34.5C75.9962 34.5 82.6065 34.5 89.2167 34.5Z" fill="#0D6EAF"/>
<path d="M89.2167 34.5C82.6065 34.5 75.9962 34.5 69.3415 34.5C68.9422 33.6596 68.5429 32.775 68.0993 31.9788C65.3487 27.0692 62.5537 22.2038 59.7588 17.3385C66.3247 17.2942 72.935 17.2942 79.5009 17.25C82.6952 22.7346 85.9338 28.2192 89.128 33.7038C89.2611 33.8808 89.1724 34.2346 89.2167 34.5Z" fill="#028DC0"/>
<path d="M242.23 51.0423C239.701 51.0423 237.349 51.0423 234.865 51.0423C234.821 50.5115 234.732 49.9365 234.688 49.4057C234.688 43.3019 234.688 37.1538 234.688 31.05C234.688 29.9442 234.688 28.8384 234.909 27.7327C235.93 21.9827 239.479 18.6653 245.734 17.825C248.662 17.4269 251.635 17.5153 254.474 18.5327C258.156 19.8153 258.866 22.6903 256.204 25.6096C254.696 25.2557 253.232 24.6807 251.724 24.548C250.082 24.4153 248.307 24.4153 246.71 24.8134C243.649 25.6538 242.584 28.1307 242.274 31.05C242.141 32.2884 242.23 33.5711 242.23 34.8096C242.23 39.4538 242.23 44.098 242.23 48.7423C242.23 49.4942 242.23 50.2019 242.23 51.0423Z" fill="#223484"/>
<path d="M59.892 51.75C65.615 51.75 71.338 51.75 77.0167 51.7942C77.6821 51.7942 78.3476 52.1038 79.0131 52.2808C76.2625 57.1019 73.5119 61.9231 70.8057 66.7442C70.4507 67.3634 70.0515 67.9827 69.6965 68.6461C63.175 68.6019 56.6978 68.6019 50.1762 68.5577C50.3093 68.1596 50.398 67.7173 50.6199 67.3192C52.2613 64.4885 53.8585 61.6135 55.5443 58.7827C56.9196 56.3942 58.428 54.0942 59.892 51.75Z" fill="#0167B2"/>
<path d="M269.292 19.2403C269.292 29.9 269.292 40.3826 269.292 51.0423C266.896 51.0423 264.545 51.0423 262.016 51.0423C261.972 50.2461 261.927 49.5384 261.927 48.8307C261.927 40.3384 262.06 31.8903 261.883 23.398C261.794 18.5769 264.589 18.223 267.828 18.798C268.227 18.8423 268.671 19.0192 269.292 19.2403Z" fill="#273887"/>
<path d="M270.179 8.53655C270.179 11.1904 268.227 13.1808 265.654 13.1366C263.125 13.0923 261.262 11.1904 261.218 8.62502C261.218 5.97117 263.17 3.98078 265.743 4.02501C268.271 4.06925 270.179 6.0154 270.179 8.53655Z" fill="#273887"/>
<path d="M314.588 21.7173C314.677 21.6288 314.721 21.5404 314.81 21.4519C314.81 21.5846 314.81 21.7173 314.854 21.85C314.765 21.8058 314.677 21.7615 314.588 21.7173Z" fill="#0D6EAF"/>
<path d="M59.892 51.75C58.428 54.0942 56.9196 56.3942 55.4999 58.7827C53.8141 61.6134 52.2169 64.4442 50.5755 67.3192C50.3536 67.673 50.2649 68.1153 50.1318 68.5577C49.9987 68.6019 49.8213 68.6461 49.6882 68.6903C46.3165 62.9404 42.9892 57.1461 39.6175 51.3961C39.8393 51.3961 40.1055 51.3519 40.3273 51.3519C46.7158 51.3519 53.1486 51.3519 59.5371 51.3519C59.6258 51.3077 59.7145 51.3077 59.8476 51.2634C59.8476 51.3961 59.8476 51.573 59.892 51.75Z" fill="#134A9E"/>
<path d="M20.4077 50.8655C19.964 50.5559 19.3429 50.379 19.1211 49.9367C17.2134 46.7521 15.4389 43.5232 13.5756 40.2944C12.6883 38.7021 11.7123 37.154 10.7362 35.6501C10.5588 35.3405 10.0708 35.2078 9.76022 34.9867C9.93768 34.6771 10.0708 34.4117 10.2482 34.1021C16.7698 34.1021 23.247 34.1021 29.7686 34.1021C29.946 34.1463 30.1235 34.1463 30.3009 34.1905H30.2566C30.2122 34.4559 30.1678 34.7213 30.1235 34.9867C29.5024 35.7386 28.7482 36.4021 28.2602 37.2424C25.5539 41.7097 22.9808 46.3097 20.4077 50.8655Z" fill="#9AD9F0"/>
<path d="M30.079 34.9423C30.1234 34.6769 30.1678 34.4115 30.2121 34.1461C31.0107 34.1903 31.8093 34.2788 32.6078 34.2788C38.1534 34.323 43.7433 34.323 49.2888 34.3673C49.067 34.9865 48.9339 35.65 48.6234 36.1807C46.7601 39.4096 44.8524 42.55 43.0334 45.823C42.0574 47.5923 40.549 49.0961 40.3716 51.2634C40.1498 51.2634 39.8836 51.3077 39.6618 51.3077C36.4232 45.8673 33.2289 40.3827 30.079 34.9423Z" fill="#1B1F64"/>
<path d="M29.7241 34.0577C23.2026 34.0577 16.7254 34.0577 10.2038 34.0577C11.934 30.9173 13.6642 27.8212 15.4388 24.6808C16.3704 23.0443 17.3021 21.3635 18.2781 19.727C18.7218 18.975 19.2985 18.3116 19.8309 17.6039C20.2301 18.002 20.6738 18.3558 20.9843 18.8423C21.916 20.3462 22.8033 21.85 23.6906 23.3539C25.687 26.9366 27.6834 30.5193 29.7241 34.0577Z" fill="#80D0EE"/>
<path d="M29.7241 34.0577C27.7278 30.5192 25.687 26.9365 23.6462 23.3981C22.7589 21.8942 21.8717 20.3462 20.94 18.8865C20.6295 18.4442 20.1858 18.0904 19.7865 17.6481C19.8309 17.5154 19.9196 17.3827 19.964 17.25C26.4855 17.2942 33.0071 17.2942 39.573 17.3385C38.0646 20.0808 36.5119 22.8231 35.0035 25.5212C33.4064 28.3962 31.8536 31.2711 30.2565 34.1019C30.0791 34.1019 29.9016 34.1019 29.7241 34.0577Z" fill="#53C5ED"/>
<path d="M49.2888 34.4116C49.6437 34.7212 50.1317 34.9424 50.3536 35.2962C53.4591 40.6039 56.5202 45.9558 59.5814 51.2635C53.1929 51.2635 46.7601 51.2635 40.3716 51.2635C40.549 49.0962 42.0574 47.5924 43.0334 45.8232C44.8524 42.5943 46.7601 39.4097 48.6234 36.1809C48.8895 35.6501 49.067 34.9866 49.2888 34.4116Z" fill="#223484"/>
</svg>
