<svg width="1798" height="1493" viewBox="0 0 1798 1493" fill="none" xmlns="http://www.w3.org/2000/svg">
<g opacity="0.25">
<path d="M1343.97 -0.000119583C1419.94 112.368 1495.9 224.736 1571.8 336.2C1437.75 347.275 1302.72 357.515 1168.67 368.59C1148.73 370.102 1129.64 370.641 1109.7 372.153C994.54 379.978 878.544 388.775 763.454 397.503C802.104 318.242 840.821 239.885 878.564 160.693C899.043 118.249 917.572 74.1358 936.169 30.9259C1072.1 20.6172 1208.03 10.3086 1343.97 -0.000119583Z" fill="#019DD7"/>
<path d="M936.17 30.9259C916.666 74.2045 898.975 117.346 878.565 160.693C840.822 239.885 802.105 318.242 763.455 397.503C761.78 399.447 759.13 400.557 756.411 400.763C623.129 409.962 489.846 419.161 356.632 429.263C379.212 378.482 401.793 327.7 425.348 277.754C459.039 205.23 493.706 133.541 528.372 61.8519C664.305 51.5432 800.237 41.2346 936.17 30.9259Z" fill="#02BAF0"/>
<path d="M-2.93157e-05 1146.91C8.17143 1134.48 17.3176 1122.88 23.6766 1110.58C71.7616 1011.53 119.847 912.467 167.863 812.505C168.564 809.726 172.12 808.548 173.796 806.603C181.388 810.571 190.656 812.594 194.76 818.644C217.095 848.754 238.524 878.933 259.952 909.111C303.015 972.18 345.172 1035.32 388.167 1097.48C394.22 1105.2 406.344 1108.82 415.886 1114.46C409.801 1130.37 403.784 1147.18 396.793 1163.16C352.828 1256.46 308.863 1349.75 264.83 1442.14C257.838 1458.12 248.898 1472.43 237.65 1492.36C197.785 1435.41 159.938 1381.03 123.066 1327.49C88.2809 1277.43 53.4269 1226.46 18.6415 1176.39C14.537 1170.34 7.01319 1167.28 1.23329 1163.17C0.8907 1158.66 0.479593 1153.23 -2.93157e-05 1146.91Z" fill="#CDEAF2"/>
<path d="M1043.06 1440.37C1042.85 1437.66 1042.65 1434.95 1042.44 1432.24C1045.09 1431.13 1048.65 1429.95 1051.3 1428.84C1184.58 1419.64 1316.89 1409.61 1450.17 1400.41C1450.38 1403.12 1450.58 1405.83 1450.85 1409.44C1314.92 1419.75 1178.99 1430.06 1043.06 1440.37Z" fill="#CDEAF2"/>
<path d="M1798 672.256C1788.7 693.861 1780.38 716.3 1770.17 737.974C1718.87 842.729 1667.51 946.579 1616.21 1051.33C1602.34 1048.75 1588.34 1044.36 1574.67 1044.49C1457.7 1052.45 1341.71 1061.25 1224.8 1070.11C1224.53 1066.5 1224.26 1062.88 1223.08 1059.34C1227.69 1048.08 1231.4 1036.9 1236.08 1026.55C1288.08 919.015 1339.18 811.55 1391.11 703.113C1527.95 692.736 1662.97 682.496 1798 672.256Z" fill="#0D6EAF"/>
<path d="M1796.94 672.977C1661.92 683.217 1526.89 693.457 1390.96 703.766C1381.5 687.218 1371.97 669.767 1361.68 654.191C1297.89 558.165 1233.26 463.111 1168.63 368.057C1302.68 356.982 1437.71 346.742 1571.76 335.667C1645.5 442.752 1720.15 549.767 1793.9 656.852C1796.89 660.26 1795.63 667.625 1796.94 672.977Z" fill="#028DC0"/>
<path d="M1224.77 1072.2C1341.67 1063.34 1458.57 1054.47 1574.64 1046.58C1588.23 1045.55 1602.3 1050.84 1616.17 1053.42C1567.45 1156.16 1518.73 1258.91 1470.92 1361.58C1464.63 1374.78 1457.44 1388.04 1451.21 1402.15C1317.93 1411.34 1185.62 1421.38 1052.34 1430.58C1054.44 1422.24 1055.57 1413.07 1059.48 1404.59C1088.63 1344.23 1116.8 1283.03 1146.85 1222.59C1171.24 1171.67 1198.49 1122.35 1224.77 1072.2Z" fill="#0167B2"/>
<path d="M1224.77 1072.2C1198.49 1122.35 1171.24 1171.67 1145.94 1222.66C1115.89 1283.09 1087.65 1343.39 1058.58 1404.66C1054.59 1412.23 1053.47 1421.4 1051.43 1430.65C1048.78 1431.76 1045.23 1432.93 1042.58 1434.04C964.798 1321.81 887.856 1208.61 810.076 1096.38C814.607 1096.04 819.976 1094.72 824.507 1094.38C955.002 1084.48 1086.4 1074.52 1216.9 1064.62C1218.64 1063.58 1220.46 1063.44 1223.11 1062.33C1223.31 1065.04 1223.59 1068.66 1224.77 1072.2Z" fill="#134A9E"/>
<path d="M416.861 1115.3C407.319 1109.66 394.358 1107.01 389.142 1098.32C345.241 1036.22 303.991 973.016 260.928 909.947C240.337 878.796 218.002 848.686 195.735 819.479C191.631 813.43 181.457 811.475 174.771 807.439C177.916 800.84 180.223 795.212 183.369 788.613C316.583 778.511 448.891 768.477 582.105 758.374C585.798 759.003 589.423 758.728 593.117 759.357L592.21 759.425C591.715 764.915 591.22 770.405 590.725 775.894C579.203 792.216 564.825 806.936 556.158 824.859C507.799 920.303 462.364 1018.25 416.861 1115.3Z" fill="#9AD9F0"/>
<path d="M589.75 775.058C590.245 769.568 590.74 764.078 591.235 758.589C607.616 758.255 624.065 758.825 640.377 757.588C753.722 749.901 867.906 741.242 981.252 733.555C977.68 746.547 975.989 760.306 970.468 771.629C937.408 840.47 903.306 907.573 871.221 977.248C854.025 1014.9 825.543 1047.96 825.276 1092.5C820.744 1092.84 815.376 1094.16 810.845 1094.5C736.263 988.392 662.519 881.307 589.75 775.058Z" fill="#1B1F64"/>
<path d="M581.13 757.539C447.916 767.641 315.608 777.675 182.394 787.777C212.872 720.949 243.418 655.025 274.802 588.128C291.298 553.256 307.725 517.48 325.126 482.539C333.024 466.492 343.777 452.047 353.555 436.766C362.328 444.279 371.938 450.82 379.035 460.277C400.395 489.552 420.849 518.897 441.303 548.241C487.633 618.331 533.963 688.421 581.13 757.539Z" fill="#80D0EE"/>
<path d="M581.13 757.539C534.869 688.352 487.633 618.331 440.466 549.213C420.012 519.869 399.489 489.621 378.198 461.249C371.169 452.696 361.559 446.155 352.717 437.739C353.418 434.959 355.025 432.111 355.726 429.332C489.008 420.133 622.222 410.031 756.411 400.763C729.848 459.116 702.378 517.538 675.746 574.987C647.576 636.188 620.312 697.32 592.073 757.617C588.449 757.892 584.824 758.167 581.13 757.539Z" fill="#53C5ED"/>
<path d="M981.32 734.459C989.05 740.234 999.361 743.995 1004.44 750.879C1076.1 854.487 1146.92 959.067 1217.67 1062.74C1087.17 1072.64 955.771 1082.61 825.276 1092.5C825.543 1047.96 854.025 1014.9 871.221 977.249C903.374 908.477 937.408 840.471 970.468 771.629C975.083 760.375 977.68 746.548 981.32 734.459Z" fill="#223484"/>
</g>
</svg>
