<svg width="19" height="19" viewBox="0 0 19 19" fill="none" xmlns="http://www.w3.org/2000/svg">
<g opacity="0.9" clip-path="url(#clip0_1_15597)">
<path d="M16.6251 13.4583H5.54175V2.37501H16.6251M16.6251 0.791672H5.54175C5.12182 0.791672 4.71909 0.958487 4.42216 1.25542C4.12523 1.55235 3.95841 1.95508 3.95841 2.37501V13.4583C3.95841 13.8783 4.12523 14.281 4.42216 14.5779C4.71909 14.8749 5.12182 15.0417 5.54175 15.0417H16.6251C17.045 15.0417 17.4477 14.8749 17.7447 14.5779C18.0416 14.281 18.2084 13.8783 18.2084 13.4583V2.37501C18.2084 1.95508 18.0416 1.55235 17.7447 1.25542C17.4477 0.958487 17.045 0.791672 16.6251 0.791672ZM2.37508 3.95834H0.791748V16.625C0.791748 17.0449 0.958563 17.4477 1.2555 17.7446C1.55243 18.0415 1.95516 18.2083 2.37508 18.2083H15.0417V16.625H2.37508M12.6351 8.14625L10.458 10.9488L8.90633 9.08042L6.72925 11.875H15.4376L12.6351 8.14625Z" fill="white"/>
</g>
<defs>
<clipPath id="clip0_1_15597">
<rect width="19" height="19" fill="white"/>
</clipPath>
</defs>
</svg>
