<svg width="21" height="22" viewBox="0 0 21 22" fill="none" xmlns="http://www.w3.org/2000/svg">
<path d="M5.87793 16.0833C5.51335 16.0833 5.2036 15.9495 4.94868 15.6818C4.69318 15.4148 4.56543 15.0903 4.56543 14.7083V11.9583C4.56543 11.5764 4.69318 11.2519 4.94868 10.9848C5.2036 10.7172 5.51335 10.5833 5.87793 10.5833C6.24251 10.5833 6.55226 10.7172 6.80718 10.9848C7.06268 11.2519 7.19043 11.5764 7.19043 11.9583V14.7083C7.19043 15.0903 7.06268 15.4148 6.80718 15.6818C6.55226 15.9495 6.24251 16.0833 5.87793 16.0833ZM11.1279 16.0833C10.7633 16.0833 10.4536 15.9495 10.1987 15.6818C9.94318 15.4148 9.81543 15.0903 9.81543 14.7083V7.375C9.81543 6.99306 9.94318 6.66856 10.1987 6.4015C10.4536 6.13383 10.7633 6 11.1279 6C11.4925 6 11.8023 6.13383 12.0572 6.4015C12.3127 6.66856 12.4404 6.99306 12.4404 7.375V14.7083C12.4404 15.0903 12.3127 15.4148 12.0572 15.6818C11.8023 15.9495 11.4925 16.0833 11.1279 16.0833Z" fill="white"/>
</svg>
