<svg width="16" height="16" viewBox="0 0 16 16" fill="none" xmlns="http://www.w3.org/2000/svg">
<path d="M7.99996 5.33366C8.73329 5.33366 9.33329 4.73366 9.33329 4.00033C9.33329 3.26699 8.73329 2.66699 7.99996 2.66699C7.26663 2.66699 5.5 3.26691 5.5 4.00024C5.5 4.73358 7.26663 5.33366 7.99996 5.33366ZM7.99996 6.66699C7.26663 6.66699 5.5 7.26691 5.5 8.00024C5.5 8.73358 7.26663 9.33366 7.99996 9.33366C8.73329 9.33366 9.33329 8.73366 9.33329 8.00033C9.33329 7.26699 8.73329 6.66699 7.99996 6.66699ZM7.99996 10.667C7.26663 10.667 5.5 11.2669 5.5 12.0002C5.5 12.7336 7.26663 13.3337 7.99996 13.3337C8.73329 13.3337 9.33329 12.7337 9.33329 12.0003C9.33329 11.267 8.73329 10.667 7.99996 10.667Z" fill="#1F4A8C"/>
</svg>
