<svg width="13" height="13" viewBox="0 0 13 13" fill="none" xmlns="http://www.w3.org/2000/svg">
<path d="M3.09285 3.40708C3.04134 3.35777 2.98059 3.31911 2.9141 3.29333C2.78223 3.23916 2.63431 3.23916 2.50244 3.29333C2.43595 3.31911 2.3752 3.35777 2.32369 3.40708L1.24035 4.49042C1.13836 4.59241 1.08105 4.73075 1.08105 4.875C1.08105 5.01925 1.13836 5.15759 1.24035 5.25958C1.34235 5.36158 1.48069 5.41888 1.62494 5.41888C1.76918 5.41888 1.90752 5.36158 2.00952 5.25958L2.1666 5.09708V9.20833C2.1666 9.35199 2.22367 9.48977 2.32526 9.59135C2.42684 9.69293 2.56461 9.75 2.70827 9.75C2.85193 9.75 2.9897 9.69293 3.09129 9.59135C3.19287 9.48977 3.24994 9.35199 3.24994 9.20833V5.09708L3.40702 5.25958C3.45738 5.31035 3.51728 5.35065 3.58329 5.37815C3.6493 5.40565 3.7201 5.41981 3.7916 5.41981C3.86311 5.41981 3.93391 5.40565 3.99992 5.37815C4.06592 5.35065 4.12583 5.31035 4.17619 5.25958C4.22696 5.20923 4.26725 5.14932 4.29475 5.08331C4.32225 5.01731 4.33641 4.94651 4.33641 4.875C4.33641 4.80349 4.32225 4.73269 4.29475 4.66669C4.26725 4.60068 4.22696 4.54077 4.17619 4.49042L3.09285 3.40708ZM5.95827 4.33333H11.3749C11.5186 4.33333 11.6564 4.27627 11.758 4.17468C11.8595 4.0731 11.9166 3.93533 11.9166 3.79167C11.9166 3.64801 11.8595 3.51023 11.758 3.40865C11.6564 3.30707 11.5186 3.25 11.3749 3.25H5.95827C5.81461 3.25 5.67684 3.30707 5.57525 3.40865C5.47367 3.51023 5.4166 3.64801 5.4166 3.79167C5.4166 3.93533 5.47367 4.0731 5.57525 4.17468C5.67684 4.27627 5.81461 4.33333 5.95827 4.33333ZM11.3749 8.66667H5.95827C5.81461 8.66667 5.67684 8.72373 5.57525 8.82532C5.47367 8.9269 5.4166 9.06467 5.4166 9.20833C5.4166 9.35199 5.47367 9.48977 5.57525 9.59135C5.67684 9.69293 5.81461 9.75 5.95827 9.75H11.3749C11.5186 9.75 11.6564 9.69293 11.758 9.59135C11.8595 9.48977 11.9166 9.35199 11.9166 9.20833C11.9166 9.06467 11.8595 8.9269 11.758 8.82532C11.6564 8.72373 11.5186 8.66667 11.3749 8.66667ZM11.3749 5.95833H5.95827C5.81461 5.95833 5.67684 6.0154 5.57525 6.11698C5.47367 6.21857 5.4166 6.35634 5.4166 6.5C5.4166 6.64366 5.47367 6.78143 5.57525 6.88302C5.67684 6.9846 5.81461 7.04167 5.95827 7.04167H11.3749C11.5186 7.04167 11.6564 6.9846 11.758 6.88302C11.8595 6.78143 11.9166 6.64366 11.9166 6.5C11.9166 6.35634 11.8595 6.21857 11.758 6.11698C11.6564 6.0154 11.5186 5.95833 11.3749 5.95833Z" fill="#204A8C"/>
</svg>
