<svg width="67" height="34" viewBox="0 0 67 34" fill="none" xmlns="http://www.w3.org/2000/svg">
<path d="M0 2C0 0.89543 0.895431 0 2 0H67V34H2C0.895429 34 0 33.1046 0 32V2Z" fill="#1F4A8C"/>
<path d="M13.5 17.15L13.41 17.44H15.31L15.22 17.14C14.9933 16.42 14.8067 15.8167 14.66 15.33C14.52 14.8367 14.4333 14.5267 14.4 14.4L14.36 14.2C14.3 14.5333 14.0133 15.5167 13.5 17.15ZM12.6 20H11.28L13.56 13.26H15.19L17.47 20H16.11L15.63 18.47H13.08L12.6 20ZM22.3283 20H18.4383V13.26H19.6983V18.88H22.3283V20ZM27.172 20H23.282V13.26H24.542V18.88H27.172V20Z" fill="white"/>
<path d="M50.5 13.375L55.5 18.375L60.5 13.375" stroke="white" stroke-width="1.51509" stroke-linecap="round" stroke-linejoin="round"/>
</svg>
