<svg width="34" height="30" viewBox="0 0 34 30" fill="none" xmlns="http://www.w3.org/2000/svg">
<rect width="33.5444" height="30" fill="#F9FAFB"/>
<path d="M19.6666 12.3333V10.3333H14.3333V12.3333H12.9999V9.66667C12.9999 9.47778 13.0637 9.31933 13.1913 9.19133C13.3193 9.06378 13.4777 9 13.6666 9H20.3333C20.5221 9 20.6804 9.06378 20.8079 9.19133C20.9359 9.31933 20.9999 9.47778 20.9999 9.66667V12.3333H19.6666ZM11.6666 13.6667H22.3333H12.9999H11.6666ZM20.9999 15.3333C21.1888 15.3333 21.347 15.2693 21.4746 15.1413C21.6026 15.0138 21.6666 14.8556 21.6666 14.6667C21.6666 14.4778 21.6026 14.3193 21.4746 14.1913C21.347 14.0638 21.1888 14 20.9999 14C20.811 14 20.6528 14.0638 20.5253 14.1913C20.3973 14.3193 20.3333 14.4778 20.3333 14.6667C20.3333 14.8556 20.3973 15.0138 20.5253 15.1413C20.6528 15.2693 20.811 15.3333 20.9999 15.3333ZM14.3333 19.6667H19.6666V17H14.3333V19.6667ZM14.3333 21C13.9666 21 13.6528 20.8696 13.3919 20.6087C13.1306 20.3473 12.9999 20.0333 12.9999 19.6667V18.3333H10.9999C10.811 18.3333 10.6528 18.2693 10.5253 18.1413C10.3973 18.0138 10.3333 17.8556 10.3333 17.6667V14.3333C10.3333 13.7667 10.5277 13.2918 10.9166 12.9087C11.3055 12.5251 11.7777 12.3333 12.3333 12.3333H21.6666C22.2333 12.3333 22.7084 12.5251 23.0919 12.9087C23.475 13.2918 23.6666 13.7667 23.6666 14.3333V17.6667C23.6666 17.8556 23.6026 18.0138 23.4746 18.1413C23.347 18.2693 23.1888 18.3333 22.9999 18.3333H20.9999V19.6667C20.9999 20.0333 20.8695 20.3473 20.6086 20.6087C20.3473 20.8696 20.0333 21 19.6666 21H14.3333ZM22.3333 17V14.3333C22.3333 14.1444 22.2693 13.986 22.1413 13.858C22.0137 13.7304 21.8555 13.6667 21.6666 13.6667H12.3333C12.1444 13.6667 11.9859 13.7304 11.8579 13.858C11.7304 13.986 11.6666 14.1444 11.6666 14.3333V17H12.9999V15.6667H20.9999V17H22.3333Z" fill="#204A8C"/>
</svg>
