<svg width="114" height="113" viewBox="0 0 114 113" fill="none" xmlns="http://www.w3.org/2000/svg">
<path d="M110.78 73.9155C106.12 87.9241 96.0976 99.5597 82.87 106.319C69.6424 113.079 54.2664 114.422 40.0499 110.059C25.8335 105.697 13.9127 95.978 6.85228 82.9932C-0.208144 70.0084 -1.844 54.7956 2.29665 40.6275C6.4373 26.4595 16.0236 14.4686 28.993 7.23443C41.9625 0.000303938 57.2787 -1.89888 71.6466 1.94546C86.0144 5.78981 98.2856 15.0705 105.82 27.7908C113.355 40.5111 115.551 55.6545 111.935 69.9631L89.2456 64.3311C91.372 55.9157 90.0805 47.0093 85.6492 39.528C81.2178 32.0468 74.0007 26.5885 65.5505 24.3275C57.1002 22.0665 48.0922 23.1835 40.4644 27.4381C32.8366 31.6928 27.1986 38.7451 24.7633 47.0778C22.328 55.4105 23.2901 64.3577 27.4426 71.9945C31.5951 79.6314 38.6062 85.3475 46.9673 87.9131C55.3286 90.4787 64.3717 89.6888 72.1514 85.7134C79.931 81.7379 85.8253 74.8946 88.5663 66.6557L110.78 73.9155Z" fill="url(#paint0_radial_1_15583)"/>
<path d="M27.7486 7.84175C20.9668 11.8671 15.1011 17.2553 10.525 23.6633C5.94885 30.0713 2.76274 37.3584 1.1696 45.0605C-0.423537 52.7627 -0.388779 60.7109 1.27166 68.3989C2.9321 76.0869 6.18182 83.3461 10.8138 89.7141L29.9439 75.9065C27.2368 72.1848 25.3376 67.9423 24.3672 63.4492C23.3968 58.9561 23.3764 54.3109 24.3075 49.8096C25.2386 45.3082 27.1006 41.0494 29.7751 37.3044C32.4495 33.5594 35.8776 30.4104 39.8411 28.0578L27.7486 7.84175Z" fill="url(#paint1_radial_1_15583)"/>
<path d="M10.6123 89.2363C17.899 99.4449 28.3841 106.953 40.42 110.579C52.456 114.206 65.3606 113.747 77.1058 109.273L68.6601 87.2704C61.8109 89.8792 54.2857 90.1472 47.267 88.0322C40.2484 85.9173 34.134 81.5392 29.8849 75.5861L10.6123 89.2363Z" fill="#62DDC6"/>
<path d="M76.0014 109.681C85.6205 106.243 94.1289 100.281 100.627 92.4241C107.126 84.5673 111.373 75.1078 112.92 65.0451L89.4718 61.468C88.5717 67.3229 86.1005 72.8269 82.3195 77.3983C78.5385 81.9697 73.588 85.4388 67.9911 87.4389L76.0014 109.681Z" fill="#D3EEEC"/>
<defs>
<radialGradient id="paint0_radial_1_15583" cx="0" cy="0" r="1" gradientUnits="userSpaceOnUse" gradientTransform="translate(56.8453 56.2887) rotate(90) scale(56.2885 56.7911)">
<stop stop-color="#114B40" stop-opacity="0.21"/>
<stop offset="1" stop-color="#068D74" stop-opacity="0.98"/>
</radialGradient>
<radialGradient id="paint1_radial_1_15583" cx="0" cy="0" r="1" gradientUnits="userSpaceOnUse" gradientTransform="translate(50.3116 100.515) rotate(-114.928) scale(78.6977 79.0027)">
<stop stop-color="#79ABA1"/>
<stop offset="1" stop-color="#00B895"/>
</radialGradient>
</defs>
</svg>
