<svg width="34" height="30" viewBox="0 0 34 30" fill="none" xmlns="http://www.w3.org/2000/svg">
<rect width="33.5444" height="30" fill="#F9FAFB"/>
<path d="M13.6667 18.3333H20.3333C20.4667 18.3333 20.5667 18.2722 20.6333 18.15C20.7 18.0278 20.6889 17.9111 20.6 17.8L18.7667 15.35C18.7 15.2611 18.6111 15.2167 18.5 15.2167C18.3889 15.2167 18.3 15.2611 18.2333 15.35L16.5 17.6667L15.2667 16.0167C15.2 15.9278 15.1111 15.8833 15 15.8833C14.8889 15.8833 14.8 15.9278 14.7333 16.0167L13.4 17.8C13.3111 17.9111 13.3 18.0278 13.3667 18.15C13.4333 18.2722 13.5333 18.3333 13.6667 18.3333ZM12.3333 21C11.9667 21 11.6527 20.8696 11.3913 20.6087C11.1304 20.3473 11 20.0333 11 19.6667V10.3333C11 9.96667 11.1304 9.65267 11.3913 9.39133C11.6527 9.13044 11.9667 9 12.3333 9H21.6667C22.0333 9 22.3473 9.13044 22.6087 9.39133C22.8696 9.65267 23 9.96667 23 10.3333V19.6667C23 20.0333 22.8696 20.3473 22.6087 20.6087C22.3473 20.8696 22.0333 21 21.6667 21H12.3333ZM12.3333 19.6667H21.6667V10.3333H12.3333V19.6667Z" fill="#204A8C"/>
</svg>
