<svg width="113" height="113" viewBox="0 0 113 113" fill="none" xmlns="http://www.w3.org/2000/svg">
<path d="M113 56.1387C113 87.0666 87.7041 112.139 56.5 112.139C25.2959 112.139 0 87.0666 0 56.1387C0 25.2107 25.2959 0.138672 56.5 0.138672C87.7041 0.138672 113 25.2107 113 56.1387ZM23.2703 56.1387C23.2703 74.3285 38.1478 89.0743 56.5 89.0743C74.8522 89.0743 89.7297 74.3285 89.7297 56.1387C89.7297 37.9488 74.8522 23.2031 56.5 23.2031C38.1478 23.2031 23.2703 37.9488 23.2703 56.1387Z" fill="url(#paint0_radial_1_15564)"/>
<path d="M80.4037 5.27865C73.2857 1.97217 65.5543 0.178764 57.7022 0.0126936C49.85 -0.153377 42.0492 1.31153 34.7967 4.31408C27.5442 7.31663 20.999 11.791 15.5781 17.4522C10.1571 23.1133 5.97929 29.8372 3.31072 37.1953L25.4153 45.1502C26.9749 40.8499 29.4166 36.9202 32.5847 33.6117C35.7529 30.3032 39.5781 27.6882 43.8167 25.9334C48.0552 24.1786 52.6143 23.3225 57.2033 23.4196C61.7923 23.5166 66.3108 24.5647 70.4707 26.4971L80.4037 5.27865Z" fill="url(#paint1_radial_1_15564)"/>
<path d="M9.55191 25.139C2.76832 35.2676 -0.530897 47.3163 0.150365 59.4732C0.831626 71.6302 5.45654 83.2382 13.3297 92.5519L31.3255 77.4566C26.7343 72.0255 24.0374 65.2563 23.6401 58.1671C23.2428 51.0778 25.1667 44.0517 29.1225 38.1452L9.55191 25.139Z" fill="url(#paint2_linear_1_15564)"/>
<path d="M4.76988 78.8175C9.23278 89.0093 16.6294 97.6538 26.0243 103.658C35.4193 109.662 46.3906 112.757 57.5509 112.55C68.7112 112.343 79.5593 108.843 88.7233 102.495C97.8873 96.1463 104.956 87.2334 109.034 76.8832L87.0667 68.2928C84.6935 74.315 80.5808 79.5009 75.2488 83.1948C69.9169 86.8886 63.605 88.9245 57.1115 89.045C50.6179 89.1655 44.2343 87.3651 38.768 83.8716C33.3016 80.3781 28.9979 75.3483 26.4012 69.4183L4.76988 78.8175Z" fill="#EEE3D3"/>
<defs>
<radialGradient id="paint0_radial_1_15564" cx="0" cy="0" r="1" gradientUnits="userSpaceOnUse" gradientTransform="translate(56.5 56.1387) rotate(90) scale(56 56.5)">
<stop stop-color="#FC871A"/>
<stop offset="1" stop-color="#CF5F0E"/>
</radialGradient>
<radialGradient id="paint1_radial_1_15564" cx="0" cy="0" r="1" gradientUnits="userSpaceOnUse" gradientTransform="translate(69.9998 56.1387) rotate(-140.87) scale(76.0592 76.3539)">
<stop stop-color="#F38015" stop-opacity="0.12"/>
<stop offset="1" stop-color="#FF891C"/>
</radialGradient>
<linearGradient id="paint2_linear_1_15564" x1="-4" y1="91.6389" x2="85.6643" y2="104.751" gradientUnits="userSpaceOnUse">
<stop stop-color="#FFCB9A"/>
<stop offset="1" stop-color="#FC871A" stop-opacity="0"/>
</linearGradient>
</defs>
</svg>
