<svg width="113" height="113" viewBox="0 0 113 113" fill="none" xmlns="http://www.w3.org/2000/svg">
<path d="M102.529 88.4932C93.943 100.448 80.9653 108.585 66.388 111.154C51.8107 113.722 36.7987 110.516 24.5818 102.226C12.365 93.9357 3.91943 81.2237 1.06225 66.8248C-1.79492 52.4258 1.16458 37.4906 9.30404 25.2323C17.4435 12.974 30.1125 4.37229 44.5853 1.27767C59.0582 -1.81695 74.1783 0.842872 86.6928 8.68489C99.2072 16.5269 108.116 28.9244 111.502 43.2102C114.888 57.496 112.482 72.5285 104.8 85.0735L84.9068 73.1066C89.4248 65.7285 90.8403 56.8873 88.8487 48.4853C86.8572 40.0833 81.6176 32.7919 74.2574 28.1797C66.8972 23.5676 58.0046 22.0032 49.4926 23.8233C40.9806 25.6434 33.5295 30.7023 28.7424 37.9119C23.9553 45.1214 22.2147 53.9054 23.8951 62.3739C25.5755 70.8424 30.5426 78.3188 37.7278 83.1945C44.913 88.0703 53.742 89.9557 62.3155 88.4453C70.8889 86.9348 78.5216 82.1491 83.5714 75.1178L102.529 88.4932Z" fill="url(#paint0_radial_1_15573)"/>
<path d="M100.453 20.7626C92.8771 11.4427 82.5128 4.77435 70.8688 1.72783L64.8983 24.3718C71.7033 26.1523 77.7605 30.0495 82.1884 35.4963L100.453 20.7626Z" fill="url(#paint1_radial_1_15573)"/>
<path d="M71.0847 1.90969C60.9165 -0.799942 50.1901 -0.62295 40.1175 2.42067L46.9009 24.6966C52.8028 22.9132 59.0878 22.8095 65.0458 24.3972L71.0847 1.90969Z" fill="url(#paint2_linear_1_15573)"/>
<path d="M42.2163 1.83036C31.7316 4.56265 22.2584 10.2443 14.9286 18.1963C7.59888 26.1484 2.72257 36.0345 0.882395 46.6734C-0.957775 57.3123 0.316023 68.254 4.55158 78.1911C8.78713 88.1281 15.8053 96.6402 24.7675 102.71C33.7296 108.78 44.2567 112.151 55.0909 112.421C65.925 112.691 76.6079 109.847 85.8631 104.23C95.1183 98.6135 102.554 90.461 107.283 80.747C112.011 71.0329 113.831 60.1682 112.527 49.4511L89.0986 52.2812C89.8578 58.5169 88.7985 64.8385 86.0474 70.4905C83.2963 76.1425 78.9697 80.886 73.5847 84.1541C68.1996 87.4221 61.9838 89.0766 55.6801 88.9198C49.3764 88.7629 43.2512 86.8014 38.0367 83.2696C32.8221 79.7379 28.7386 74.7852 26.2742 69.0034C23.8098 63.2216 23.0687 56.8552 24.1393 50.6651C25.21 44.4749 28.0473 38.7227 32.312 34.0959C36.5768 29.4691 42.0887 26.1633 48.1891 24.5735L42.2163 1.83036Z" fill="#EED3D3"/>
<defs>
<radialGradient id="paint0_radial_1_15573" cx="0" cy="0" r="1" gradientUnits="userSpaceOnUse" gradientTransform="translate(56.5 56.0181) rotate(90) scale(55.9998 56.4998)">
<stop/>
<stop offset="1" stop-color="#ED0707" stop-opacity="0.98"/>
</radialGradient>
<radialGradient id="paint1_radial_1_15573" cx="0" cy="0" r="1" gradientUnits="userSpaceOnUse" gradientTransform="translate(69.9997 31.0182) rotate(-55.8641) scale(35.6404 35.7785)">
<stop stop-color="#BF0B0B" stop-opacity="0.93"/>
<stop offset="1" stop-color="#FF6464"/>
</radialGradient>
<linearGradient id="paint2_linear_1_15573" x1="54" y1="29.0185" x2="61.6232" y2="-6.95527" gradientUnits="userSpaceOnUse">
<stop stop-color="#AF2828"/>
<stop offset="1" stop-color="#FF7373"/>
</linearGradient>
</defs>
</svg>
