<svg width="114" height="113" viewBox="0 0 114 113" fill="none" xmlns="http://www.w3.org/2000/svg">
<path d="M110.78 73.9155C106.12 87.924 96.0975 99.5596 82.8699 106.319C69.6423 113.078 54.2663 114.422 40.0499 110.059C25.8335 105.697 13.9127 95.9779 6.85228 82.9931C-0.208144 70.0084 -1.844 54.7955 2.29665 40.6275C6.4373 26.4595 16.0236 14.4685 28.993 7.23442C41.9625 0.000300103 57.2787 -1.89889 71.6465 1.94546C86.0143 5.7898 98.2855 15.0705 105.82 27.7908C113.355 40.5111 115.55 55.6545 111.935 69.963L89.2455 64.331C91.3719 55.9157 90.0805 47.0093 85.6491 39.528C81.2178 32.0467 74.0006 26.5885 65.5504 24.3275C57.1002 22.0665 48.0922 23.1834 40.4644 27.4381C32.8366 31.6927 27.1985 38.745 24.7633 47.0777C22.328 55.4105 23.2901 64.3577 27.4426 71.9945C31.5951 79.6313 38.6061 85.3474 46.9673 87.913C55.3285 90.4786 64.3717 89.6888 72.1513 85.7133C79.9309 81.7379 85.8252 74.8945 88.5662 66.6556L110.78 73.9155Z" fill="url(#paint0_radial_1_15556)"/>
<path d="M27.7486 7.84174C20.9668 11.8671 15.101 17.2553 10.5249 23.6633C5.94884 30.0712 2.76274 37.3584 1.1696 45.0605C-0.423537 52.7626 -0.388779 60.7108 1.27166 68.3988C2.9321 76.0868 6.18182 83.3461 10.8138 89.714L29.9438 75.9064C27.2368 72.1847 25.3376 67.9422 24.3671 63.4492C23.3967 58.9561 23.3764 54.3109 24.3075 49.8095C25.2386 45.3082 27.1006 41.0494 29.775 37.3044C32.4494 33.5594 35.8776 30.4103 39.841 28.0578L27.7486 7.84174Z" fill="url(#paint1_radial_1_15556)"/>
<path d="M10.6123 89.2362C18.6877 100.55 30.6612 108.507 44.2491 111.589C57.837 114.672 72.0885 112.664 84.2855 105.949L72.8468 85.332C65.7343 89.2478 57.4236 90.4186 49.4999 88.6211C41.5762 86.8236 34.594 82.1836 29.8848 75.5861L10.6123 89.2362Z" fill="#62DDC6"/>
<path d="M82.3045 106.989C89.661 103.309 96.1253 98.0779 101.249 91.6592C106.372 85.2405 110.031 77.7879 111.973 69.8189L88.9209 64.2457C87.7911 68.8824 85.6619 73.2186 82.681 76.9532C79.7001 80.6879 75.9389 83.7316 71.6585 85.8729L82.3045 106.989Z" fill="#D3EEEC"/>
<defs>
<radialGradient id="paint0_radial_1_15556" cx="0" cy="0" r="1" gradientUnits="userSpaceOnUse" gradientTransform="translate(56.8453 56.2886) rotate(90) scale(56.2885 56.7911)">
<stop stop-color="#114B40" stop-opacity="0.21"/>
<stop offset="1" stop-color="#068D74" stop-opacity="0.98"/>
</radialGradient>
<radialGradient id="paint1_radial_1_15556" cx="0" cy="0" r="1" gradientUnits="userSpaceOnUse" gradientTransform="translate(50.3116 100.515) rotate(-114.928) scale(78.6976 79.0026)">
<stop stop-color="#79ABA1"/>
<stop offset="1" stop-color="#00B895"/>
</radialGradient>
</defs>
</svg>
