<svg width="12" height="12" viewBox="0 0 12 12" fill="none" xmlns="http://www.w3.org/2000/svg">
<mask id="path-1-inside-1_1_15672" fill="white">
<path fill-rule="evenodd" clip-rule="evenodd" d="M3.48444 1.2345C3.51927 1.19958 3.56065 1.17187 3.60621 1.15296C3.65177 1.13406 3.70061 1.12433 3.74994 1.12433C3.79926 1.12433 3.8481 1.13406 3.89366 1.15296C3.93922 1.17187 3.9806 1.19958 4.01544 1.2345L8.51544 5.7345C8.55036 5.76933 8.57807 5.81072 8.59697 5.85627C8.61588 5.90183 8.62561 5.95067 8.62561 6C8.62561 6.04932 8.61588 6.09817 8.59697 6.14372C8.57807 6.18928 8.55036 6.23066 8.51544 6.2655L4.01544 10.7655C3.94502 10.8359 3.84952 10.8755 3.74994 10.8755C3.65036 10.8755 3.55485 10.8359 3.48444 10.7655C3.41402 10.6951 3.37446 10.5996 3.37446 10.5C3.37446 10.4004 3.41402 10.3049 3.48444 10.2345L7.71969 6L3.48444 1.7655C3.44952 1.73066 3.42181 1.68928 3.4029 1.64372C3.384 1.59817 3.37427 1.54932 3.37427 1.5C3.37427 1.45067 3.384 1.40183 3.4029 1.35627C3.42181 1.31071 3.44952 1.26933 3.48444 1.2345Z"/>
</mask>
<path fill-rule="evenodd" clip-rule="evenodd" d="M3.48444 1.2345C3.51927 1.19958 3.56065 1.17187 3.60621 1.15296C3.65177 1.13406 3.70061 1.12433 3.74994 1.12433C3.79926 1.12433 3.8481 1.13406 3.89366 1.15296C3.93922 1.17187 3.9806 1.19958 4.01544 1.2345L8.51544 5.7345C8.55036 5.76933 8.57807 5.81072 8.59697 5.85627C8.61588 5.90183 8.62561 5.95067 8.62561 6C8.62561 6.04932 8.61588 6.09817 8.59697 6.14372C8.57807 6.18928 8.55036 6.23066 8.51544 6.2655L4.01544 10.7655C3.94502 10.8359 3.84952 10.8755 3.74994 10.8755C3.65036 10.8755 3.55485 10.8359 3.48444 10.7655C3.41402 10.6951 3.37446 10.5996 3.37446 10.5C3.37446 10.4004 3.41402 10.3049 3.48444 10.2345L7.71969 6L3.48444 1.7655C3.44952 1.73066 3.42181 1.68928 3.4029 1.64372C3.384 1.59817 3.37427 1.54932 3.37427 1.5C3.37427 1.45067 3.384 1.40183 3.4029 1.35627C3.42181 1.31071 3.44952 1.26933 3.48444 1.2345Z" fill="#9CA3AF"/>
<path d="M4.01544 1.2345L3.30744 1.94071L3.30833 1.94161L4.01544 1.2345ZM8.51544 5.7345L7.80833 6.44161L7.80923 6.4425L8.51544 5.7345ZM8.51544 6.2655L7.80923 5.5575L7.80833 5.55839L8.51544 6.2655ZM3.48444 10.2345L2.77739 9.52733L2.77733 9.52739L3.48444 10.2345ZM7.71969 6L8.42673 6.70717L9.13403 6L8.42673 5.29283L7.71969 6ZM3.48444 1.7655L4.19148 1.05833L4.19065 1.0575L3.48444 1.7655ZM4.19244 1.94071C4.13438 1.99892 4.06541 2.04509 3.98948 2.0766L3.22295 0.229327C3.0559 0.298645 2.90416 0.400238 2.77644 0.528287L4.19244 1.94071ZM3.98948 2.0766C3.91355 2.10811 3.83215 2.12433 3.74994 2.12433V0.124329C3.56908 0.124329 3.38999 0.16001 3.22295 0.229327L3.98948 2.0766ZM3.74994 2.12433C3.66773 2.12433 3.58633 2.10811 3.5104 2.0766L4.27693 0.229327C4.10988 0.16001 3.9308 0.124329 3.74994 0.124329V2.12433ZM3.5104 2.0766C3.43446 2.04509 3.36549 1.99892 3.30744 1.94071L4.72344 0.528287C4.59571 0.400238 4.44398 0.298645 4.27693 0.229327L3.5104 2.0766ZM3.30833 1.94161L7.80833 6.44161L9.22255 5.02739L4.72254 0.527392L3.30833 1.94161ZM7.80923 6.4425C7.75102 6.38444 7.70484 6.31547 7.67334 6.23954L9.52061 5.47301C9.45129 5.30596 9.3497 5.15423 9.22165 5.0265L7.80923 6.4425ZM7.67334 6.23954C7.64183 6.16361 7.62561 6.08221 7.62561 6H9.62561C9.62561 5.81914 9.58993 5.64005 9.52061 5.47301L7.67334 6.23954ZM7.62561 6C7.62561 5.91779 7.64183 5.83639 7.67334 5.76046L9.52061 6.52699C9.58993 6.35994 9.62561 6.18086 9.62561 6H7.62561ZM7.67334 5.76046C7.70484 5.68453 7.75102 5.61556 7.80923 5.5575L9.22165 6.9735C9.3497 6.84577 9.45129 6.69404 9.52061 6.52699L7.67334 5.76046ZM7.80833 5.55839L3.30833 10.0584L4.72254 11.4726L9.22255 6.97261L7.80833 5.55839ZM3.30833 10.0584C3.42545 9.94127 3.58431 9.87547 3.74994 9.87547V11.8755C4.11473 11.8755 4.46459 11.7306 4.72254 11.4726L3.30833 10.0584ZM3.74994 9.87547C3.91557 9.87547 4.07442 9.94127 4.19154 10.0584L2.77733 11.4726C3.03528 11.7306 3.38514 11.8755 3.74994 11.8755V9.87547ZM4.19154 10.0584C4.30867 10.1755 4.37446 10.3344 4.37446 10.5H2.37446C2.37446 10.8648 2.51938 11.2147 2.77733 11.4726L4.19154 10.0584ZM4.37446 10.5C4.37446 10.6656 4.30867 10.8245 4.19154 10.9416L2.77733 9.52739C2.51938 9.78534 2.37446 10.1352 2.37446 10.5H4.37446ZM4.19148 10.9417L8.42673 6.70717L7.01264 5.29283L2.77739 9.52733L4.19148 10.9417ZM8.42673 5.29283L4.19148 1.05833L2.77739 2.47267L7.01264 6.70717L8.42673 5.29283ZM4.19065 1.0575C4.24885 1.11556 4.29503 1.18452 4.32654 1.26046L2.47927 2.02699C2.54858 2.19404 2.65018 2.34577 2.77823 2.4735L4.19065 1.0575ZM4.32654 1.26046C4.35805 1.33639 4.37427 1.41779 4.37427 1.5H2.37427C2.37427 1.68085 2.40995 1.85994 2.47927 2.02699L4.32654 1.26046ZM4.37427 1.5C4.37427 1.5822 4.35805 1.66361 4.32654 1.73954L2.47927 0.973007C2.40995 1.14006 2.37427 1.31914 2.37427 1.5H4.37427ZM4.32654 1.73954C4.29503 1.81547 4.24885 1.88444 4.19065 1.9425L2.77823 0.526499C2.65018 0.654224 2.54858 0.805956 2.47927 0.973007L4.32654 1.73954Z" fill="#9CA3AF" mask="url(#path-1-inside-1_1_15672)"/>
</svg>
