<svg width="34" height="30" viewBox="0 0 34 30" fill="none" xmlns="http://www.w3.org/2000/svg">
<rect width="34" height="30" fill="#F9FAFB"/>
<path d="M15.3333 15.7267L16.2733 16.6667L13.2733 19.6667H15.6667V21H11V16.3333H12.3333V18.7267L15.3333 15.7267ZM16.2733 13.3333L15.3333 14.2733L12.3333 11.2733V13.6667H11V9H15.6667V10.3333H13.2733L16.2733 13.3333ZM18.6667 15.7267L21.6667 18.7267V16.3333H23V21H18.3333V19.6667H20.7267L17.7267 16.6667L18.6667 15.7267ZM17.7267 13.3333L20.7267 10.3333H18.3333V9H23V13.6667H21.6667V11.2733L18.6667 14.2733L17.7267 13.3333Z" fill="#1F4A8C"/>
</svg>
