<svg width="13" height="13" viewBox="0 0 13 13" fill="none" xmlns="http://www.w3.org/2000/svg">
<path d="M5.90376 1.13745L11.2657 1.90391L12.0316 7.26641L7.05263 12.2454C6.95106 12.347 6.81331 12.404 6.66968 12.404C6.52605 12.404 6.3883 12.347 6.28672 12.2454L0.924218 6.88291C0.822671 6.78133 0.765625 6.64358 0.765625 6.49995C0.765625 6.35632 0.822671 6.21857 0.924218 6.11699L5.90376 1.13745ZM6.28672 2.28687L2.07309 6.49995L6.66968 11.096L10.8828 6.88291L10.3086 2.86103L6.28672 2.28687ZM7.43505 5.73403C7.23185 5.53076 7.11771 5.25508 7.11777 4.96766C7.11779 4.82534 7.14585 4.68442 7.20033 4.55294C7.25482 4.42146 7.33467 4.30201 7.43532 4.20139C7.53597 4.10077 7.65546 4.02096 7.78696 3.96652C7.91845 3.91208 8.05938 3.88408 8.2017 3.8841C8.48913 3.88415 8.76476 3.99838 8.96797 4.20166C9.17117 4.40494 9.28531 4.68061 9.28525 4.96804C9.2852 5.25547 9.17097 5.5311 8.9677 5.73431C8.76442 5.93751 8.48875 6.05164 8.20132 6.05159C7.91389 6.05154 7.63826 5.93731 7.43505 5.73403Z" fill="#204A8C"/>
</svg>
