<svg width="34" height="30" viewBox="0 0 34 30" fill="none" xmlns="http://www.w3.org/2000/svg">
<rect width="34" height="30" fill="#F9FAFB"/>
<path d="M13.3929 7.39464C13.2683 7.51892 13.1695 7.66654 13.1021 7.82906C13.0347 7.99157 13 8.16579 13 8.34173C13 8.51767 13.0347 8.69188 13.1021 8.8544C13.1695 9.01691 13.2683 9.16454 13.3929 9.28882L18.6052 14.5012L13.3929 19.7135C13.1417 19.9647 13.0006 20.3054 13.0006 20.6606C13.0006 21.0158 13.1417 21.3565 13.3929 21.6077C13.6441 21.8589 13.9847 22 14.34 22C14.6952 22 15.0359 21.8589 15.287 21.6077L21.4532 15.4415C21.5777 15.3173 21.6765 15.1696 21.744 15.0071C21.8114 14.8446 21.8461 14.6704 21.8461 14.4945C21.8461 14.3185 21.8114 14.1443 21.744 13.9818C21.6765 13.8193 21.5777 13.6716 21.4532 13.5474L15.287 7.3812C14.7766 6.87071 13.9168 6.87072 13.3929 7.39464Z" fill="#204A8C"/>
</svg>
