<svg width="60" height="60" viewBox="0 0 60 60" fill="none" xmlns="http://www.w3.org/2000/svg">
<path d="M32.5 5.125V12.7C40.975 13.925 47.5 21.175 47.5 30C47.5 32.25 47.05 34.375 46.25 36.35L52.8 40.175C54.2 37.075 55 33.625 55 30C55 17.05 45.125 6.375 32.5 5.125ZM30 47.5C25.3587 47.5 20.9075 45.6563 17.6256 42.3744C14.3437 39.0925 12.5 34.6413 12.5 30C12.5 21.175 19.025 13.925 27.5 12.7V5.125C14.85 6.375 5 17.025 5 30C5 36.6304 7.63392 42.9893 12.3223 47.6777C14.6438 49.9991 17.3998 51.8406 20.4329 53.097C23.4661 54.3534 26.717 55 30 55C38.25 55 45.575 50.975 50.125 44.775L43.625 40.95C42.0015 43.006 39.9305 44.6646 37.5695 45.7996C35.2084 46.9346 32.6196 47.5162 30 47.5Z" fill="url(#paint0_angular_1_15551)"/>
<defs>
<radialGradient id="paint0_angular_1_15551" cx="0" cy="0" r="1" gradientUnits="userSpaceOnUse" gradientTransform="translate(30 30.0625) rotate(90) scale(24.9375 25)">
<stop stop-color="#204A8C"/>
<stop offset="1" stop-color="#204A8C" stop-opacity="0"/>
</radialGradient>
</defs>
</svg>
