<svg width="13" height="13" viewBox="0 0 13 13" fill="none" xmlns="http://www.w3.org/2000/svg">
<g clip-path="url(#clip0_1_15480)">
<path d="M12.1623 5.5611H11.5556V10.8333H1.44448V2.88888H2.52782V2.16666H1.35421C1.26979 2.16807 1.18648 2.18609 1.10903 2.21971C1.03159 2.25332 0.961522 2.30186 0.902839 2.36256C0.844155 2.42325 0.798003 2.49491 0.767019 2.57345C0.736035 2.65198 0.720826 2.73585 0.722261 2.82027V10.9019C0.720826 10.9863 0.736035 11.0702 0.767019 11.1488C0.798003 11.2273 0.844155 11.299 0.902839 11.3596C0.961522 11.4203 1.03159 11.4689 1.10903 11.5025C1.18648 11.5361 1.26979 11.5541 1.35421 11.5555H11.6459C11.7303 11.5541 11.8136 11.5361 11.891 11.5025C11.9685 11.4689 12.0386 11.4203 12.0972 11.3596C12.1559 11.299 12.2021 11.2273 12.2331 11.1488C12.264 11.0702 12.2793 10.9863 12.2778 10.9019V5.55388L12.1623 5.5611Z" fill="#204A8C"/>
<path d="M2.88892 5.05554H3.61114V5.77776H2.88892V5.05554Z" fill="#204A8C"/>
<path d="M5.05566 5.05554H5.77789V5.77776H5.05566V5.05554Z" fill="#204A8C"/>
<path d="M2.88892 6.86111H3.61114V7.58334H2.88892V6.86111Z" fill="#204A8C"/>
<path d="M5.05566 6.86111H5.77789V7.58334H5.05566V6.86111Z" fill="#204A8C"/>
<path d="M7.22217 6.86111H7.94439V7.58334H7.22217V6.86111Z" fill="#204A8C"/>
<path d="M9.38892 6.86111H10.1111V7.58334H9.38892V6.86111Z" fill="#204A8C"/>
<path d="M2.88892 8.66666H3.61114V9.38888H2.88892V8.66666Z" fill="#204A8C"/>
<path d="M5.05566 8.66666H5.77789V9.38888H5.05566V8.66666Z" fill="#204A8C"/>
<path d="M7.22217 8.66666H7.94439V9.38888H7.22217V8.66666Z" fill="#204A8C"/>
<path d="M9.38892 8.66666H10.1111V9.38888H9.38892V8.66666Z" fill="#204A8C"/>
<path d="M3.61111 3.61112C3.70688 3.61112 3.79873 3.57307 3.86646 3.50535C3.93418 3.43763 3.97222 3.34578 3.97222 3.25001V1.08334C3.97222 0.987567 3.93418 0.895717 3.86646 0.827996C3.79873 0.760275 3.70688 0.722229 3.61111 0.722229C3.51534 0.722229 3.42349 0.760275 3.35577 0.827996C3.28805 0.895717 3.25 0.987567 3.25 1.08334V3.25001C3.25 3.34578 3.28805 3.43763 3.35577 3.50535C3.42349 3.57307 3.51534 3.61112 3.61111 3.61112Z" fill="#204A8C"/>
<path d="M9.69583 0.411667L7.63028 3.97222C7.58222 4.04276 7.55463 4.12522 7.55057 4.21048C7.54651 4.29573 7.56613 4.38044 7.60726 4.45523C7.6484 4.53001 7.70943 4.59195 7.78361 4.63417C7.85778 4.6764 7.9422 4.69726 8.0275 4.69445H12.1622C12.2475 4.69726 12.3319 4.6764 12.4061 4.63417C12.4803 4.59195 12.5413 4.53001 12.5825 4.45523C12.6236 4.38044 12.6432 4.29573 12.6391 4.21048C12.6351 4.12522 12.6075 4.04276 12.5594 3.97222L10.4939 0.411667C10.4532 0.341993 10.3949 0.284199 10.3249 0.244036C10.2549 0.203872 10.1756 0.182739 10.0949 0.182739C10.0142 0.182739 9.93485 0.203872 9.86484 0.244036C9.79484 0.284199 9.73657 0.341993 9.69583 0.411667Z" fill="#204A8C"/>
</g>
<defs>
<clipPath id="clip0_1_15480">
<rect width="13" height="13" fill="white"/>
</clipPath>
</defs>
</svg>
