<svg width="34" height="30" viewBox="0 0 34 30" fill="none" xmlns="http://www.w3.org/2000/svg">
<rect width="34" height="30" fill="#F9FAFB"/>
<path d="M19.4532 7.89464C19.5777 8.01892 19.6765 8.16654 19.744 8.32906C19.8114 8.49157 19.8461 8.66579 19.8461 8.84173C19.8461 9.01767 19.8114 9.19188 19.744 9.3544C19.6765 9.51691 19.5777 9.66454 19.4532 9.78882L14.2409 15.0012L19.4532 20.2135C19.7044 20.4647 19.8455 20.8054 19.8455 21.1606C19.8455 21.5158 19.7044 21.8565 19.4532 22.1077C19.202 22.3589 18.8613 22.5 18.5061 22.5C18.1509 22.5 17.8102 22.3589 17.559 22.1077L11.3929 15.9415C11.2683 15.8173 11.1695 15.6696 11.1021 15.5071C11.0347 15.3446 11 15.1704 11 14.9945C11 14.8185 11.0347 14.6443 11.1021 14.4818C11.1695 14.3193 11.2683 14.1716 11.3929 14.0474L17.559 7.8812C18.0695 7.37071 18.9293 7.37072 19.4532 7.89464Z" fill="#1F4A8C"/>
</svg>
