<svg width="34" height="30" viewBox="0 0 34 30" fill="none" xmlns="http://www.w3.org/2000/svg">
<rect width="33.5444" height="30" fill="#F9FAFB"/>
<path d="M13.3334 20.3333C12.3223 20.3333 11.4585 19.9833 10.7421 19.2833C10.0252 18.5833 9.66675 17.7278 9.66675 16.7167C9.66675 15.85 9.92786 15.0778 10.4501 14.4C10.9723 13.7222 11.6556 13.2889 12.5001 13.1C12.689 12.3 13.1612 11.5389 13.9167 10.8167C14.6723 10.0944 15.4779 9.73334 16.3334 9.73334C16.7001 9.73334 17.0141 9.86378 17.2754 10.1247C17.5363 10.386 17.6667 10.7 17.6667 11.0667V15.1L18.7334 14.0667L19.6667 15L17.0001 17.6667L14.3334 15L15.2667 14.0667L16.3334 15.1V11.0667C15.489 11.2222 14.8334 11.6304 14.3667 12.2913C13.9001 12.9527 13.6667 13.6333 13.6667 14.3333H13.3334C12.689 14.3333 12.139 14.5611 11.6834 15.0167C11.2279 15.4722 11.0001 16.0222 11.0001 16.6667C11.0001 17.3111 11.2279 17.8611 11.6834 18.3167C12.139 18.7722 12.689 19 13.3334 19H21.3334C21.8001 19 22.1945 18.8389 22.5167 18.5167C22.839 18.1944 23.0001 17.8 23.0001 17.3333C23.0001 16.8667 22.839 16.4722 22.5167 16.15C22.1945 15.8278 21.8001 15.6667 21.3334 15.6667H20.3334V14.3333C20.3334 13.8 20.2112 13.3027 19.9667 12.8413C19.7223 12.3804 19.4001 11.9889 19.0001 11.6667V10.1167C19.8223 10.5056 20.4723 11.0807 20.9501 11.842C21.4279 12.6029 21.6667 13.4333 21.6667 14.3333C22.4334 14.4222 23.0696 14.7527 23.5754 15.3247C24.0807 15.8971 24.3334 16.5667 24.3334 17.3333C24.3334 18.1667 24.0419 18.8751 23.4587 19.4587C22.8752 20.0418 22.1667 20.3333 21.3334 20.3333H13.3334Z" fill="#204A8C"/>
</svg>
