<svg width="16" height="16" viewBox="0 0 16 16" fill="none" xmlns="http://www.w3.org/2000/svg">
<path d="M7.97081 5.33366C8.70146 5.33366 9.29927 4.73366 9.29927 4.00033C9.29927 3.26699 8.70146 2.66699 7.97081 2.66699C7.24015 2.66699 5.47998 3.26691 5.47998 4.00024C5.47998 4.73358 7.24015 5.33366 7.97081 5.33366ZM7.97081 6.66699C7.24015 6.66699 5.47998 7.26691 5.47998 8.00024C5.47998 8.73358 7.24015 9.33366 7.97081 9.33366C8.70146 9.33366 9.29927 8.73366 9.29927 8.00033C9.29927 7.26699 8.70146 6.66699 7.97081 6.66699ZM7.97081 10.667C7.24015 10.667 5.47998 11.2669 5.47998 12.0002C5.47998 12.7336 7.24015 13.3337 7.97081 13.3337C8.70146 13.3337 9.29927 12.7337 9.29927 12.0003C9.29927 11.267 8.70146 10.667 7.97081 10.667Z" fill="#1F4A8C"/>
</svg>
