<svg width="211" height="51" viewBox="0 0 211 51" fill="none" xmlns="http://www.w3.org/2000/svg">
<g clip-path="url(#clip0_1_233)">
<path d="M39.0318 15.6676L41.7705 14.0054C41.1487 12.365 39.8811 9.41053 39.0318 7.93213V15.6676Z" fill="#7400B8"/>
<path d="M39.0318 15.6678L41.7071 17.2912C41.9702 16.5445 42.298 15.6238 42.0942 14.928C42.0349 14.7253 41.9218 14.4036 41.7705 14.0042L39.0318 15.6678Z" fill="#4F0682"/>
<path d="M39.0318 23.5528L42.8512 21.2347C42.7288 21.1037 42.6021 20.9719 42.4657 20.8375C41.7555 20.1388 41.4301 18.9952 41.4301 18.3252C41.4301 18.0834 41.5585 17.715 41.7071 17.2914L39.0318 15.668V23.5528Z" fill="#7400B8"/>
<path d="M39.0318 23.5527L44.4409 26.8358C44.7709 26.6547 45.034 26.3627 45.188 26.0064C45.4612 25.3907 45.5115 24.9992 45.2661 24.4467C44.993 23.8313 44.6955 23.5992 44.2177 22.9295C43.8265 22.381 43.4028 21.823 42.8517 21.2332L39.0323 23.5513L39.0318 23.5527Z" fill="#4F0682"/>
<path d="M39.0318 31.4379L43.3134 28.8395C43.1716 28.4328 43.0542 28.0848 43.0233 27.9552C42.9435 27.6204 43.2883 27.5087 43.5273 27.2574C43.6667 27.1109 44.0529 27.0581 44.4414 26.8372L39.0323 23.5542L39.0318 31.4379Z" fill="#7400B8"/>
<path d="M39.0318 31.4385L43.6006 34.2115C43.7262 33.9775 43.8191 33.7747 43.8191 33.7026C43.8191 33.5352 43.6598 32.9488 43.4208 32.6975C43.2504 32.5123 43.0908 32.3164 42.9427 32.1111L43.5508 31.5999C43.5508 31.5999 44.0806 31.0896 43.9213 30.587C43.8235 30.2789 43.5388 29.4842 43.3126 28.8384L39.031 31.4371L39.0318 31.4385Z" fill="#4F0682"/>
<path d="M39.0318 39.3232L43.0031 36.9132C42.843 36.5324 42.6753 36.1999 42.625 35.9943C42.5452 35.6591 42.8378 35.411 43.0768 35.0753C43.2662 34.7977 43.441 34.5094 43.6005 34.2117L39.0318 31.4387V39.3232Z" fill="#7400B8"/>
<path d="M39.0318 39.3237L42.3138 41.3156C42.339 41.2998 42.3638 41.284 42.386 41.2685C42.864 40.9336 43.2623 40.2633 43.4216 39.6775C43.5809 39.0917 43.4216 38.3375 43.2623 37.6672C43.1963 37.4081 43.1096 37.1552 43.0031 36.9114L39.0318 39.3214V39.3237Z" fill="#4F0682"/>
<path d="M40.0759 42.0234C40.6835 42.0234 41.797 41.6431 42.313 41.3175L39.0318 39.3262V41.9886C39.4779 42.0044 39.8601 42.0234 40.0759 42.0234Z" fill="#7400B8"/>
<path d="M38.8933 7.69722L38.878 7.67137C37.8424 5.99768 35.3761 4.42336 33.9424 3.16838C33.8998 3.13134 33.8574 3.09917 33.8148 3.06299L32.5358 3.83838L38.8933 7.69722Z" fill="#6930C3"/>
<path d="M38.9676 7.82131C38.9429 7.77919 38.9183 7.73832 38.8939 7.69869L32.5358 3.83984V11.725L38.9676 7.82131Z" fill="#656BDB"/>
<path d="M39.0318 15.6676V7.93214C39.0102 7.89481 38.9886 7.8569 38.9676 7.82129L32.536 11.7249L39.0318 15.6676Z" fill="#6930C3"/>
<path d="M39.0318 15.6678L32.536 11.7251H32.5358V11.7254V19.6102H32.536L39.0318 15.6678Z" fill="#656BDB"/>
<path d="M39.0318 15.6677L32.536 19.6101L39.0321 23.5528V15.6692V15.668V15.6677H39.0318Z" fill="#6930C3"/>
<path d="M39.031 23.5534L39.0318 23.5528H39.0321L32.536 19.6101H32.5358V19.6104V27.4955L39.0307 23.5537L39.031 23.5534Z" fill="#656BDB"/>
<path d="M39.0321 23.5541V23.553L39.0313 23.5536L39.0307 23.5538L32.536 27.4957L39.0318 31.4381H39.0321V31.4378V23.5541Z" fill="#6930C3"/>
<path d="M39.0318 31.4383L32.536 27.4958H32.5358V35.381L39.0318 31.4383Z" fill="#656BDB"/>
<path d="M32.5358 35.3809H32.536L39.0307 39.3228L39.0318 39.3236H39.0321V31.4397V31.4385V31.4382H39.0318L32.5358 35.3809Z" fill="#6930C3"/>
<path d="M39.0318 39.3248L39.031 39.3242L39.0307 39.3239L32.5358 35.3821V43.2672H32.536L39.0318 39.3248Z" fill="#656BDB"/>
<path d="M39.0318 39.3247L32.536 43.2671L34.6283 44.537C34.8228 44.1861 34.9892 43.9627 35.034 43.8765C35.3031 43.3579 35.6077 42.3496 36.4117 42.1086C37.0381 41.9208 38.1617 41.9596 39.0318 41.99V39.3264V39.3247Z" fill="#6930C3"/>
<path d="M32.536 43.2671V48.596C33.2444 47.1799 34.1128 45.4675 34.6286 44.5367L32.536 43.2671Z" fill="#656BDB"/>
<path d="M32.5358 3.83871L33.8143 3.06332C33.4093 2.71765 32.9821 2.40176 32.5358 2.11792V3.83871Z" fill="#656BDB"/>
<path d="M32.5355 2.11506C31.5506 1.48843 30.5311 1.04962 29.4018 0.653888C28.6278 0.38279 27.3939 0.183487 26.291 0.0473633L32.5355 3.83814V2.11506Z" fill="#2F8CEA"/>
<path d="M26.0408 7.78233L32.5355 3.84049L26.2899 0.0497141C26.206 0.0393756 26.1227 0.0293243 26.0408 0.0209961V7.78233Z" fill="#48BFE3"/>
<path d="M26.0408 7.78221H26.0402L26.0408 7.7825V7.78336L32.5357 11.7255V3.84009L26.0408 7.78193V7.78221Z" fill="#2F8CEA"/>
<path d="M26.0408 15.6676L32.5355 11.7258L26.0408 7.78394V15.6676Z" fill="#48BFE3"/>
<path d="M26.0408 15.668V15.6691L32.5355 19.6109H32.5357V11.7258H32.5355L26.0408 15.6677V15.668Z" fill="#2F8CEA"/>
<path d="M32.5355 19.611L26.0408 15.6692V23.5529L32.5355 19.611Z" fill="#48BFE3"/>
<path d="M26.0408 23.5529L26.0397 23.5535L26.0399 23.5538L26.0408 23.5532V23.5544L32.5357 27.4962V19.6114V19.6111H32.5355L26.0408 23.5529Z" fill="#2F8CEA"/>
<path d="M26.0408 31.4379L32.5355 27.496H32.5357L26.0408 23.5542V31.4379Z" fill="#48BFE3"/>
<path d="M26.0408 31.4385V31.4396L32.5355 35.3814H32.5357V27.4963L26.0408 31.4385Z" fill="#2F8CEA"/>
<path d="M32.5355 35.3815L26.0408 31.4397V39.3237L32.5355 35.3815Z" fill="#48BFE3"/>
<path d="M26.0408 39.3237H26.0405L26.0397 39.3243L26.0408 39.3249V39.3252L32.5357 43.267V35.3819V35.3816H32.5355L26.0408 39.3237Z" fill="#2F8CEA"/>
<path d="M32.5355 43.268L26.0408 39.3262V47.2098L32.5355 43.268Z" fill="#48BFE3"/>
<path d="M26.0408 47.2099L31.5613 50.5604C31.7604 50.1564 32.1202 49.4292 32.5368 48.5961V43.2681L26.0408 47.2099Z" fill="#2F8CEA"/>
<path d="M26.0408 7.78345V0.0195283C25.9834 0.0126359 25.9269 0.00631797 25.8706 0L19.5444 3.8396L26.0394 7.78144L26.0408 7.78345Z" fill="#53B1E0"/>
<path d="M26.0408 7.78254L26.0403 7.78226L26.0394 7.78197L19.5447 3.83984V11.7252L26.0408 7.78254Z" fill="#56CFE1"/>
<path d="M26.0408 15.6676V7.78391V7.78333V7.78247L19.5447 11.7252L26.0394 15.667L26.0405 15.6676H26.0408Z" fill="#53B1E0"/>
<path d="M26.0408 23.5528V15.6692V15.668V15.6677H26.0405L26.0394 15.6683L19.5447 19.6101L26.0408 23.5528Z" fill="#53B1E0"/>
<path d="M26.0397 23.5534L26.0408 23.5528L19.5447 19.6101V27.4955L26.0394 23.5537L26.0397 23.5534Z" fill="#72EFDD"/>
<path d="M26.0408 31.4381V31.4378V23.5541V23.553L26.04 23.5536L26.0394 23.5538L19.5447 27.4957L26.0408 31.4381Z" fill="#53B1E0"/>
<path d="M26.0408 31.4383L19.5447 27.4958V35.381L26.0408 31.4383Z" fill="#56CFE1"/>
<path d="M26.0408 39.3236V31.4397V31.4385V31.4382L19.5447 35.3809L26.0394 39.3228L26.0405 39.3236H26.0408Z" fill="#53B1E0"/>
<path d="M26.0408 39.3248L26.0397 39.3242L26.0394 39.3239L19.5447 35.3821V43.2675L26.0408 39.3248Z" fill="#72EFDD"/>
<path d="M26.0408 47.2098V39.3261V39.325V39.3247L19.5447 43.2674L26.0394 47.2092L26.0405 47.2098H26.0408Z" fill="#53B1E0"/>
<path d="M19.4873 11.9435L12.9924 8.00171V15.8854L19.4873 11.9435Z" fill="#80FFDB"/>
<path d="M19.4873 11.9436L12.9924 15.8854V15.8857V15.8854L12.9913 15.8863L19.4871 19.8287H19.4873V11.9436Z" fill="#64DFDF"/>
<path d="M12.9924 23.7719L19.4873 27.714V19.8289V19.8286H19.4871L12.9913 23.7713H12.9915L12.9924 23.771V23.7719Z" fill="#64DFDF"/>
<path d="M12.9924 31.6562L12.9913 31.6568L19.4873 35.5995V27.7144L12.9924 31.6562V31.6565V31.6562Z" fill="#64DFDF"/>
<path d="M12.9913 31.6567V39.5421L19.4873 35.5994L12.9913 31.6567Z" fill="#80FFDB"/>
<path d="M12.9924 7.99453V0.109131L6.49634 4.05183L12.9924 7.99453Z" fill="#72EFDD"/>
<path d="M12.9924 15.8856V15.8854V8.00168V8.00024L12.9913 8.00111L6.49634 11.9429L12.9913 15.8848L12.9924 15.8854V15.8856Z" fill="#72EFDD"/>
<path d="M12.9924 23.771L12.9916 23.7713L6.49634 27.7134L12.9924 31.6561V31.6564V31.6561V23.7719V23.771Z" fill="#72EFDD"/>
<path d="M0 15.886V23.7714L6.49606 19.8287L0 15.886Z" fill="#80FFDB"/>
</g>
<path d="M66.2557 40.817C67.7812 34.7972 70.3374 24.75 71.3682 19.4232H71.4094C72.3989 24.5334 74.9139 34.1909 76.3982 40.817H82.7887L90.4574 10.9782H84.5204C83.4896 15.6121 80.7273 27.1752 79.779 33.7579H79.7378C78.7895 28.2578 75.9447 16.6948 74.4604 10.9782H68.9356C67.2865 18.1672 64.5241 28.561 63.4521 34.061H63.4109C63.0811 30.7697 61.8854 24.6633 59.2055 10.9782H52.65L59.9064 40.817H66.2557Z" fill="#00468B"/>
<path d="M94.1455 40.817H100.083V18.3838H94.1455V40.817ZM100.083 14.746V9.20264H94.1455V14.746H100.083Z" fill="#00468B"/>
<path d="M106.245 40.817H112.182V28.3445C112.182 24.3602 113.584 22.8877 116.099 22.8877C118.737 22.8877 119.521 24.7066 119.521 27.2618V40.817H125.416V26.5689C125.416 20.9389 122.654 17.8641 118.366 17.8641C114.614 17.8641 112.883 19.8562 112.182 21.2421C112.141 20.5491 112.058 18.9901 111.934 18.3838H106.204C106.245 20.0728 106.245 22.1515 106.245 24.057V40.817Z" fill="#00468B"/>
<path d="M131.509 40.817H137.446V28.3445C137.446 24.3602 138.848 22.8877 141.363 22.8877C144.002 22.8877 144.785 24.7066 144.785 27.2618V40.817H150.681V26.5689C150.681 20.9389 147.918 17.8641 143.63 17.8641C139.879 17.8641 138.147 19.8562 137.446 21.2421C137.405 20.5491 137.322 18.9901 137.199 18.3838H131.468C131.509 20.0728 131.509 22.1515 131.509 24.057V40.817Z" fill="#00468B"/>
<path d="M166.256 17.8641C159.494 17.8641 155.495 22.7578 155.495 29.687C155.495 36.3563 159.371 41.3366 165.967 41.3366C172.729 41.3366 176.605 36.3563 176.605 29.5571C176.605 22.5413 172.523 17.8641 166.256 17.8641ZM166.009 22.7578C168.977 22.7578 170.626 24.9665 170.626 29.6437C170.626 33.9311 169.018 36.4862 166.091 36.4862C163.246 36.4862 161.473 33.9311 161.473 29.6004C161.473 24.8799 163.288 22.7578 166.009 22.7578Z" fill="#00468B"/>
<path d="M179.253 18.3838L185.314 40.817H191.663C193.56 32.7618 194.714 27.6949 195.044 24.8799H195.085C195.58 27.8248 196.57 32.3287 198.343 40.817H204.651L211 18.3838H205.145C202.672 29.4271 202.012 32.7618 201.558 35.0571H201.517C201.229 32.6752 200.486 29.4271 198.095 18.3838H192.612C190.014 29.2972 189.396 32.8051 188.942 35.3169H188.86C188.448 32.502 187.417 27.3917 185.479 18.3838H179.253Z" fill="#00468B"/>
<defs>
<clipPath id="clip0_1_233">
<rect width="45.4252" height="50.5612" fill="white"/>
</clipPath>
</defs>
</svg>
